{
.appVersion = "1192";
copyright = "Copyright (c) 2012 by Carolina Giovagnoli & Andres Torresi. All rights reserved.";
customParameters = (
{
name = glyphOrder;
value = (
A,
B,
C,
D,
E,
F,
G,
H,
I,
J,
K,
L,
M,
N,
O,
P,
Q,
R,
S,
T,
U,
V,
W,
X,
Y,
Z,
a,
b,
c,
d,
e,
f,
g,
h,
dotlessi,
i,
dotlessj,
j,
k,
l,
m,
n,
o,
p,
q,
r,
s,
t,
u,
v,
w,
x,
y,
z,
space,
uni00A0,
fi,
fl,
longs,
germandbls,
AE,
ae,
OE,
oe,
Oslash,
oslash,
IJ,
ij,
at,
ampersand,
ring,
acute,
grave,
circumflex,
caron,
tilde,
dotaccent,
macron,
uni02C9,
dieresis,
hungarumlaut,
breve,
cedilla,
ogonek,
commaaccent,
zero,
one,
two,
three,
four,
five,
six,
seven,
eight,
nine,
onesuperior,
twosuperior,
threesuperior,
fraction,
onequarter,
onehalf,
threequarters,
oneeighth,
threeeighths,
fiveeighths,
seveneighths,
afii61248,
ordfeminine,
ordmasculine,
nsuperior,
trademark,
afii61352,
asterisk,
degree,
copyright,
registered,
period,
periodcentered,
ellipsis,
comma,
colon,
semicolon,
quotesingle,
quotedbl,
minute,
second,
quoteleft,
quoteright,
quotedblleft,
quotedblright,
quotedblbase,
quotesinglbase,
quotereversed,
bullet,
uni2219,
hyphen,
uni00AD,
endash,
emdash,
afii00208,
underscore,
underscoredbl,
uni203E,
bar,
brokenbar,
dagger,
daggerdbl,
parenleft,
parenright,
braceleft,
braceright,
bracketleft,
bracketright,
exclamdown,
exclam,
exclamdbl,
questiondown,
question,
backslash,
slash,
guilsinglleft,
guilsinglright,
guillemotleft,
guillemotright,
numbersign,
plus,
minus,
equal,
equivalence,
notequal,
approxequal,
plusminus,
divide,
multiply,
uni2215,
less,
greater,
lessequal,
greaterequal,
percent,
perthousand,
logicalnot,
revlogicalnot,
asciicircum,
asciitilde,
paragraph,
currency,
dollar,
Euro,
florin,
cent,
sterling,
lira,
yen,
franc,
peseta,
section,
Delta,
Omega,
partialdiff,
product,
summation,
radical,
infinity,
orthogonal,
intersection,
house,
integral,
integralbt,
integraltp,
estimated,
afii61289,
arrowleft,
arrowup,
arrowright,
arrowdown,
arrowboth,
arrowupdn,
arrowupdnbse,
eth,
Eth,
Dcroat,

glyphs = (
{
glyphname = A;
lastChange = "2019-08-11 12:29:22 +0000";
layers = (
{
layerId = master01;
paths = (
{
closed = 1;
nodes = (
"245 0 LINE",
"249 37 LINE",
"216 41 OFFCURVE",
"181 47 OFFCURVE",
"152 64 CURVE",
"198 215 LINE",
"400 215 LINE",
"451 64 LINE",
"422 47 OFFCURVE",
"392 41 OFFCURVE",
"359 37 CURVE",
"354 0 LINE",
"604 0 LINE",
"608 37 LINE",
"585 41 OFFCURVE",
"563 47 OFFCURVE",
"542 62 CURVE",
"336 667 LINE",
"276 667 LINE",
"89 63 LINE",
"66 46 OFFCURVE",
"44 41 OFFCURVE",
"18 37 CURVE",
"13 0 LINE"
);
},
{
closed = 1;
nodes = (
"383 267 LINE",
"214 267 LINE",
"295 528 LINE"
);
}
);
width = 623;
},
{
layerId = "3A3DE108-C793-40C5-98B7-5D5D6E88ABCD";
paths = (
{
closed = 1;
nodes = (
"563 0 LINE",
"567 37 LINE",
"544 41 OFFCURVE",
"518 46 OFFCURVE",
"496 62 CURVE",
"394 667 LINE",
"329 667 LINE",
"57 60 LINE",
"35 45 OFFCURVE",
"10 41 OFFCURVE",
"-16 37 CURVE",
"-21 0 LINE",
"214 0 LINE",
"219 37 LINE",
"187 41 OFFCURVE",
"152 47 OFFCURVE",
"124 62 CURVE",
"190 215 LINE",
"376 215 LINE",
"399 63 LINE",
"394 63 LINE",
"366 46 OFFCURVE",
"336 41 OFFCURVE",
"304 37 CURVE",
"298 0 LINE"
);
},
{
closed = 1;
nodes = (
"368 267 LINE",
"212 267 LINE",
"328 534 LINE"
);
}
);
width = 588;
},
{
layerId = "C58AFD15-F6AF-4274-A800-842D1A888C52";
paths = (
{
closed = 1;
nodes = (
"429 52 OFFCURVE",
"407 44 OFFCURVE",
"379 40 CURVE",
"373 0 LINE",
"647 0 LINE",
"652 40 LINE",
"628 44 OFFCURVE",
"604 52 OFFCURVE",
"591 74 CURVE",
"376 667 LINE",
"272 667 LINE",
"59 65 LINE",
"48 48 OFFCURVE",
"24 41 OFFCURVE",
"-2 40 CURVE",
"-8 0 LINE",
"218 0 LINE",
"223 40 LINE",
"189 44 OFFCURVE",
"157 54 OFFCURVE",
"138 70 CURVE",
"186 208 LINE",
"392 208 LINE",
"439 65 LINE"
);
},
{
closed = 1;
nodes = (
"371 271 LINE",
"208 271 LINE",
"293 511 LINE"
);
}
);
width = 652;
},
{
layerId = "E8623A4A-BA36-4417-942F-5A3A2106E744";
paths = (
{
closed = 1;
nodes = (
"384 52 OFFCURVE",
"359 44 OFFCURVE",
"330 40 CURVE",
"324 0 LINE",
"600 0 LINE",
"604 40 LINE",
"581 44 OFFCURVE",
"559 53 OFFCURVE",
"550 74 CURVE",
"429 667 LINE",
"325 667 LINE",
"16 65 LINE",
"1 48 OFFCURVE",
"-24 42 OFFCURVE",
"-50 40 CURVE",
"-55 0 LINE",
"171 0 LINE",
"176 40 LINE",
"143 44 OFFCURVE",
"113 54 OFFCURVE",
"96 70 CURVE",
"166 208 LINE",
"372 208 LINE",
"396 65 LINE"
);
},
{
closed = 1;
nodes = (
"361 271 LINE",
"198 271 LINE",
"321 511 LINE"
);
}
);
width = 614;
}
);
unicode = 0041;
userData = {
com.typemytype.robofont.layerData = {
};
};
},
{
glyphname = B;
lastChange = "2019-08-11 12:29:22 +0000";
layers = (
{
layerId = master01;
paths = (
{
closed = 1;
nodes = (
"46 667 LINE",
"41 631 LINE",
"84 626 OFFCURVE",
"116 617 OFFCURVE",
"139 604 CURVE",
"139 64 LINE",
"115 50 OFFCURVE",
"88 42 OFFCURVE",
"47 37 CURVE",
"45 25 OFFCURVE",
"43 13 OFFCURVE",
"42 0 CURVE",
"332 0 LINE SMOOTH",
"479 0 OFFCURVE",
"562 74 OFFCURVE",
"562 188 CURVE SMOOTH",
"562 270 OFFCURVE",
"507 328 OFFCURVE",
"417 354 CURVE",
"494 376 OFFCURVE",
"534 425 OFFCURVE",
"534 501 CURVE SMOOTH",
"534 607 OFFCURVE",
"460 667 OFFCURVE",
"305 667 CURVE SMOOTH"
);
},
{
closed = 1;
nodes = (
"306 327 LINE SMOOTH",
"418 327 OFFCURVE",
"471 275 OFFCURVE",
"471 187 CURVE SMOOTH",
"471 98 OFFCURVE",
"425 49 OFFCURVE",
"332 49 CURVE SMOOTH",
"286 49 OFFCURVE",
"227 53 OFFCURVE",
"227 53 CURVE",
"227 327 LINE"
);
},
{
closed = 1;
nodes = (
"403 621 OFFCURVE",
"447 583 OFFCURVE",
"447 499 CURVE SMOOTH",
"447 415 OFFCURVE",
"403 376 OFFCURVE",
"307 376 CURVE SMOOTH",
"227 376 LINE",
"227 617 LINE",
"266 620 OFFCURVE",
"293 621 OFFCURVE",
"304 621 CURVE SMOOTH"
);
}
);
width = 611;
},
{
layerId = "3A3DE108-C793-40C5-98B7-5D5D6E88ABCD";
paths = (
{
closed = 1;
nodes = (
"131 630 LINE",
"163 626 OFFCURVE",
"192 619 OFFCURVE",
"217 604 CURVE",
"131 63 LINE",
"108 49 OFFCURVE",
"82 42 OFFCURVE",
"41 37 CURVE",
"35 0 LINE",
"278 0 LINE SMOOTH",
"462 0 OFFCURVE",
"541 102 OFFCURVE",
"541 214 CURVE SMOOTH",
"541 281 OFFCURVE",
"498 329 OFFCURVE",
"425 352 CURVE",
"521 375 OFFCURVE",
"575 435 OFFCURVE",
"575 531 CURVE SMOOTH",
"575 618 OFFCURVE",
"509 667 OFFCURVE",
"373 667 CURVE SMOOTH",
"136 667 LINE"
);
},
{
closed = 1;
nodes = (
"405 327 OFFCURVE",
"451 284 OFFCURVE",
"451 214 CURVE SMOOTH",
"451 109 OFFCURVE",
"387 49 OFFCURVE",
"291 49 CURVE SMOOTH",
"238 49 OFFCURVE",
"222 59 OFFCURVE",
"222 81 CURVE SMOOTH",
"222 84 OFFCURVE",
"222 87 OFFCURVE",
"223 90 CURVE",
"261 327 LINE",
"309 327 LINE SMOOTH"
);
},
{
closed = 1;
nodes = (
"448 620 OFFCURVE",
"487 592 OFFCURVE",
"487 530 CURVE SMOOTH",
"487 426 OFFCURVE",
"430 376 OFFCURVE",
"327 376 CURVE SMOOTH",
"268 376 LINE",
"300 578 LINE SMOOTH",
"306 615 OFFCURVE",
"316 619 OFFCURVE",
"364 620 CURVE SMOOTH"
);
}
);
width = 596;
},
{
layerId = "C58AFD15-F6AF-4274-A800-842D1A888C52";
paths = (
{
closed = 1;
nodes = (
"39 628 LINE",
"70 618 OFFCURVE",
"88 608 OFFCURVE",
"100 596 CURVE",
"100 71 LINE",
"82 53 OFFCURVE",
"68 46 OFFCURVE",
"43 41 CURVE",
"39 0 LINE",
"347 0 LINE SMOOTH",
"515 0 OFFCURVE",
"617 71 OFFCURVE",
"617 188 CURVE SMOOTH",
"617 269 OFFCURVE",
"565 331 OFFCURVE",
"472 359 CURVE",
"552 380 OFFCURVE",
"594 428 OFFCURVE",
"594 501 CURVE SMOOTH",
"594 609 OFFCURVE",
"500 667 OFFCURVE",
"325 667 CURVE SMOOTH",
"43 667 LINE"
);
},
{
closed = 1;
nodes = (
"404 320 OFFCURVE",
"457 275 OFFCURVE",
"457 187 CURVE SMOOTH",
"457 101 OFFCURVE",
"413 62 OFFCURVE",
"315 62 CURVE SMOOTH",
"294 62 OFFCURVE",
"273 63 OFFCURVE",
"247 65 CURVE",
"247 320 LINE",
"301 320 LINE SMOOTH"
);
},
{
closed = 1;
nodes = (
"439 422 OFFCURVE",
"393 383 OFFCURVE",
"302 383 CURVE SMOOTH",
"247 383 LINE",
"247 602 LINE",
"267 605 OFFCURVE",
"286 606 OFFCURVE",
"312 606 CURVE SMOOTH",
"393 606 OFFCURVE",
"439 568 OFFCURVE",
"439 499 CURVE SMOOTH"
);
}
);
width = 651;
},
{
layerId = "E8623A4A-BA36-4417-942F-5A3A2106E744";
paths = (
{
closed = 1;
nodes = (
"122 622 OFFCURVE",
"149 610 OFFCURVE",
"160 596 CURVE",
"77 71 LINE",
"56 55 OFFCURVE",
"38 46 OFFCURVE",
"5 41 CURVE",
"0 0 LINE",
"283 0 LINE SMOOTH",
"477 0 OFFCURVE",
"595 92 OFFCURVE",
"595 221 CURVE SMOOTH",
"595 290 OFFCURVE",
"553 334 OFFCURVE",
"475 359 CURVE",
"571 383 OFFCURVE",
"615 442 OFFCURVE",
"615 526 CURVE SMOOTH",
"615 619 OFFCURVE",
"540 667 OFFCURVE",
"380 667 CURVE SMOOTH",
"100 667 LINE",
"94 626 LINE"
);
},
{
closed = 1;
nodes = (
"296 320 LINE SMOOTH",
"381 320 OFFCURVE",
"435 293 OFFCURVE",
"435 227 CURVE SMOOTH",
"435 131 OFFCURVE",
"390 65 OFFCURVE",
"278 62 CURVE",
"240 64 OFFCURVE",
"228 73 OFFCURVE",
"228 96 CURVE SMOOTH",
"228 102 OFFCURVE",
"229 108 OFFCURVE",
"230 116 CURVE SMOOTH",
"263 320 LINE"
);
},
{
closed = 1;
nodes = (
"466 426 OFFCURVE",
"404 383 OFFCURVE",
"299 383 CURVE SMOOTH",
"273 383 LINE",
"304 577 LINE",
"311 600 OFFCURVE",
"322 605 OFFCURVE",
"355 606 CURVE",
"433 603 OFFCURVE",
"466 575 OFFCURVE",
"466 521 CURVE SMOOTH"
);
}
);
width = 625;
}
);
unicode = 0042;
userData = {
com.typemytype.robofont.layerData = {
};
};
},
{
glyphname = C;
lastChange = "2019-08-11 12:29:22 +0000";
layers = (
{
layerId = master01;
paths = (
{
closed = 1;
nodes = (
"458 95 OFFCURVE",
"387 53 OFFCURVE",
"313 53 CURVE SMOOTH",
"204 53 OFFCURVE",
"154 141 OFFCURVE",
"154 334 CURVE SMOOTH",
"154 531 OFFCURVE",
"205 622 OFFCURVE",
"313 622 CURVE SMOOTH",
"375 622 OFFCURVE",
"415 595 OFFCURVE",
"415 554 CURVE SMOOTH",
"415 538 OFFCURVE",
"409 522 OFFCURVE",
"396 504 CURVE",
"404 481 OFFCURVE",
"428 465 OFFCURVE",
"454 465 CURVE SMOOTH",
"486 465 OFFCURVE",
"512 500 OFFCURVE",
"512 544 CURVE SMOOTH",
"512 620 OFFCURVE",
"428 676 OFFCURVE",
"313 676 CURVE SMOOTH",
"137 676 OFFCURVE",
"54 566 OFFCURVE",
"54 334 CURVE SMOOTH",
"54 101 OFFCURVE",
"136 -7 OFFCURVE",
"312 -7 CURVE SMOOTH",
"443 -7 OFFCURVE",
"524 97 OFFCURVE",
"524 97 CURVE",
"489 135 LINE"
);
}
);
width = 562;
},
{
layerId = "3A3DE108-C793-40C5-98B7-5D5D6E88ABCD";
paths = (
{
closed = 1;
nodes = (
"438 622 OFFCURVE",
"463 592 OFFCURVE",
"463 560 CURVE SMOOTH",
"463 543 OFFCURVE",
"456 525 OFFCURVE",
"443 511 CURVE",
"445 488 OFFCURVE",
"466 472 OFFCURVE",
"493 472 CURVE SMOOTH",
"539 472 OFFCURVE",
"559 520 OFFCURVE",
"559 559 CURVE SMOOTH",
"559 620 OFFCURVE",
"505 675 OFFCURVE",
"395 675 CURVE SMOOTH",
"176 675 OFFCURVE",
"70 479 OFFCURVE",
"70 229 CURVE SMOOTH",
"70 71 OFFCURVE",
"147 -7 OFFCURVE",
"256 -7 CURVE SMOOTH",
"349 -7 OFFCURVE",
"416 28 OFFCURVE",
"504 98 CURVE",
"472 141 LINE",
"403 86 OFFCURVE",
"340 51 OFFCURVE",
"277 51 CURVE SMOOTH",
"212 51 OFFCURVE",
"167 98 OFFCURVE",
"167 213 CURVE SMOOTH",
"167 422 OFFCURVE",
"236 623 OFFCURVE",
"385 624 CURVE SMOOTH"
);
}
);
width = 540;
},
{
layerId = "C58AFD15-F6AF-4274-A800-842D1A888C52";
paths = (
{
closed = 1;
nodes = (
"410 -10 OFFCURVE",
"490 31 OFFCURVE",
"553 101 CURVE",
"520 133 LINE",
"474 84 OFFCURVE",
"421 58 OFFCURVE",
"368 58 CURVE SMOOTH",
"256 58 OFFCURVE",
"212 159 OFFCURVE",
"212 342 CURVE SMOOTH",
"212 525 OFFCURVE",
"250 621 OFFCURVE",
"330 621 CURVE SMOOTH",
"371 621 OFFCURVE",
"398 595 OFFCURVE",
"398 555 CURVE SMOOTH",
"398 538 OFFCURVE",
"392 519 OFFCURVE",
"382 502 CURVE",
"395 475 OFFCURVE",
"427 456 OFFCURVE",
"459 456 CURVE SMOOTH",
"504 456 OFFCURVE",
"539 494 OFFCURVE",
"539 542 CURVE SMOOTH",
"539 620 OFFCURVE",
"455 674 OFFCURVE",
"334 674 CURVE SMOOTH",
"145 674 OFFCURVE",
"47 556 OFFCURVE",
"47 325 CURVE SMOOTH",
"47 105 OFFCURVE",
"147 -10 OFFCURVE",
"335 -10 CURVE SMOOTH"
);
}
);
width = 573;
},
{
layerId = "E8623A4A-BA36-4417-942F-5A3A2106E744";
paths = (
{
closed = 1;
nodes = (
"364 -10 OFFCURVE",
"451 31 OFFCURVE",
"525 101 CURVE",
"497 133 LINE",
"443 84 OFFCURVE",
"386 58 OFFCURVE",
"333 58 CURVE SMOOTH",
"248 58 OFFCURVE",
"212 127 OFFCURVE",
"212 246 CURVE SMOOTH",
"212 407 OFFCURVE",
"255 621 OFFCURVE",
"384 621 CURVE SMOOTH",
"421 621 OFFCURVE",
"443 599 OFFCURVE",
"443 565 CURVE SMOOTH",
"443 544 OFFCURVE",
"433 522 OFFCURVE",
"418 502 CURVE",
"426 475 OFFCURVE",
"455 456 OFFCURVE",
"487 456 CURVE SMOOTH",
"537 456 OFFCURVE",
"582 501 OFFCURVE",
"582 555 CURVE SMOOTH",
"582 626 OFFCURVE",
"509 674 OFFCURVE",
"397 674 CURVE SMOOTH",
"165 674 OFFCURVE",
"47 511 OFFCURVE",
"47 249 CURVE SMOOTH",
"47 81 OFFCURVE",
"130 -10 OFFCURVE",
"289 -10 CURVE SMOOTH"
);
}
);
width = 552;
}
);
unicode = 0043;
userData = {
com.typemytype.robofont.layerData = {
};
};
},
{
glyphname = D;
lastChange = "2019-08-11 12:29:22 +0000";
layers = (
{
layerId = master01;
paths = (
{
closed = 1;
nodes = (
"254 0 LINE SMOOTH",
"490 0 OFFCURVE",
"609 96 OFFCURVE",
"609 333 CURVE SMOOTH",
"609 569 OFFCURVE",
"489 667 OFFCURVE",
"260 667 CURVE SMOOTH",
"45 667 LINE",
"40 631 LINE",
"72 627 OFFCURVE",
"108 620 OFFCURVE",
"137 604 CURVE",
"137 63 LINE",
"109 46 OFFCURVE",
"78 41 OFFCURVE",
"46 37 CURVE",
"41 0 LINE"
);
},
{
closed = 1;
nodes = (
"425 617 OFFCURVE",
"509 548 OFFCURVE",
"509 334 CURVE SMOOTH",
"509 117 OFFCURVE",
"423 49 OFFCURVE",
"271 49 CURVE SMOOTH",
"257 49 OFFCURVE",
"239 50 OFFCURVE",
"226 53 CURVE",
"226 617 LINE",
"274 617 LINE SMOOTH"
);
}
);
width = 662;
},
{
layerId = "3A3DE108-C793-40C5-98B7-5D5D6E88ABCD";
paths = (
{
closed = 1;
nodes = (
"117 630 LINE",
"148 626 OFFCURVE",
"177 619 OFFCURVE",
"202 604 CURVE",
"116 62 LINE",
"88 45 OFFCURVE",
"58 41 OFFCURVE",
"26 37 CURVE",
"21 0 LINE",
"228 0 LINE SMOOTH",
"478 0 OFFCURVE",
"617 159 OFFCURVE",
"617 431 CURVE SMOOTH",
"617 602 OFFCURVE",
"510 667 OFFCURVE",
"333 667 CURVE SMOOTH",
"122 667 LINE"
);
},
{
closed = 1;
nodes = (
"446 617 OFFCURVE",
"519 578 OFFCURVE",
"519 441 CURVE SMOOTH",
"519 274 OFFCURVE",
"449 49 OFFCURVE",
"264 49 CURVE SMOOTH",
"223 49 OFFCURVE",
"207 57 OFFCURVE",
"207 80 CURVE SMOOTH",
"207 83 OFFCURVE",
"207 86 OFFCURVE",
"208 90 CURVE",
"292 617 LINE",
"339 617 LINE SMOOTH"
);
}
);
width = 646;
},
{
layerId = "C58AFD15-F6AF-4274-A800-842D1A888C52";
paths = (
{
closed = 1;
nodes = (
"254 0 LINE SMOOTH",
"533 0 OFFCURVE",
"651 101 OFFCURVE",
"651 333 CURVE SMOOTH",
"651 565 OFFCURVE",
"534 667 OFFCURVE",
"260 667 CURVE SMOOTH",
"46 667 LINE",
"42 628 LINE",
"71 618 OFFCURVE",
"90 608 OFFCURVE",
"102 597 CURVE",
"102 70 LINE",
"84 53 OFFCURVE",
"70 46 OFFCURVE",
"46 41 CURVE",
"42 0 LINE"
);
},
{
closed = 1;
nodes = (
"436 605 OFFCURVE",
"494 524 OFFCURVE",
"494 334 CURVE SMOOTH",
"494 145 OFFCURVE",
"433 62 OFFCURVE",
"289 62 CURVE SMOOTH",
"267 62 OFFCURVE",
"257 63 OFFCURVE",
"250 66 CURVE",
"250 605 LINE",
"292 605 LINE SMOOTH"
);
}
);
width = 705;
},
{
layerId = "E8623A4A-BA36-4417-942F-5A3A2106E744";
paths = (
{
closed = 1;
nodes = (
"115 622 OFFCURVE",
"142 610 OFFCURVE",
"153 596 CURVE",
"69 70 LINE",
"48 55 OFFCURVE",
"30 46 OFFCURVE",
"-2 41 CURVE",
"-7 0 LINE",
"218 0 LINE SMOOTH",
"548 0 OFFCURVE",
"648 204 OFFCURVE",
"648 413 CURVE SMOOTH",
"648 608 OFFCURVE",
"502 667 OFFCURVE",
"302 667 CURVE SMOOTH",
"93 667 LINE",
"87 626 LINE"
);
},
{
closed = 1;
nodes = (
"329 605 LINE SMOOTH",
"434 605 OFFCURVE",
"492 549 OFFCURVE",
"492 429 CURVE SMOOTH",
"492 297 OFFCURVE",
"457 63 OFFCURVE",
"258 63 CURVE SMOOTH",
"233 63 OFFCURVE",
"222 75 OFFCURVE",
"222 99 CURVE SMOOTH",
"222 104 OFFCURVE",
"223 110 OFFCURVE",
"224 117 CURVE SMOOTH",
"302 605 LINE"
);
}
);
width = 679;
}
);
unicode = 0044;
userData = {
com.typemytype.robofont.layerData = {
};
};
},
{
glyphname = E;
lastChange = "2019-08-11 12:29:22 +0000";
layers = (
{
layerId = master01;
paths = (
{
closed = 1;
nodes = (
"36 667 LINE",
"35 655 OFFCURVE",
"33 643 OFFCURVE",
"31 631 CURVE",
"64 627 OFFCURVE",
"100 619 OFFCURVE",
"129 604 CURVE",
"129 64 LINE",
"113 52 OFFCURVE",
"70 41 OFFCURVE",
"37 37 CURVE",
"31 0 LINE",
"504 0 LINE",
"513 171 LINE",
"505 172 OFFCURVE",
"499 173 OFFCURVE",
"492 173 CURVE SMOOTH",
"486 173 OFFCURVE",
"479 172 OFFCURVE",
"473 171 CURVE",
"467 138 OFFCURVE",
"456 94 OFFCURVE",
"430 58 CURVE",
"217 58 LINE",
"217 318 LINE",
"329 312 LINE SMOOTH",
"367 310 OFFCURVE",
"377 272 OFFCURVE",
"384 247 CURVE",
"386 238 LINE",
"418 238 LINE",
"418 436 LINE",
"386 436 LINE",
"380 413 OFFCURVE",
"365 370 OFFCURVE",
"330 369 CURVE SMOOTH",
"217 364 LINE",
"217 614 LINE",
"405 614 LINE",
"430 583 OFFCURVE",
"441 543 OFFCURVE",
"447 512 CURVE",
"452 511 OFFCURVE",
"457 510 OFFCURVE",
"462 510 CURVE SMOOTH",
"472 510 OFFCURVE",
"482 512 OFFCURVE",
"490 515 CURVE",
"482 667 LINE"
);
}
);
width = 575;
},
{
layerId = "3A3DE108-C793-40C5-98B7-5D5D6E88ABCD";
paths = (
{
closed = 1;
nodes = (
"494 169 LINE",
"486 170 OFFCURVE",
"479 171 OFFCURVE",
"473 171 CURVE SMOOTH",
"466 171 OFFCURVE",
"459 170 OFFCURVE",
"453 169 CURVE",
"441 136 OFFCURVE",
"424 92 OFFCURVE",
"393 57 CURVE",
"199 57 LINE",
"240 316 LINE",
"344 312 LINE SMOOTH",
"387 310 OFFCURVE",
"386 262 OFFCURVE",
"390 239 CURVE",
"421 239 LINE",
"452 434 LINE",
"420 434 LINE",
"411 412 OFFCURVE",
"390 371 OFFCURVE",
"355 368 CURVE SMOOTH",
"338 366 OFFCURVE",
"285 364 OFFCURVE",
"248 363 CURVE",
"288 614 LINE",
"472 614 LINE",
"492 583 OFFCURVE",
"496 544 OFFCURVE",
"497 513 CURVE",
"502 512 OFFCURVE",
"507 511 OFFCURVE",
"512 511 CURVE SMOOTH",
"522 511 OFFCURVE",
"532 513 OFFCURVE",
"541 516 CURVE",
"556 667 LINE",
"117 667 LINE",
"112 630 LINE",
"145 626 OFFCURVE",
"173 619 OFFCURVE",
"198 604 CURVE",
"112 63 LINE",
"84 46 OFFCURVE",
"55 41 OFFCURVE",
"22 37 CURVE",
"17 0 LINE",
"458 0 LINE"
);
}
);
width = 568;
},
{
layerId = "C58AFD15-F6AF-4274-A800-842D1A888C52";
paths = (
{
closed = 1;
nodes = (
"41 667 LINE",
"38 630 LINE",
"62 625 OFFCURVE",
"83 615 OFFCURVE",
"99 601 CURVE",
"99 66 LINE",
"89 55 OFFCURVE",
"63 44 OFFCURVE",
"42 41 CURVE",
"38 0 LINE",
"532 0 LINE",
"542 189 LINE",
"531 191 OFFCURVE",
"520 192 OFFCURVE",
"509 192 CURVE SMOOTH",
"494 192 OFFCURVE",
"482 191 OFFCURVE",
"468 189 CURVE",
"458 135 OFFCURVE",
"442 93 OFFCURVE",
"421 62 CURVE",
"246 62 LINE",
"246 318 LINE",
"338 310 LINE SMOOTH",
"361 308 OFFCURVE",
"376 290 OFFCURVE",
"395 236 CURVE",
"447 236 LINE",
"447 443 LINE",
"395 443 LINE",
"385 404 OFFCURVE",
"363 378 OFFCURVE",
"339 376 CURVE SMOOTH",
"246 369 LINE",
"246 606 LINE",
"414 606 LINE",
"434 579 OFFCURVE",
"446 550 OFFCURVE",
"457 499 CURVE",
"468 497 OFFCURVE",
"479 495 OFFCURVE",
"489 495 CURVE SMOOTH",
"504 495 OFFCURVE",
"518 498 OFFCURVE",
"531 502 CURVE",
"527 667 LINE"
);
}
);
width = 578;
},
{
layerId = "E8623A4A-BA36-4417-942F-5A3A2106E744";
paths = (
{
closed = 1;
nodes = (
"107 622 OFFCURVE",
"134 610 OFFCURVE",
"145 596 CURVE",
"62 71 LINE",
"41 55 OFFCURVE",
"23 46 OFFCURVE",
"-10 41 CURVE",
"-15 0 LINE",
"485 0 LINE",
"525 188 LINE",
"518 190 OFFCURVE",
"510 191 OFFCURVE",
"503 191 CURVE SMOOTH",
"484 191 OFFCURVE",
"471 188 OFFCURVE",
"457 184 CURVE",
"446 153 OFFCURVE",
"425 101 OFFCURVE",
"394 62 CURVE",
"207 62 LINE",
"247 314 LINE",
"335 310 LINE SMOOTH",
"358 309 OFFCURVE",
"370 290 OFFCURVE",
"380 236 CURVE",
"422 236 LINE",
"455 443 LINE",
"413 443 LINE",
"397 404 OFFCURVE",
"371 377 OFFCURVE",
"347 376 CURVE SMOOTH",
"256 372 LINE",
"294 606 LINE",
"463 606 LINE",
"480 572 OFFCURVE",
"484 528 OFFCURVE",
"485 499 CURVE",
"492 497 OFFCURVE",
"500 496 OFFCURVE",
"507 496 CURVE SMOOTH",
"526 496 OFFCURVE",
"539 499 OFFCURVE",
"553 503 CURVE",
"575 667 LINE",
"85 667 LINE",
"79 626 LINE"
);
}
);
width = 562;
}
);
unicode = 0045;
userData = {
com.typemytype.robofont.layerData = {
};
};
},
{
glyphname = F;
lastChange = "2019-08-11 12:29:22 +0000";
layers = (
{
layerId = master01;
paths = (
{
closed = 1;
nodes = (
"310 0 LINE",
"314 37 LINE",
"281 41 OFFCURVE",
"243 48 OFFCURVE",
"217 64 CURVE",
"217 310 LINE",
"329 304 LINE SMOOTH",
"366 302 OFFCURVE",
"379 262 OFFCURVE",
"385 237 CURVE",
"386 231 LINE",
"418 231 LINE",
"418 429 LINE",
"386 429 LINE",
"380 405 OFFCURVE",
"364 362 OFFCURVE",
"330 361 CURVE SMOOTH",
"217 356 LINE",
"217 614 LINE",
"400 614 LINE",
"427 583 OFFCURVE",
"441 543 OFFCURVE",
"447 512 CURVE",
"452 510 OFFCURVE",
"458 510 OFFCURVE",
"463 510 CURVE SMOOTH",
"473 510 OFFCURVE",
"482 512 OFFCURVE",
"490 515 CURVE",
"482 667 LINE",
"36 667 LINE",
"35 655 OFFCURVE",
"33 643 OFFCURVE",
"31 631 CURVE",
"65 627 OFFCURVE",
"100 619 OFFCURVE",
"129 604 CURVE",
"129 64 LINE",
"113 52 OFFCURVE",
"70 41 OFFCURVE",
"37 37 CURVE",
"31 0 LINE"
);
}
);
width = 537;
},
{
layerId = "3A3DE108-C793-40C5-98B7-5D5D6E88ABCD";
paths = (
{
closed = 1;
nodes = (
"69 46 OFFCURVE",
"40 41 OFFCURVE",
"7 37 CURVE",
"1 0 LINE",
"276 0 LINE",
"281 37 LINE",
"249 41 OFFCURVE",
"210 47 OFFCURVE",
"185 63 CURVE",
"224 311 LINE",
"329 307 LINE SMOOTH",
"372 305 OFFCURVE",
"371 257 OFFCURVE",
"375 234 CURVE",
"406 234 LINE",
"437 429 LINE",
"405 429 LINE",
"396 407 OFFCURVE",
"375 365 OFFCURVE",
"340 363 CURVE SMOOTH",
"232 358 LINE",
"273 614 LINE",
"452 614 LINE",
"473 583 OFFCURVE",
"481 544 OFFCURVE",
"482 513 CURVE",
"487 512 OFFCURVE",
"492 511 OFFCURVE",
"497 511 CURVE SMOOTH",
"507 511 OFFCURVE",
"517 513 OFFCURVE",
"526 516 CURVE",
"542 667 LINE",
"103 667 LINE",
"98 630 LINE",
"129 626 OFFCURVE",
"158 619 OFFCURVE",
"183 604 CURVE",
"97 63 LINE"
);
}
);
width = 527;
},
{
layerId = "C58AFD15-F6AF-4274-A800-842D1A888C52";
paths = (
{
closed = 1;
nodes = (
"287 46 OFFCURVE",
"261 57 OFFCURVE",
"246 71 CURVE",
"246 318 LINE",
"338 310 LINE SMOOTH",
"361 308 OFFCURVE",
"376 290 OFFCURVE",
"395 236 CURVE",
"447 236 LINE",
"447 443 LINE",
"395 443 LINE",
"385 404 OFFCURVE",
"363 378 OFFCURVE",
"339 376 CURVE SMOOTH",
"246 369 LINE",
"246 606 LINE",
"409 606 LINE",
"429 579 OFFCURVE",
"441 550 OFFCURVE",
"452 499 CURVE",
"464 497 OFFCURVE",
"476 496 OFFCURVE",
"487 496 CURVE SMOOTH",
"500 496 OFFCURVE",
"513 498 OFFCURVE",
"527 502 CURVE",
"518 667 LINE",
"41 667 LINE",
"38 630 LINE",
"62 625 OFFCURVE",
"83 615 OFFCURVE",
"99 601 CURVE",
"99 66 LINE",
"89 55 OFFCURVE",
"63 44 OFFCURVE",
"42 41 CURVE",
"38 0 LINE",
"314 0 LINE",
"321 39 LINE"
);
}
);
width = 551;
},
{
layerId = "E8623A4A-BA36-4417-942F-5A3A2106E744";
paths = (
{
closed = 1;
nodes = (
"107 622 OFFCURVE",
"134 610 OFFCURVE",
"145 596 CURVE",
"62 71 LINE",
"41 55 OFFCURVE",
"23 46 OFFCURVE",
"-10 41 CURVE",
"-15 0 LINE",
"291 0 LINE",
"296 41 LINE",
"264 48 OFFCURVE",
"222 57 OFFCURVE",
"209 71 CURVE",
"246 304 LINE",
"334 300 LINE SMOOTH",
"357 299 OFFCURVE",
"369 280 OFFCURVE",
"379 226 CURVE",
"421 226 LINE",
"454 433 LINE",
"412 433 LINE",
"396 394 OFFCURVE",
"370 367 OFFCURVE",
"346 366 CURVE SMOOTH",
"255 362 LINE",
"294 606 LINE",
"464 606 LINE",
"481 572 OFFCURVE",
"485 528 OFFCURVE",
"486 499 CURVE",
"493 497 OFFCURVE",
"501 496 OFFCURVE",
"508 496 CURVE SMOOTH",
"527 496 OFFCURVE",
"540 499 OFFCURVE",
"554 503 CURVE",
"576 667 LINE",
"85 667 LINE",
"79 626 LINE"
);
}
);
width = 536;
}
);
unicode = 0046;
userData = {
com.typemytype.robofont.layerData = {
};
};
},
{
glyphname = G;
lastChange = "2019-08-11 12:29:22 +0000";
layers = (
{
layerId = master01;
paths = (
{
closed = 1;
nodes = (
"389 276 OFFCURVE",
"422 272 OFFCURVE",
"455 258 CURVE",
"455 83 LINE",
"406 48 OFFCURVE",
"349 46 OFFCURVE",
"332 46 CURVE SMOOTH",
"184 46 OFFCURVE",
"161 182 OFFCURVE",
"161 334 CURVE SMOOTH",
"161 487 OFFCURVE",
"185 622 OFFCURVE",
"334 622 CURVE SMOOTH",
"395 622 OFFCURVE",
"446 600 OFFCURVE",
"446 554 CURVE SMOOTH",
"446 539 OFFCURVE",
"440 523 OFFCURVE",
"427 504 CURVE",
"435 482 OFFCURVE",
"458 465 OFFCURVE",
"485 465 CURVE SMOOTH",
"516 465 OFFCURVE",
"544 496 OFFCURVE",
"544 544 CURVE SMOOTH",
"544 638 OFFCURVE",
"425 676 OFFCURVE",
"333 676 CURVE SMOOTH",
"129 676 OFFCURVE",
"60 543 OFFCURVE",
"60 334 CURVE SMOOTH",
"60 126 OFFCURVE",
"126 -7 OFFCURVE",
"332 -7 CURVE SMOOTH",
"403 -7 OFFCURVE",
"488 11 OFFCURVE",
"544 42 CURVE",
"544 325 LINE",
"357 316 LINE",
"353 279 LINE"
);
}
);
width = 611;
},
{
layerId = "3A3DE108-C793-40C5-98B7-5D5D6E88ABCD";
paths = (
{
closed = 1;
nodes = (
"385 250 OFFCURVE",
"418 243 OFFCURVE",
"441 236 CURVE",
"420 107 LINE SMOOTH",
"412 59 OFFCURVE",
"326 49 OFFCURVE",
"289 49 CURVE SMOOTH",
"219 49 OFFCURVE",
"167 91 OFFCURVE",
"167 213 CURVE SMOOTH",
"167 424 OFFCURVE",
"236 624 OFFCURVE",
"385 624 CURVE SMOOTH",
"438 624 OFFCURVE",
"463 591 OFFCURVE",
"463 560 CURVE SMOOTH",
"463 543 OFFCURVE",
"456 525 OFFCURVE",
"443 511 CURVE",
"445 488 OFFCURVE",
"466 472 OFFCURVE",
"493 472 CURVE SMOOTH",
"539 472 OFFCURVE",
"559 520 OFFCURVE",
"559 559 CURVE SMOOTH",
"559 620 OFFCURVE",
"505 675 OFFCURVE",
"395 675 CURVE SMOOTH",
"176 675 OFFCURVE",
"70 479 OFFCURVE",
"70 229 CURVE SMOOTH",
"70 55 OFFCURVE",
"163 -8 OFFCURVE",
"275 -8 CURVE SMOOTH",
"345 -8 OFFCURVE",
"424 11 OFFCURVE",
"490 55 CURVE",
"531 296 LINE",
"349 296 LINE",
"343 254 LINE"
);
}
);
width = 585;
},
{
layerId = "C58AFD15-F6AF-4274-A800-842D1A888C52";
paths = (
{
closed = 1;
nodes = (
"364 332 LINE",
"359 292 LINE",
"395 288 OFFCURVE",
"425 273 OFFCURVE",
"437 253 CURVE",
"437 72 LINE",
"417 63 OFFCURVE",
"396 58 OFFCURVE",
"374 58 CURVE SMOOTH",
"261 58 OFFCURVE",
"208 148 OFFCURVE",
"208 342 CURVE SMOOTH",
"208 526 OFFCURVE",
"257 621 OFFCURVE",
"351 621 CURVE SMOOTH",
"407 621 OFFCURVE",
"435 597 OFFCURVE",
"435 553 CURVE SMOOTH",
"435 537 OFFCURVE",
"429 520 OFFCURVE",
"418 502 CURVE",
"431 475 OFFCURVE",
"463 456 OFFCURVE",
"495 456 CURVE SMOOTH",
"540 456 OFFCURVE",
"575 494 OFFCURVE",
"575 542 CURVE SMOOTH",
"575 620 OFFCURVE",
"485 674 OFFCURVE",
"355 674 CURVE SMOOTH",
"156 674 OFFCURVE",
"53 555 OFFCURVE",
"53 325 CURVE SMOOTH",
"53 106 OFFCURVE",
"152 -10 OFFCURVE",
"341 -10 CURVE SMOOTH",
"428 -10 OFFCURVE",
"517 18 OFFCURVE",
"584 66 CURVE",
"584 340 LINE"
);
}
);
width = 646;
},
{
layerId = "E8623A4A-BA36-4417-942F-5A3A2106E744";
paths = (
{
closed = 1;
nodes = (
"361 310 LINE",
"353 252 LINE",
"384 250 OFFCURVE",
"409 244 OFFCURVE",
"428 233 CURVE",
"405 91 LINE",
"400 70 OFFCURVE",
"373 58 OFFCURVE",
"337 58 CURVE SMOOTH",
"249 58 OFFCURVE",
"206 121 OFFCURVE",
"206 249 CURVE SMOOTH",
"206 456 OFFCURVE",
"271 621 OFFCURVE",
"403 621 CURVE SMOOTH",
"453 621 OFFCURVE",
"478 601 OFFCURVE",
"478 564 CURVE SMOOTH",
"478 542 OFFCURVE",
"468 524 OFFCURVE",
"452 502 CURVE",
"460 475 OFFCURVE",
"489 456 OFFCURVE",
"521 456 CURVE SMOOTH",
"571 456 OFFCURVE",
"616 501 OFFCURVE",
"616 555 CURVE SMOOTH",
"616 625 OFFCURVE",
"537 674 OFFCURVE",
"416 674 CURVE SMOOTH",
"175 674 OFFCURVE",
"51 513 OFFCURVE",
"51 249 CURVE SMOOTH",
"51 81 OFFCURVE",
"133 -10 OFFCURVE",
"293 -10 CURVE SMOOTH",
"380 -10 OFFCURVE",
"474 18 OFFCURVE",
"548 66 CURVE",
"588 310 LINE"
);
}
);
width = 619;
}
);
unicode = 0047;
userData = {
com.typemytype.robofont.layerData = {
};
};
},
{
glyphname = H;
lastChange = "2019-08-11 12:29:22 +0000";
layers = (
{
layerId = master01;
paths = (
{
closed = 1;
nodes = (
"657 0 LINE",
"661 37 LINE",
"628 41 OFFCURVE",
"598 47 OFFCURVE",
"569 64 CURVE",
"569 604 LINE",
"598 620 OFFCURVE",
"624 627 OFFCURVE",
"656 631 CURVE",
"657 643 OFFCURVE",
"659 655 OFFCURVE",
"661 667 CURVE",
"388 667 LINE",
"387 655 OFFCURVE",
"385 643 OFFCURVE",
"383 631 CURVE",
"417 627 OFFCURVE",
"452 619 OFFCURVE",
"481 604 CURVE",
"481 368 LINE",
"206 368 LINE",
"206 604 LINE",
"235 620 OFFCURVE",
"265 627 OFFCURVE",
"298 631 CURVE",
"304 667 LINE",
"30 667 LINE",
"29 655 OFFCURVE",
"27 643 OFFCURVE",
"25 631 CURVE",
"59 627 OFFCURVE",
"89 619 OFFCURVE",
"118 604 CURVE",
"118 64 LINE",
"89 47 OFFCURVE",
"63 41 OFFCURVE",
"31 37 CURVE",
"25 0 LINE",
"299 0 LINE",
"300 13 OFFCURVE",
"302 25 OFFCURVE",
"304 37 CURVE",
"270 41 OFFCURVE",
"235 48 OFFCURVE",
"206 64 CURVE",
"206 317 LINE",
"481 317 LINE",
"481 64 LINE",
"452 47 OFFCURVE",
"422 41 OFFCURVE",
"389 37 CURVE",
"383 0 LINE"
);
}
);
width = 687;
},
{
layerId = "3A3DE108-C793-40C5-98B7-5D5D6E88ABCD";
paths = (
{
closed = 1;
nodes = (
"265 0 LINE",
"269 37 LINE",
"237 41 OFFCURVE",
"211 47 OFFCURVE",
"184 63 CURVE",
"224 315 LINE",
"479 315 LINE",
"439 63 LINE",
"411 46 OFFCURVE",
"391 41 OFFCURVE",
"359 37 CURVE",
"354 0 LINE",
"613 0 LINE",
"618 37 LINE",
"585 41 OFFCURVE",
"555 47 OFFCURVE",
"527 63 CURVE",
"613 604 LINE",
"640 620 OFFCURVE",
"660 626 OFFCURVE",
"692 630 CURVE",
"698 667 LINE",
"444 667 LINE",
"440 630 LINE",
"472 626 OFFCURVE",
"498 619 OFFCURVE",
"525 604 CURVE",
"487 369 LINE",
"232 369 LINE",
"270 604 LINE",
"297 620 OFFCURVE",
"317 626 OFFCURVE",
"350 630 CURVE",
"355 667 LINE",
"101 667 LINE",
"96 630 LINE",
"129 626 OFFCURVE",
"157 619 OFFCURVE",
"182 604 CURVE",
"96 63 LINE",
"68 46 OFFCURVE",
"43 41 OFFCURVE",
"11 37 CURVE",
"6 0 LINE"
);
}
);
width = 669;
},
{
layerId = "C58AFD15-F6AF-4274-A800-842D1A888C52";
paths = (
{
closed = 1;
nodes = (
"280 46 OFFCURVE",
"254 57 OFFCURVE",
"239 71 CURVE",
"239 310 LINE",
"468 310 LINE",
"468 71 LINE",
"450 53 OFFCURVE",
"437 46 OFFCURVE",
"411 41 CURVE",
"407 0 LINE",
"683 0 LINE",
"690 39 LINE",
"656 46 OFFCURVE",
"630 57 OFFCURVE",
"615 71 CURVE",
"615 596 LINE",
"631 610 OFFCURVE",
"651 620 OFFCURVE",
"676 628 CURVE",
"682 667 LINE",
"404 667 LINE",
"399 626 LINE",
"431 620 OFFCURVE",
"448 613 OFFCURVE",
"468 596 CURVE",
"468 373 LINE",
"239 373 LINE",
"239 596 LINE",
"259 613 OFFCURVE",
"276 620 OFFCURVE",
"308 626 CURVE",
"314 667 LINE",
"35 667 LINE",
"31 628 LINE",
"57 619 OFFCURVE",
"77 609 OFFCURVE",
"92 596 CURVE",
"92 71 LINE",
"74 53 OFFCURVE",
"61 46 OFFCURVE",
"35 41 CURVE",
"31 0 LINE",
"307 0 LINE",
"314 39 LINE"
);
}
);
width = 722;
},
{
layerId = "E8623A4A-BA36-4417-942F-5A3A2106E744";
paths = (
{
closed = 1;
nodes = (
"464 622 OFFCURVE",
"491 610 OFFCURVE",
"502 596 CURVE",
"467 373 LINE",
"258 373 LINE",
"293 596 LINE",
"316 613 OFFCURVE",
"333 620 OFFCURVE",
"366 626 CURVE",
"372 667 LINE",
"86 667 LINE",
"80 626 LINE",
"108 622 OFFCURVE",
"135 610 OFFCURVE",
"146 596 CURVE",
"63 71 LINE",
"42 55 OFFCURVE",
"24 46 OFFCURVE",
"-9 41 CURVE",
"-14 0 LINE",
"272 0 LINE",
"277 41 LINE",
"245 48 OFFCURVE",
"223 57 OFFCURVE",
"210 71 CURVE",
"248 310 LINE",
"457 310 LINE",
"419 71 LINE",
"398 55 OFFCURVE",
"380 46 OFFCURVE",
"347 41 CURVE",
"342 0 LINE",
"628 0 LINE",
"633 41 LINE",
"601 48 OFFCURVE",
"579 57 OFFCURVE",
"566 71 CURVE",
"649 596 LINE",
"672 613 OFFCURVE",
"689 620 OFFCURVE",
"722 626 CURVE",
"728 667 LINE",
"442 667 LINE",
"436 626 LINE"
);
}
);
width = 691;
}
);
unicode = 0048;
userData = {
com.typemytype.robofont.layerData = {
};
};
},
{
glyphname = I;
lastChange = "2019-08-11 12:29:22 +0000";
layers = (
{
layerId = master01;
paths = (
{
closed = 1;
nodes = (
"298 0 LINE",
"303 37 LINE",
"270 41 OFFCURVE",
"235 47 OFFCURVE",
"206 64 CURVE",
"206 604 LINE",
"235 620 OFFCURVE",
"265 627 OFFCURVE",
"297 631 CURVE",
"299 643 OFFCURVE",
"301 655 OFFCURVE",
"302 667 CURVE",
"25 667 LINE",
"24 655 OFFCURVE",
"22 643 OFFCURVE",
"20 631 CURVE",
"54 627 OFFCURVE",
"89 619 OFFCURVE",
"118 604 CURVE",
"118 64 LINE",
"89 47 OFFCURVE",
"58 41 OFFCURVE",
"26 37 CURVE",
"20 0 LINE"
);
}
);
width = 324;
},
{
layerId = "3A3DE108-C793-40C5-98B7-5D5D6E88ABCD";
paths = (
{
closed = 1;
nodes = (
"271 0 LINE",
"276 37 LINE",
"244 41 OFFCURVE",
"213 47 OFFCURVE",
"186 63 CURVE",
"272 604 LINE",
"300 620 OFFCURVE",
"325 626 OFFCURVE",
"357 630 CURVE",
"362 667 LINE",
"103 667 LINE",
"98 630 LINE",
"131 626 OFFCURVE",
"159 619 OFFCURVE",
"184 604 CURVE",
"98 63 LINE",
"70 46 OFFCURVE",
"44 41 OFFCURVE",
"12 37 CURVE",
"7 0 LINE"
);
}
);
width = 320;
},
{
layerId = "C58AFD15-F6AF-4274-A800-842D1A888C52";
paths = (
{
closed = 1;
nodes = (
"53 622 OFFCURVE",
"87 610 OFFCURVE",
"101 596 CURVE",
"101 71 LINE",
"82 55 OFFCURVE",
"61 46 OFFCURVE",
"29 41 CURVE",
"25 0 LINE",
"316 0 LINE",
"323 41 LINE",
"289 48 OFFCURVE",
"263 57 OFFCURVE",
"248 71 CURVE",
"248 596 LINE",
"268 613 OFFCURVE",
"285 620 OFFCURVE",
"317 626 CURVE",
"323 667 LINE",
"30 667 LINE",
"25 626 LINE"
);
}
);
width = 350;
},
{
layerId = "E8623A4A-BA36-4417-942F-5A3A2106E744";
paths = (
{
closed = 1;
nodes = (
"117 622 OFFCURVE",
"144 610 OFFCURVE",
"155 596 CURVE",
"72 71 LINE",
"51 55 OFFCURVE",
"33 46 OFFCURVE",
"0 41 CURVE",
"-5 0 LINE",
"281 0 LINE",
"286 41 LINE",
"254 48 OFFCURVE",
"232 57 OFFCURVE",
"219 71 CURVE",
"302 596 LINE",
"325 613 OFFCURVE",
"342 620 OFFCURVE",
"375 626 CURVE",
"381 667 LINE",
"95 667 LINE",
"89 626 LINE"
);
}
);
width = 341;
}
);
unicode = 0049;
userData = {
com.typemytype.robofont.layerData = {
};
};
},
{
glyphname = J;
lastChange = "2019-08-11 12:29:22 +0000";
layers = (
{
layerId = master01;
paths = (
{
closed = 1;
nodes = (
"198 604 LINE",
"226 620 OFFCURVE",
"256 627 OFFCURVE",
"289 631 CURVE",
"291 643 OFFCURVE",
"293 655 OFFCURVE",
"294 667 CURVE",
"17 667 LINE",
"12 631 LINE",
"46 627 OFFCURVE",
"81 619 OFFCURVE",
"110 604 CURVE",
"110 1 LINE SMOOTH",
"110 -98 OFFCURVE",
"51 -141 OFFCURVE",
"-8 -168 CURVE",
"3 -198 LINE",
"120 -167 OFFCURVE",
"198 -107 OFFCURVE",
"198 16 CURVE SMOOTH"
);
}
);
width = 307;
},
{
layerId = "3A3DE108-C793-40C5-98B7-5D5D6E88ABCD";
paths = (
{
closed = 1;
nodes = (
"299 620 OFFCURVE",
"324 626 OFFCURVE",
"356 630 CURVE",
"362 667 LINE",
"102 667 LINE",
"97 630 LINE",
"130 626 OFFCURVE",
"159 619 OFFCURVE",
"184 604 CURVE",
"88 1 LINE SMOOTH",
"73 -96 OFFCURVE",
"9 -139 OFFCURVE",
"-54 -165 CURVE",
"-48 -195 LINE",
"73 -165 OFFCURVE",
"160 -106 OFFCURVE",
"179 16 CURVE SMOOTH",
"272 604 LINE"
);
}
);
width = 299;
},
{
layerId = "C58AFD15-F6AF-4274-A800-842D1A888C52";
paths = (
{
closed = 1;
nodes = (
"46 622 OFFCURVE",
"80 610 OFFCURVE",
"94 596 CURVE",
"94 1 LINE SMOOTH",
"94 -95 OFFCURVE",
"42 -137 OFFCURVE",
"-8 -163 CURVE",
"13 -218 LINE",
"151 -183 OFFCURVE",
"241 -119 OFFCURVE",
"241 16 CURVE SMOOTH",
"241 596 LINE",
"261 613 OFFCURVE",
"278 620 OFFCURVE",
"310 626 CURVE",
"316 667 LINE",
"23 667 LINE",
"18 626 LINE"
);
}
);
width = 341;
},
{
layerId = "E8623A4A-BA36-4417-942F-5A3A2106E744";
paths = (
{
closed = 1;
nodes = (
"115 622 OFFCURVE",
"142 610 OFFCURVE",
"153 596 CURVE",
"59 1 LINE SMOOTH",
"44 -95 OFFCURVE",
"-15 -137 OFFCURVE",
"-69 -163 CURVE",
"-57 -218 LINE",
"87 -183 OFFCURVE",
"188 -119 OFFCURVE",
"209 16 CURVE SMOOTH",
"300 596 LINE",
"323 613 OFFCURVE",
"340 620 OFFCURVE",
"373 626 CURVE",
"379 667 LINE",
"93 667 LINE",
"87 626 LINE"
);
}
);
width = 333;
}
);
unicode = 004A;
userData = {
com.typemytype.robofont.layerData = {
};
};
},
{
glyphname = K;
lastChange = "2019-08-11 12:29:22 +0000";
layers = (
{
layerId = master01;
paths = (
{
closed = 1;
nodes = (
"305 0 LINE",
"306 13 OFFCURVE",
"308 25 OFFCURVE",
"310 37 CURVE",
"276 41 OFFCURVE",
"241 48 OFFCURVE",
"212 64 CURVE",
"212 604 LINE",
"241 620 OFFCURVE",
"270 627 OFFCURVE",
"304 631 CURVE",
"310 667 LINE",
"31 667 LINE",
"30 655 OFFCURVE",
"28 643 OFFCURVE",
"26 631 CURVE",
"59 627 OFFCURVE",
"95 619 OFFCURVE",
"123 604 CURVE",
"123 64 LINE",
"95 47 OFFCURVE",
"65 41 OFFCURVE",
"32 37 CURVE",
"26 0 LINE"
);
},
{
closed = 1;
nodes = (
"435 48 LINE SMOOTH",
"442 38 OFFCURVE",
"450 17 OFFCURVE",
"451 0 CURVE",
"611 0 LINE",
"617 38 LINE",
"575 42 OFFCURVE",
"549 52 OFFCURVE",
"532 64 CURVE",
"314 366 LINE",
"500 599 LINE",
"529 626 OFFCURVE",
"563 629 OFFCURVE",
"591 631 CURVE",
"595 667 LINE",
"360 667 LINE",
"354 631 LINE",
"389 630 OFFCURVE",
"416 620 OFFCURVE",
"416 602 CURVE SMOOTH",
"416 597 OFFCURVE",
"414 590 OFFCURVE",
"410 582 CURVE",
"222 348 LINE"
);
}
);
width = 629;
},
{
layerId = "3A3DE108-C793-40C5-98B7-5D5D6E88ABCD";
paths = (
{
closed = 1;
nodes = (
"280 0 LINE",
"284 37 LINE",
"252 41 OFFCURVE",
"222 47 OFFCURVE",
"194 63 CURVE",
"282 612 LINE",
"304 622 OFFCURVE",
"324 627 OFFCURVE",
"351 630 CURVE",
"356 667 LINE",
"111 667 LINE",
"106 630 LINE",
"139 626 OFFCURVE",
"168 619 OFFCURVE",
"192 604 CURVE",
"105 63 LINE",
"78 46 OFFCURVE",
"53 41 OFFCURVE",
"21 37 CURVE",
"15 0 LINE"
);
},
{
closed = 1;
nodes = (
"379 66 LINE SMOOTH",
"403 17 OFFCURVE",
"417 0 OFFCURVE",
"465 0 CURVE SMOOTH",
"558 0 LINE",
"569 38 LINE",
"518 44 OFFCURVE",
"490 58 OFFCURVE",
"478 83 CURVE SMOOTH",
"332 369 LINE",
"553 608 LINE",
"579 627 OFFCURVE",
"609 630 OFFCURVE",
"633 630 CURVE",
"637 667 LINE",
"419 667 LINE",
"414 630 LINE",
"448 629 OFFCURVE",
"463 620 OFFCURVE",
"463 602 CURVE SMOOTH",
"463 596 OFFCURVE",
"461 590 OFFCURVE",
"451 579 CURVE SMOOTH",
"242 347 LINE"
);
}
);
width = 603;
},
{
layerId = "C58AFD15-F6AF-4274-A800-842D1A888C52";
paths = (
{
closed = 1;
nodes = (
"280 46 OFFCURVE",
"254 57 OFFCURVE",
"239 71 CURVE",
"239 596 LINE",
"259 613 OFFCURVE",
"276 620 OFFCURVE",
"308 626 CURVE",
"314 667 LINE",
"35 667 LINE",
"31 628 LINE",
"57 619 OFFCURVE",
"77 609 OFFCURVE",
"92 596 CURVE",
"92 71 LINE",
"74 53 OFFCURVE",
"61 46 OFFCURVE",
"35 41 CURVE",
"31 0 LINE",
"307 0 LINE",
"314 39 LINE"
);
},
{
closed = 1;
nodes = (
"428 58 LINE SMOOTH",
"441 38 OFFCURVE",
"445 23 OFFCURVE",
"446 0 CURVE",
"674 0 LINE",
"681 41 LINE",
"645 47 OFFCURVE",
"616 59 OFFCURVE",
"595 76 CURVE",
"398 398 LINE",
"570 589 LINE SMOOTH",
"598 621 OFFCURVE",
"638 627 OFFCURVE",
"658 628 CURVE",
"664 667 LINE",
"414 667 LINE",
"420 628 LINE",
"447 628 OFFCURVE",
"472 619 OFFCURVE",
"472 601 CURVE SMOOTH",
"472 595 OFFCURVE",
"469 588 OFFCURVE",
"463 581 CURVE SMOOTH",
"253 348 LINE"
);
}
);
width = 682;
},
{
layerId = "E8623A4A-BA36-4417-942F-5A3A2106E744";
paths = (
{
closed = 1;
nodes = (
"382 58 LINE",
"392 38 OFFCURVE",
"411 0 OFFCURVE",
"462 0 CURVE SMOOTH",
"619 0 LINE",
"624 41 LINE",
"589 48 OFFCURVE",
"570 59 OFFCURVE",
"552 76 CURVE",
"425 391 LINE",
"613 589 LINE SMOOTH",
"645 622 OFFCURVE",
"686 625 OFFCURVE",
"706 626 CURVE",
"712 667 LINE",
"474 667 LINE",
"469 626 LINE",
"495 626 OFFCURVE",
"517 620 OFFCURVE",
"517 603 CURVE SMOOTH",
"517 597 OFFCURVE",
"513 589 OFFCURVE",
"505 581 CURVE SMOOTH",
"272 341 LINE"
);
},
{
closed = 1;
nodes = (
"113 622 OFFCURVE",
"140 610 OFFCURVE",
"151 596 CURVE",
"68 71 LINE",
"47 55 OFFCURVE",
"29 46 OFFCURVE",
"-4 41 CURVE",
"-9 0 LINE",
"277 0 LINE",
"282 41 LINE",
"250 48 OFFCURVE",
"228 57 OFFCURVE",
"215 71 CURVE",
"298 596 LINE",
"321 613 OFFCURVE",
"338 620 OFFCURVE",
"371 626 CURVE",
"377 667 LINE",
"91 667 LINE",
"85 626 LINE"
);
}
);
width = 655;
}
);
unicode = 004B;
userData = {
com.typemytype.robofont.layerData = {
};
};
},
{
glyphname = L;
lastChange = "2019-08-11 12:29:22 +0000";
layers = (
{
layerId = master01;
paths = (
{
closed = 1;
nodes = (
"503 171 LINE",
"495 173 OFFCURVE",
"488 174 OFFCURVE",
"481 174 CURVE SMOOTH",
"474 174 OFFCURVE",
"468 173 OFFCURVE",
"463 171 CURVE",
"457 138 OFFCURVE",
"445 94 OFFCURVE",
"420 58 CURVE",
"233 58 LINE",
"233 604 LINE",
"262 620 OFFCURVE",
"292 627 OFFCURVE",
"325 631 CURVE",
"330 667 LINE",
"53 667 LINE",
"51 655 OFFCURVE",
"49 643 OFFCURVE",
"48 631 CURVE",
"80 627 OFFCURVE",
"116 619 OFFCURVE",
"144 604 CURVE",
"144 64 LINE",
"117 47 OFFCURVE",
"86 41 OFFCURVE",
"54 37 CURVE",
"48 0 LINE",
"494 0 LINE"
);
}
);
width = 537;
},
{
layerId = "3A3DE108-C793-40C5-98B7-5D5D6E88ABCD";
paths = (
{
closed = 1;
nodes = (
"89 46 OFFCURVE",
"64 41 OFFCURVE",
"32 37 CURVE",
"26 0 LINE",
"438 0 LINE",
"475 169 LINE",
"467 170 OFFCURVE",
"460 171 OFFCURVE",
"454 171 CURVE SMOOTH",
"447 171 OFFCURVE",
"440 170 OFFCURVE",
"434 169 CURVE",
"422 136 OFFCURVE",
"404 92 OFFCURVE",
"374 57 CURVE",
"277 57 LINE SMOOTH",
"227 57 OFFCURVE",
"210 64 OFFCURVE",
"210 88 CURVE SMOOTH",
"210 91 OFFCURVE",
"212 104 OFFCURVE",
"214 115 CURVE SMOOTH",
"292 604 LINE",
"319 620 OFFCURVE",
"354 626 OFFCURVE",
"387 630 CURVE",
"392 667 LINE",
"123 667 LINE",
"118 630 LINE",
"150 626 OFFCURVE",
"179 619 OFFCURVE",
"204 604 CURVE",
"117 63 LINE"
);
}
);
width = 523;
},
{
layerId = "C58AFD15-F6AF-4274-A800-842D1A888C52";
paths = (
{
closed = 1;
nodes = (
"246 596 LINE",
"266 613 OFFCURVE",
"283 620 OFFCURVE",
"315 626 CURVE",
"321 667 LINE",
"42 667 LINE",
"37 626 LINE",
"63 617 OFFCURVE",
"84 609 OFFCURVE",
"99 596 CURVE",
"99 66 LINE",
"89 55 OFFCURVE",
"63 44 OFFCURVE",
"42 41 CURVE",
"38 0 LINE",
"532 0 LINE",
"542 189 LINE",
"531 191 OFFCURVE",
"520 192 OFFCURVE",
"509 192 CURVE SMOOTH",
"495 192 OFFCURVE",
"481 191 OFFCURVE",
"468 189 CURVE",
"458 135 OFFCURVE",
"442 93 OFFCURVE",
"421 62 CURVE",
"246 62 LINE"
);
}
);
width = 551;
},
{
layerId = "E8623A4A-BA36-4417-942F-5A3A2106E744";
paths = (
{
closed = 1;
nodes = (
"127 622 OFFCURVE",
"154 610 OFFCURVE",
"165 596 CURVE",
"82 71 LINE",
"61 55 OFFCURVE",
"43 46 OFFCURVE",
"10 41 CURVE",
"5 0 LINE",
"465 0 LINE",
"505 188 LINE",
"498 190 OFFCURVE",
"490 191 OFFCURVE",
"483 191 CURVE SMOOTH",
"464 191 OFFCURVE",
"451 188 OFFCURVE",
"437 184 CURVE",
"426 153 OFFCURVE",
"405 101 OFFCURVE",
"374 62 CURVE",
"227 62 LINE",
"312 596 LINE",
"335 613 OFFCURVE",
"362 620 OFFCURVE",
"395 626 CURVE",
"401 667 LINE",
"105 667 LINE",
"99 626 LINE"
);
}
);
width = 531;
}
);
unicode = 004C;
userData = {
com.typemytype.robofont.layerData = {
};
};
},
{
glyphname = M;
lastChange = "2019-08-11 12:29:22 +0000";
layers = (
{
layerId = master01;
paths = (
{
closed = 1;
nodes = (
"-3 667 LINE",
"-7 631 LINE",
"25 627 OFFCURVE",
"61 619 OFFCURVE",
"89 604 CURVE",
"89 64 LINE",
"61 47 OFFCURVE",
"31 41 OFFCURVE",
"-2 37 CURVE",
"-7 0 LINE",
"246 0 LINE",
"250 37 LINE",
"217 41 OFFCURVE",
"182 47 OFFCURVE",
"153 64 CURVE",
"153 538 LINE",
"157 538 LINE",
"370 0 LINE",
"429 0 LINE",
"632 529 LINE",
"636 529 LINE",
"636 64 LINE",
"607 47 OFFCURVE",
"578 41 OFFCURVE",
"544 37 CURVE",
"543 25 OFFCURVE",
"541 13 OFFCURVE",
"539 0 CURVE",
"817 0 LINE",
"821 37 LINE",
"788 41 OFFCURVE",
"753 47 OFFCURVE",
"724 64 CURVE",
"724 604 LINE",
"753 620 OFFCURVE",
"782 627 OFFCURVE",
"816 631 CURVE",
"817 643 OFFCURVE",
"819 655 OFFCURVE",
"821 667 CURVE",
"630 667 LINE",
"414 123 LINE",
"190 667 LINE"
);
}
);
width = 815;
},
{
layerId = "3A3DE108-C793-40C5-98B7-5D5D6E88ABCD";
paths = (
{
closed = 1;
nodes = (
"653 512 LINE",
"575 63 LINE",
"547 46 OFFCURVE",
"522 41 OFFCURVE",
"490 37 CURVE",
"485 0 LINE",
"749 0 LINE",
"753 37 LINE",
"721 41 OFFCURVE",
"691 47 OFFCURVE",
"663 63 CURVE",
"749 604 LINE",
"777 620 OFFCURVE",
"802 626 OFFCURVE",
"834 630 CURVE",
"839 667 LINE",
"678 667 LINE",
"376 116 LINE",
"249 667 LINE",
"76 667 LINE",
"71 630 LINE",
"104 626 OFFCURVE",
"131 619 OFFCURVE",
"156 604 CURVE",
"70 63 LINE",
"42 46 OFFCURVE",
"18 41 OFFCURVE",
"-15 37 CURVE",
"-20 0 LINE",
"220 0 LINE",
"224 37 LINE",
"192 41 OFFCURVE",
"162 47 OFFCURVE",
"134 63 CURVE",
"198 512 LINE",
"318 0 LINE",
"372 0 LINE"
);
}
);
width = 792;
},
{
layerId = "C58AFD15-F6AF-4274-A800-842D1A888C52";
paths = (
{
closed = 1;
nodes = (
"789 46 OFFCURVE",
"763 57 OFFCURVE",
"748 71 CURVE",
"748 596 LINE",
"764 610 OFFCURVE",
"784 620 OFFCURVE",
"809 628 CURVE",
"815 667 LINE",
"571 667 LINE",
"431 217 LINE",
"268 667 LINE",
"42 667 LINE",
"38 628 LINE",
"64 619 OFFCURVE",
"84 609 OFFCURVE",
"99 596 CURVE",
"99 71 LINE",
"81 53 OFFCURVE",
"68 46 OFFCURVE",
"42 41 CURVE",
"38 0 LINE",
"254 0 LINE",
"261 39 LINE",
"227 46 OFFCURVE",
"201 57 OFFCURVE",
"186 71 CURVE",
"186 481 LINE",
"365 0 LINE",
"442 0 LINE",
"605 508 LINE",
"605 71 LINE",
"588 53 OFFCURVE",
"575 46 OFFCURVE",
"549 41 CURVE",
"545 0 LINE",
"816 0 LINE",
"823 39 LINE"
);
}
);
width = 846;
},
{
layerId = "E8623A4A-BA36-4417-942F-5A3A2106E744";
paths = (
{
closed = 1;
nodes = (
"122 622 OFFCURVE",
"149 610 OFFCURVE",
"160 596 CURVE",
"77 71 LINE",
"56 55 OFFCURVE",
"38 46 OFFCURVE",
"5 41 CURVE",
"0 0 LINE",
"226 0 LINE",
"231 41 LINE",
"199 48 OFFCURVE",
"177 57 OFFCURVE",
"164 71 CURVE",
"229 484 LINE",
"322 0 LINE",
"399 0 LINE",
"628 484 LINE",
"563 71 LINE",
"542 55 OFFCURVE",
"524 46 OFFCURVE",
"491 41 CURVE",
"486 0 LINE",
"768 0 LINE",
"773 41 LINE",
"741 48 OFFCURVE",
"719 57 OFFCURVE",
"706 71 CURVE",
"789 596 LINE",
"812 613 OFFCURVE",
"829 620 OFFCURVE",
"862 626 CURVE",
"868 667 LINE",
"632 667 LINE",
"422 217 LINE",
"341 667 LINE",
"100 667 LINE",
"94 626 LINE"
);
}
);
width = 818;
}
);
unicode = 004D;
userData = {
com.typemytype.robofont.layerData = {
};
};
},
{
glyphname = N;
lastChange = "2019-08-11 12:29:22 +0000";
layers = (
{
layerId = master01;
paths = (
{
closed = 1;
nodes = (
"30 667 LINE",
"29 655 OFFCURVE",
"27 643 OFFCURVE",
"25 631 CURVE",
"59 627 OFFCURVE",
"94 619 OFFCURVE",
"123 604 CURVE",
"123 64 LINE",
"94 47 OFFCURVE",
"64 41 OFFCURVE",
"31 37 CURVE",
"25 0 LINE",
"279 0 LINE",
"283 37 LINE",
"251 41 OFFCURVE",
"214 48 OFFCURVE",
"186 64 CURVE",
"186 515 LINE",
"526 0 LINE",
"569 0 LINE",
"569 604 LINE",
"598 620 OFFCURVE",
"627 627 OFFCURVE",
"661 631 CURVE",
"662 643 OFFCURVE",
"664 655 OFFCURVE",
"666 667 CURVE",
"413 667 LINE",
"411 655 OFFCURVE",
"409 643 OFFCURVE",
"408 631 CURVE",
"440 627 OFFCURVE",
"477 619 OFFCURVE",
"504 604 CURVE",
"504 191 LINE",
"189 667 LINE"
);
}
);
width = 681;
},
{
layerId = "3A3DE108-C793-40C5-98B7-5D5D6E88ABCD";
paths = (
{
closed = 1;
nodes = (
"97 667 LINE",
"92 630 LINE",
"124 626 OFFCURVE",
"152 619 OFFCURVE",
"177 604 CURVE",
"90 62 LINE",
"62 46 OFFCURVE",
"38 41 OFFCURVE",
"6 37 CURVE",
"0 0 LINE",
"241 0 LINE",
"245 37 LINE",
"213 41 OFFCURVE",
"183 47 OFFCURVE",
"154 63 CURVE",
"226 510 LINE",
"473 0 LINE",
"514 0 LINE",
"610 604 LINE",
"638 620 OFFCURVE",
"663 626 OFFCURVE",
"695 630 CURVE",
"700 667 LINE",
"464 667 LINE",
"460 630 LINE",
"492 626 OFFCURVE",
"521 619 OFFCURVE",
"545 604 CURVE",
"480 193 LINE",
"251 667 LINE"
);
}
);
width = 671;
},
{
layerId = "C58AFD15-F6AF-4274-A800-842D1A888C52";
paths = (
{
closed = 1;
nodes = (
"444 667 LINE",
"439 626 LINE",
"471 620 OFFCURVE",
"488 613 OFFCURVE",
"508 596 CURVE",
"508 183 LINE",
"232 667 LINE",
"35 667 LINE",
"31 628 LINE",
"57 619 OFFCURVE",
"77 609 OFFCURVE",
"92 596 CURVE",
"92 71 LINE",
"74 53 OFFCURVE",
"61 46 OFFCURVE",
"35 41 CURVE",
"31 0 LINE",
"247 0 LINE",
"254 39 LINE",
"220 46 OFFCURVE",
"194 57 OFFCURVE",
"179 71 CURVE",
"179 460 LINE",
"443 0 LINE",
"595 0 LINE",
"595 596 LINE",
"611 610 OFFCURVE",
"631 620 OFFCURVE",
"656 628 CURVE",
"662 667 LINE"
);
}
);
width = 679;
},
{
layerId = "E8623A4A-BA36-4417-942F-5A3A2106E744";
paths = (
{
closed = 1;
nodes = (
"113 622 OFFCURVE",
"140 610 OFFCURVE",
"151 596 CURVE",
"68 71 LINE",
"47 55 OFFCURVE",
"29 46 OFFCURVE",
"-4 41 CURVE",
"-9 0 LINE",
"217 0 LINE",
"222 41 LINE",
"190 48 OFFCURVE",
"168 57 OFFCURVE",
"155 71 CURVE",
"217 460 LINE",
"388 0 LINE",
"540 0 LINE",
"634 596 LINE",
"657 613 OFFCURVE",
"674 620 OFFCURVE",
"707 626 CURVE",
"713 667 LINE",
"487 667 LINE",
"481 626 LINE",
"509 622 OFFCURVE",
"536 610 OFFCURVE",
"547 596 CURVE",
"482 183 LINE",
"303 667 LINE",
"91 667 LINE",
"85 626 LINE"
);
}
);
width = 662;
}
);
unicode = 004E;
userData = {
com.typemytype.robofont.layerData = {
};
};
},
{
glyphname = O;
lastChange = "2019-08-11 12:29:22 +0000";
layers = (
{
layerId = master01;
paths = (
{
closed = 1;
nodes = (
"177 42 OFFCURVE",
"154 181 OFFCURVE",
"154 334 CURVE SMOOTH",
"154 488 OFFCURVE",
"177 626 OFFCURVE",
"327 626 CURVE SMOOTH",
"477 626 OFFCURVE",
"499 487 OFFCURVE",
"499 333 CURVE SMOOTH",
"499 180 OFFCURVE",
"477 42 OFFCURVE",
"327 42 CURVE SMOOTH"
);
},
{
closed = 1;
nodes = (
"122 676 OFFCURVE",
"53 543 OFFCURVE",
"53 334 CURVE SMOOTH",
"53 126 OFFCURVE",
"122 -7 OFFCURVE",
"327 -7 CURVE SMOOTH",
"531 -7 OFFCURVE",
"600 125 OFFCURVE",
"600 333 CURVE SMOOTH",
"600 542 OFFCURVE",
"531 676 OFFCURVE",
"327 676 CURVE SMOOTH"
);
}
);
width = 653;
},
{
layerId = "3A3DE108-C793-40C5-98B7-5D5D6E88ABCD";
paths = (
{
closed = 1;
nodes = (
"192 40 OFFCURVE",
"160 103 OFFCURVE",
"160 216 CURVE SMOOTH",
"160 464 OFFCURVE",
"259 627 OFFCURVE",
"394 627 CURVE SMOOTH",
"477 627 OFFCURVE",
"508 562 OFFCURVE",
"508 446 CURVE SMOOTH",
"508 201 OFFCURVE",
"407 40 OFFCURVE",
"274 40 CURVE SMOOTH"
);
},
{
closed = 1;
nodes = (
"165 675 OFFCURVE",
"61 457 OFFCURVE",
"61 234 CURVE SMOOTH",
"61 77 OFFCURVE",
"126 -7 OFFCURVE",
"281 -7 CURVE SMOOTH",
"502 -7 OFFCURVE",
"606 210 OFFCURVE",
"606 433 CURVE SMOOTH",
"606 591 OFFCURVE",
"542 675 OFFCURVE",
"387 675 CURVE SMOOTH"
);
}
);
width = 622;
},
{
layerId = "C58AFD15-F6AF-4274-A800-842D1A888C52";
paths = (
{
closed = 1;
nodes = (
"214 537 OFFCURVE",
"253 620 OFFCURVE",
"348 620 CURVE SMOOTH",
"442 620 OFFCURVE",
"480 537 OFFCURVE",
"480 335 CURVE SMOOTH",
"480 131 OFFCURVE",
"442 48 OFFCURVE",
"348 48 CURVE SMOOTH",
"253 48 OFFCURVE",
"214 131 OFFCURVE",
"214 335 CURVE SMOOTH"
);
},
{
closed = 1;
nodes = (
"49 111 OFFCURVE",
"150 -10 OFFCURVE",
"348 -10 CURVE SMOOTH",
"547 -10 OFFCURVE",
"646 111 OFFCURVE",
"646 335 CURVE SMOOTH",
"646 558 OFFCURVE",
"547 678 OFFCURVE",
"348 678 CURVE SMOOTH",
"150 678 OFFCURVE",
"49 558 OFFCURVE",
"49 335 CURVE SMOOTH"
);
}
);
width = 695;
},
{
layerId = "E8623A4A-BA36-4417-942F-5A3A2106E744";
paths = (
{
closed = 1;
nodes = (
"208 353 OFFCURVE",
"266 620 OFFCURVE",
"399 620 CURVE SMOOTH",
"489 620 OFFCURVE",
"500 540 OFFCURVE",
"500 450 CURVE SMOOTH",
"500 317 OFFCURVE",
"442 50 OFFCURVE",
"309 50 CURVE SMOOTH",
"219 50 OFFCURVE",
"208 130 OFFCURVE",
"208 220 CURVE SMOOTH"
);
},
{
closed = 1;
nodes = (
"48 85 OFFCURVE",
"132 -10 OFFCURVE",
"300 -10 CURVE SMOOTH",
"542 -10 OFFCURVE",
"661 155 OFFCURVE",
"661 413 CURVE SMOOTH",
"661 584 OFFCURVE",
"578 678 OFFCURVE",
"409 678 CURVE SMOOTH",
"170 678 OFFCURVE",
"48 516 OFFCURVE",
"48 257 CURVE SMOOTH"
);
}
);
width = 675;
}
);
unicode = 004F;
userData = {
com.typemytype.robofont.layerData = {
};
};
},
{
glyphname = P;
lastChange = "2019-08-11 12:29:22 +0000";
layers = (
{
layerId = master01;
paths = (
{
closed = 1;
nodes = (
"315 0 LINE",
"319 37 LINE",
"286 41 OFFCURVE",
"251 47 OFFCURVE",
"222 64 CURVE",
"222 293 LINE",
"254 293 LINE SMOOTH",
"415 293 OFFCURVE",
"520 335 OFFCURVE",
"520 482 CURVE SMOOTH",
"520 598 OFFCURVE",
"453 667 OFFCURVE",
"298 667 CURVE SMOOTH",
"41 667 LINE",
"40 655 OFFCURVE",
"38 643 OFFCURVE",
"36 631 CURVE",
"70 627 OFFCURVE",
"105 619 OFFCURVE",
"134 604 CURVE",
"134 64 LINE",
"105 47 OFFCURVE",
"75 41 OFFCURVE",
"43 37 CURVE",
"37 0 LINE"
);
},
{
closed = 1;
nodes = (
"430 381 OFFCURVE",
"362 338 OFFCURVE",
"254 338 CURVE SMOOTH",
"222 338 LINE",
"222 619 LINE",
"245 623 OFFCURVE",
"268 625 OFFCURVE",
"288 625 CURVE SMOOTH",
"372 625 OFFCURVE",
"430 589 OFFCURVE",
"430 484 CURVE SMOOTH"
);
}
);
width = 568;
},
{
layerId = "3A3DE108-C793-40C5-98B7-5D5D6E88ABCD";
paths = (
{
closed = 1;
nodes = (
"120 667 LINE",
"115 630 LINE",
"148 626 OFFCURVE",
"176 619 OFFCURVE",
"201 604 CURVE",
"114 63 LINE",
"86 46 OFFCURVE",
"62 41 OFFCURVE",
"29 37 CURVE",
"24 0 LINE",
"289 0 LINE",
"293 37 LINE",
"261 41 OFFCURVE",
"230 47 OFFCURVE",
"203 63 CURVE",
"240 293 LINE",
"275 293 LINE SMOOTH",
"445 293 OFFCURVE",
"562 352 OFFCURVE",
"562 522 CURVE SMOOTH",
"562 623 OFFCURVE",
"494 667 OFFCURVE",
"355 667 CURVE SMOOTH"
);
},
{
closed = 1;
nodes = (
"432 625 OFFCURVE",
"472 591 OFFCURVE",
"472 520 CURVE SMOOTH",
"472 400 OFFCURVE",
"395 338 OFFCURVE",
"275 338 CURVE SMOOTH",
"247 338 LINE",
"287 589 LINE SMOOTH",
"291 614 OFFCURVE",
"298 621 OFFCURVE",
"331 624 CURVE SMOOTH",
"341 625 OFFCURVE",
"353 625 OFFCURVE",
"363 625 CURVE SMOOTH"
);
}
);
width = 555;
},
{
layerId = "C58AFD15-F6AF-4274-A800-842D1A888C52";
paths = (
{
closed = 1;
nodes = (
"287 46 OFFCURVE",
"261 57 OFFCURVE",
"247 71 CURVE",
"247 283 LINE",
"261 282 OFFCURVE",
"291 280 OFFCURVE",
"311 280 CURVE SMOOTH",
"488 280 OFFCURVE",
"586 351 OFFCURVE",
"586 481 CURVE SMOOTH",
"586 605 OFFCURVE",
"499 667 OFFCURVE",
"325 667 CURVE SMOOTH",
"43 667 LINE",
"39 628 LINE",
"68 618 OFFCURVE",
"87 608 OFFCURVE",
"100 596 CURVE",
"100 71 LINE",
"82 53 OFFCURVE",
"68 46 OFFCURVE",
"43 41 CURVE",
"39 0 LINE",
"315 0 LINE",
"322 39 LINE"
);
},
{
closed = 1;
nodes = (
"431 389 OFFCURVE",
"390 343 OFFCURVE",
"312 343 CURVE SMOOTH",
"247 343 LINE",
"247 602 LINE",
"266 605 OFFCURVE",
"284 606 OFFCURVE",
"312 606 CURVE SMOOTH",
"387 606 OFFCURVE",
"431 560 OFFCURVE",
"431 479 CURVE SMOOTH"
);
}
);
width = 614;
},
{
layerId = "E8623A4A-BA36-4417-942F-5A3A2106E744";
paths = (
{
closed = 1;
nodes = (
"118 622 OFFCURVE",
"145 610 OFFCURVE",
"156 596 CURVE",
"73 71 LINE",
"52 55 OFFCURVE",
"34 46 OFFCURVE",
"1 41 CURVE",
"-4 0 LINE",
"302 0 LINE",
"307 41 LINE",
"275 48 OFFCURVE",
"233 57 OFFCURVE",
"220 71 CURVE",
"252 277 LINE",
"267 277 LINE SMOOTH",
"437 277 OFFCURVE",
"617 340 OFFCURVE",
"617 510 CURVE SMOOTH",
"617 614 OFFCURVE",
"539 667 OFFCURVE",
"383 667 CURVE SMOOTH",
"96 667 LINE",
"90 626 LINE"
);
},
{
closed = 1;
nodes = (
"442 606 OFFCURVE",
"469 564 OFFCURVE",
"469 507 CURVE SMOOTH",
"469 436 OFFCURVE",
"421 343 OFFCURVE",
"282 343 CURVE SMOOTH",
"263 343 LINE",
"298 565 LINE SMOOTH",
"303 597 OFFCURVE",
"311 606 OFFCURVE",
"360 606 CURVE SMOOTH"
);
}
);
width = 596;
}
);
unicode = 0050;
userData = {
com.typemytype.robofont.layerData = {
};
};
},
{
glyphname = Q;
lastChange = "2019-08-11 12:29:22 +0000";
layers = (
{
layerId = master01;
paths = (
{
closed = 1;
nodes = (
"122 676 OFFCURVE",
"53 543 OFFCURVE",
"53 334 CURVE SMOOTH",
"53 134 OFFCURVE",
"117 3 OFFCURVE",
"304 -6 CURVE",
"343 -82 OFFCURVE",
"409 -150 OFFCURVE",
"529 -170 CURVE",
"536 -164 OFFCURVE",
"539 -156 OFFCURVE",
"539 -146 CURVE SMOOTH",
"539 -140 LINE",
"468 -116 OFFCURVE",
"409 -65 OFFCURVE",
"385 -2 CURVE",
"544 22 OFFCURVE",
"600 147 OFFCURVE",
"600 333 CURVE SMOOTH",
"600 542 OFFCURVE",
"531 676 OFFCURVE",
"327 676 CURVE SMOOTH"
);
},
{
closed = 1;
nodes = (
"177 42 OFFCURVE",
"154 181 OFFCURVE",
"154 334 CURVE SMOOTH",
"154 488 OFFCURVE",
"177 626 OFFCURVE",
"327 626 CURVE SMOOTH",
"477 626 OFFCURVE",
"499 487 OFFCURVE",
"499 333 CURVE SMOOTH",
"499 180 OFFCURVE",
"477 42 OFFCURVE",
"327 42 CURVE SMOOTH"
);
}
);
width = 653;
},
{
layerId = "3A3DE108-C793-40C5-98B7-5D5D6E88ABCD";
paths = (
{
closed = 1;
nodes = (
"165 675 OFFCURVE",
"61 457 OFFCURVE",
"61 234 CURVE SMOOTH",
"61 85 OFFCURVE",
"119 2 OFFCURVE",
"256 -6 CURVE",
"281 -81 OFFCURVE",
"336 -148 OFFCURVE",
"451 -168 CURVE",
"461 -161 OFFCURVE",
"465 -151 OFFCURVE",
"466 -138 CURVE",
"400 -114 OFFCURVE",
"350 -64 OFFCURVE",
"336 -2 CURVE",
"519 31 OFFCURVE",
"606 229 OFFCURVE",
"606 433 CURVE SMOOTH",
"606 591 OFFCURVE",
"542 675 OFFCURVE",
"387 675 CURVE SMOOTH"
);
},
{
closed = 1;
nodes = (
"192 40 OFFCURVE",
"160 103 OFFCURVE",
"160 216 CURVE SMOOTH",
"160 464 OFFCURVE",
"259 627 OFFCURVE",
"394 627 CURVE SMOOTH",
"477 627 OFFCURVE",
"508 562 OFFCURVE",
"508 446 CURVE SMOOTH",
"508 201 OFFCURVE",
"407 40 OFFCURVE",
"274 40 CURVE SMOOTH"
);
}
);
width = 622;
},
{
layerId = "C58AFD15-F6AF-4274-A800-842D1A888C52";
paths = (
{
closed = 1;
nodes = (
"49 134 OFFCURVE",
"130 15 OFFCURVE",
"290 -6 CURVE",
"335 -84 OFFCURVE",
"403 -153 OFFCURVE",
"541 -174 CURVE",
"548 -170 OFFCURVE",
"554 -157 OFFCURVE",
"554 -146 CURVE SMOOTH",
"554 -143 OFFCURVE",
"554 -141 OFFCURVE",
"553 -138 CURVE",
"490 -114 OFFCURVE",
"443 -65 OFFCURVE",
"421 -4 CURVE",
"571 23 OFFCURVE",
"646 140 OFFCURVE",
"646 335 CURVE SMOOTH",
"646 558 OFFCURVE",
"547 678 OFFCURVE",
"348 678 CURVE SMOOTH",
"150 678 OFFCURVE",
"49 558 OFFCURVE",
"49 335 CURVE SMOOTH"
);
},
{
closed = 1;
nodes = (
"214 537 OFFCURVE",
"253 620 OFFCURVE",
"348 620 CURVE SMOOTH",
"442 620 OFFCURVE",
"480 537 OFFCURVE",
"480 335 CURVE SMOOTH",
"480 131 OFFCURVE",
"442 48 OFFCURVE",
"348 48 CURVE SMOOTH",
"253 48 OFFCURVE",
"214 131 OFFCURVE",
"214 335 CURVE SMOOTH"
);
}
);
width = 695;
},
{
layerId = "E8623A4A-BA36-4417-942F-5A3A2106E744";
paths = (
{
closed = 1;
nodes = (
"48 105 OFFCURVE",
"113 13 OFFCURVE",
"244 -6 CURVE",
"271 -84 OFFCURVE",
"333 -153 OFFCURVE",
"467 -174 CURVE",
"476 -169 OFFCURVE",
"485 -154 OFFCURVE",
"485 -142 CURVE SMOOTH",
"485 -138 LINE",
"426 -114 OFFCURVE",
"379 -66 OFFCURVE",
"370 -5 CURVE",
"565 24 OFFCURVE",
"661 181 OFFCURVE",
"661 413 CURVE SMOOTH",
"661 584 OFFCURVE",
"578 678 OFFCURVE",
"409 678 CURVE SMOOTH",
"170 678 OFFCURVE",
"48 516 OFFCURVE",
"48 257 CURVE SMOOTH"
);
},
{
closed = 1;
nodes = (
"208 353 OFFCURVE",
"266 620 OFFCURVE",
"399 620 CURVE SMOOTH",
"489 620 OFFCURVE",
"500 540 OFFCURVE",
"500 450 CURVE SMOOTH",
"500 317 OFFCURVE",
"442 50 OFFCURVE",
"309 50 CURVE SMOOTH",
"219 50 OFFCURVE",
"208 130 OFFCURVE",
"208 220 CURVE SMOOTH"
);
}
);
width = 675;
}
);
unicode = 0051;
userData = {
com.typemytype.robofont.layerData = {
};
};
},
{
glyphname = R;
lastChange = "2019-08-11 12:29:22 +0000";
layers = (
{
layerId = master01;
paths = (
{
closed = 1;
nodes = (
"316 0 LINE",
"317 13 OFFCURVE",
"319 25 OFFCURVE",
"321 37 CURVE",
"268 44 OFFCURVE",
"243 52 OFFCURVE",
"224 64 CURVE",
"224 311 LINE",
"244 311 LINE SMOOTH",
"330 311 OFFCURVE",
"340 304 OFFCURVE",
"372 223 CURVE SMOOTH",
"459 0 LINE",
"610 0 LINE",
"616 38 LINE",
"578 42 OFFCURVE",
"551 51 OFFCURVE",
"532 64 CURVE",
"453 240 LINE SMOOTH",
"435 281 OFFCURVE",
"417 309 OFFCURVE",
"391 326 CURVE",
"486 349 OFFCURVE",
"529 403 OFFCURVE",
"529 491 CURVE SMOOTH",
"529 609 OFFCURVE",
"451 667 OFFCURVE",
"300 667 CURVE SMOOTH",
"43 667 LINE",
"38 631 LINE",
"81 626 OFFCURVE",
"113 617 OFFCURVE",
"136 604 CURVE",
"136 64 LINE",
"112 50 OFFCURVE",
"85 42 OFFCURVE",
"44 37 CURVE",
"39 0 LINE"
);
},
{
closed = 1;
nodes = (
"391 626 OFFCURVE",
"439 581 OFFCURVE",
"439 493 CURVE SMOOTH",
"439 401 OFFCURVE",
"380 357 OFFCURVE",
"255 357 CURVE SMOOTH",
"224 357 LINE",
"224 619 LINE",
"259 625 OFFCURVE",
"272 626 OFFCURVE",
"299 626 CURVE SMOOTH"
);
}
);
width = 621;
},
{
layerId = "3A3DE108-C793-40C5-98B7-5D5D6E88ABCD";
paths = (
{
closed = 1;
nodes = (
"100 630 LINE",
"133 626 OFFCURVE",
"161 619 OFFCURVE",
"186 604 CURVE",
"100 63 LINE",
"72 46 OFFCURVE",
"46 41 OFFCURVE",
"14 37 CURVE",
"9 0 LINE",
"273 0 LINE",
"278 37 LINE",
"246 41 OFFCURVE",
"215 47 OFFCURVE",
"188 62 CURVE",
"226 306 LINE",
"245 306 LINE SMOOTH",
"328 306 OFFCURVE",
"336 299 OFFCURVE",
"355 219 CURVE SMOOTH",
"390 69 LINE SMOOTH",
"404 9 OFFCURVE",
"423 0 OFFCURVE",
"470 0 CURVE SMOOTH",
"557 0 LINE",
"568 38 LINE",
"532 42 OFFCURVE",
"491 54 OFFCURVE",
"484 80 CURVE SMOOTH",
"440 236 LINE SMOOTH",
"427 280 OFFCURVE",
"413 307 OFFCURVE",
"388 322 CURVE",
"489 349 OFFCURVE",
"547 417 OFFCURVE",
"547 523 CURVE SMOOTH",
"547 619 OFFCURVE",
"478 667 OFFCURVE",
"345 667 CURVE SMOOTH",
"105 667 LINE"
);
},
{
closed = 1;
nodes = (
"272 592 LINE",
"278 620 OFFCURVE",
"289 625 OFFCURVE",
"338 625 CURVE SMOOTH",
"417 625 OFFCURVE",
"456 590 OFFCURVE",
"456 521 CURVE SMOOTH",
"456 392 OFFCURVE",
"355 352 OFFCURVE",
"250 352 CURVE SMOOTH",
"234 352 LINE"
);
}
);
width = 590;
},
{
layerId = "C58AFD15-F6AF-4274-A800-842D1A888C52";
paths = (
{
closed = 1;
nodes = (
"286 46 OFFCURVE",
"260 57 OFFCURVE",
"246 71 CURVE",
"246 302 LINE",
"257 302 LINE",
"269 301 OFFCURVE",
"285 300 OFFCURVE",
"298 300 CURVE",
"324 296 OFFCURVE",
"342 287 OFFCURVE",
"352 262 CURVE SMOOTH",
"449 0 LINE",
"631 0 LINE",
"638 41 LINE",
"612 47 OFFCURVE",
"586 55 OFFCURVE",
"577 76 CURVE SMOOTH",
"502 254 LINE SMOOTH",
"487 288 OFFCURVE",
"468 308 OFFCURVE",
"450 320 CURVE",
"535 348 OFFCURVE",
"580 406 OFFCURVE",
"580 491 CURVE SMOOTH",
"580 609 OFFCURVE",
"495 667 OFFCURVE",
"324 667 CURVE SMOOTH",
"42 667 LINE",
"38 628 LINE",
"67 618 OFFCURVE",
"86 608 OFFCURVE",
"99 596 CURVE",
"99 71 LINE",
"81 53 OFFCURVE",
"67 46 OFFCURVE",
"42 41 CURVE",
"38 0 LINE",
"314 0 LINE",
"321 39 LINE"
);
},
{
closed = 1;
nodes = (
"425 405 OFFCURVE",
"386 363 OFFCURVE",
"311 363 CURVE SMOOTH",
"246 363 LINE",
"246 602 LINE",
"265 605 OFFCURVE",
"283 606 OFFCURVE",
"311 606 CURVE SMOOTH",
"383 606 OFFCURVE",
"425 564 OFFCURVE",
"425 489 CURVE SMOOTH"
);
}
);
width = 662;
},
{
layerId = "E8623A4A-BA36-4417-942F-5A3A2106E744";
paths = (
{
closed = 1;
nodes = (
"116 622 OFFCURVE",
"143 610 OFFCURVE",
"154 596 CURVE",
"71 71 LINE",
"50 55 OFFCURVE",
"32 46 OFFCURVE",
"-1 41 CURVE",
"-6 0 LINE",
"280 0 LINE",
"285 41 LINE",
"253 48 OFFCURVE",
"231 57 OFFCURVE",
"218 71 CURVE",
"255 302 LINE",
"286 302 OFFCURVE",
"319 297 OFFCURVE",
"329 262 CURVE SMOOTH",
"381 66 LINE",
"390 22 OFFCURVE",
"425 0 OFFCURVE",
"469 0 CURVE SMOOTH",
"595 0 LINE",
"600 41 LINE",
"570 46 OFFCURVE",
"540 59 OFFCURVE",
"535 76 CURVE SMOOTH",
"483 252 LINE SMOOTH",
"473 287 OFFCURVE",
"451 311 OFFCURVE",
"424 324 CURVE",
"527 353 OFFCURVE",
"606 415 OFFCURVE",
"606 519 CURVE SMOOTH",
"606 617 OFFCURVE",
"532 667 OFFCURVE",
"376 667 CURVE SMOOTH",
"94 667 LINE",
"88 626 LINE"
);
},
{
closed = 1;
nodes = (
"458 448 OFFCURVE",
"410 363 OFFCURVE",
"271 363 CURVE SMOOTH",
"264 363 LINE",
"297 566 LINE SMOOTH",
"303 600 OFFCURVE",
"311 606 OFFCURVE",
"359 606 CURVE SMOOTH",
"435 606 OFFCURVE",
"458 568 OFFCURVE",
"458 515 CURVE SMOOTH"
);
}
);
width = 632;
}
);
unicode = 0052;
userData = {
com.typemytype.robofont.layerData = {
};
};
},
{
glyphname = S;
lastChange = "2019-08-11 12:29:22 +0000";
layers = (
{
layerId = master01;
paths = (
{
closed = 1;
nodes = (
"330 625 OFFCURVE",
"364 590 OFFCURVE",
"384 497 CURVE",
"390 495 OFFCURVE",
"396 494 OFFCURVE",
"403 494 CURVE SMOOTH",
"415 494 OFFCURVE",
"427 497 OFFCURVE",
"427 497 CURVE",
"442 631 LINE",
"398 659 OFFCURVE",
"325 676 OFFCURVE",
"257 676 CURVE SMOOTH",
"139 676 OFFCURVE",
"57 606 OFFCURVE",
"57 505 CURVE SMOOTH",
"57 295 OFFCURVE",
"371 317 OFFCURVE",
"371 159 CURVE SMOOTH",
"371 90 OFFCURVE",
"321 43 OFFCURVE",
"246 43 CURVE SMOOTH",
"203 43 OFFCURVE",
"169 50 OFFCURVE",
"137 66 CURVE",
"119 105 OFFCURVE",
"110 142 OFFCURVE",
"101 214 CURVE",
"74 214 OFFCURVE",
"52 209 OFFCURVE",
"52 209 CURVE",
"52 45 LINE",
"88 18 OFFCURVE",
"175 -7 OFFCURVE",
"233 -7 CURVE SMOOTH",
"373 -7 OFFCURVE",
"462 64 OFFCURVE",
"462 176 CURVE SMOOTH",
"462 386 OFFCURVE",
"142 369 OFFCURVE",
"142 527 CURVE SMOOTH",
"142 585 OFFCURVE",
"189 625 OFFCURVE",
"256 625 CURVE SMOOTH"
);
}
);
width = 496;
},
{
layerId = "3A3DE108-C793-40C5-98B7-5D5D6E88ABCD";
paths = (
{
closed = 1;
nodes = (
"338 624 OFFCURVE",
"380 612 OFFCURVE",
"394 600 CURVE",
"408 567 OFFCURVE",
"404 533 OFFCURVE",
"404 485 CURVE",
"424 479 OFFCURVE",
"448 488 OFFCURVE",
"448 488 CURVE",
"486 639 LINE",
"455 661 OFFCURVE",
"389 675 OFFCURVE",
"332 675 CURVE SMOOTH",
"227 675 OFFCURVE",
"116 607 OFFCURVE",
"116 476 CURVE SMOOTH",
"116 342 OFFCURVE",
"323 252 OFFCURVE",
"323 147 CURVE SMOOTH",
"323 87 OFFCURVE",
"275 46 OFFCURVE",
"215 46 CURVE SMOOTH",
"175 46 OFFCURVE",
"133 61 OFFCURVE",
"111 83 CURVE",
"108 96 OFFCURVE",
"106 114 OFFCURVE",
"106 132 CURVE SMOOTH",
"106 154 OFFCURVE",
"108 178 OFFCURVE",
"112 201 CURVE",
"112 201 OFFCURVE",
"95 208 OFFCURVE",
"66 208 CURVE",
"22 44 LINE",
"69 15 OFFCURVE",
"121 -7 OFFCURVE",
"193 -7 CURVE SMOOTH",
"281 -7 OFFCURVE",
"414 36 OFFCURVE",
"414 182 CURVE SMOOTH",
"414 333 OFFCURVE",
"204 413 OFFCURVE",
"204 521 CURVE SMOOTH",
"204 581 OFFCURVE",
"252 624 OFFCURVE",
"312 624 CURVE SMOOTH"
);
}
);
width = 481;
},
{
layerId = "C58AFD15-F6AF-4274-A800-842D1A888C52";
paths = (
{
closed = 1;
nodes = (
"74 20 OFFCURVE",
"180 -7 OFFCURVE",
"243 -7 CURVE SMOOTH",
"391 -7 OFFCURVE",
"484 66 OFFCURVE",
"484 183 CURVE SMOOTH",
"484 397 OFFCURVE",
"179 421 OFFCURVE",
"179 541 CURVE SMOOTH",
"179 590 OFFCURVE",
"216 624 OFFCURVE",
"269 624 CURVE SMOOTH",
"334 624 OFFCURVE",
"367 584 OFFCURVE",
"384 484 CURVE",
"395 482 OFFCURVE",
"406 480 OFFCURVE",
"416 480 CURVE SMOOTH",
"431 480 OFFCURVE",
"443 483 OFFCURVE",
"456 487 CURVE",
"470 625 LINE",
"418 653 OFFCURVE",
"327 675 OFFCURVE",
"266 675 CURVE SMOOTH",
"139 675 OFFCURVE",
"46 598 OFFCURVE",
"46 492 CURVE SMOOTH",
"46 278 OFFCURVE",
"342 301 OFFCURVE",
"342 140 CURVE SMOOTH",
"342 85 OFFCURVE",
"306 48 OFFCURVE",
"251 48 CURVE SMOOTH",
"222 48 OFFCURVE",
"201 52 OFFCURVE",
"168 64 CURVE",
"148 110 OFFCURVE",
"140 149 OFFCURVE",
"136 213 CURVE",
"103 211 OFFCURVE",
"74 206 OFFCURVE",
"45 196 CURVE",
"45 44 LINE"
);
}
);
width = 513;
},
{
layerId = "E8623A4A-BA36-4417-942F-5A3A2106E744";
paths = (
{
closed = 1;
nodes = (
"64 11 OFFCURVE",
"138 -7 OFFCURVE",
"212 -7 CURVE SMOOTH",
"359 -7 OFFCURVE",
"466 82 OFFCURVE",
"466 222 CURVE SMOOTH",
"466 305 OFFCURVE",
"423 363 OFFCURVE",
"318 412 CURVE SMOOTH",
"241 447 OFFCURVE",
"212 476 OFFCURVE",
"212 524 CURVE SMOOTH",
"212 584 OFFCURVE",
"257 621 OFFCURVE",
"319 621 CURVE SMOOTH",
"357 621 OFFCURVE",
"381 606 OFFCURVE",
"391 598 CURVE",
"406 568 OFFCURVE",
"401 528 OFFCURVE",
"401 474 CURVE",
"425 466 OFFCURVE",
"455 471 OFFCURVE",
"475 478 CURVE",
"507 640 LINE",
"467 656 OFFCURVE",
"403 675 OFFCURVE",
"326 675 CURVE SMOOTH",
"185 675 OFFCURVE",
"69 586 OFFCURVE",
"69 458 CURVE SMOOTH",
"69 379 OFFCURVE",
"112 332 OFFCURVE",
"216 286 CURVE SMOOTH",
"283 256 OFFCURVE",
"315 218 OFFCURVE",
"315 161 CURVE SMOOTH",
"315 92 OFFCURVE",
"269 50 OFFCURVE",
"211 50 CURVE SMOOTH",
"183 50 OFFCURVE",
"148 59 OFFCURVE",
"120 82 CURVE",
"118 96 OFFCURVE",
"117 110 OFFCURVE",
"117 127 CURVE SMOOTH",
"117 150 OFFCURVE",
"120 175 OFFCURVE",
"124 208 CURVE",
"124 208 OFFCURVE",
"94 221 OFFCURVE",
"56 221 CURVE",
"6 44 LINE"
);
}
);
width = 501;
}
);
unicode = 0053;
userData = {
com.typemytype.robofont.layerData = {
};
};
},
{
glyphname = T;
lastChange = "2019-08-11 12:29:22 +0000";
layers = (
{
layerId = master01;
paths = (
{
closed = 1;
nodes = (
"434 0 LINE",
"435 13 OFFCURVE",
"437 25 OFFCURVE",
"439 37 CURVE",
"406 41 OFFCURVE",
"370 48 OFFCURVE",
"341 64 CURVE",
"341 622 LINE",
"405 621 OFFCURVE",
"445 617 OFFCURVE",
"473 614 CURVE",
"497 578 OFFCURVE",
"506 528 OFFCURVE",
"509 499 CURVE",
"517 498 OFFCURVE",
"524 498 OFFCURVE",
"532 498 CURVE SMOOTH",
"539 498 OFFCURVE",
"546 498 OFFCURVE",
"553 499 CURVE",
"553 671 LINE",
"543 670 OFFCURVE",
"391 667 OFFCURVE",
"296 667 CURVE SMOOTH",
"172 667 OFFCURVE",
"40 671 OFFCURVE",
"40 671 CURVE",
"40 499 LINE",
"47 498 OFFCURVE",
"54 498 OFFCURVE",
"60 498 CURVE SMOOTH",
"68 498 OFFCURVE",
"77 499 OFFCURVE",
"84 499 CURVE",
"85 529 OFFCURVE",
"96 579 OFFCURVE",
"122 615 CURVE",
"150 618 OFFCURVE",
"190 621 OFFCURVE",
"253 622 CURVE",
"253 64 LINE",
"225 47 OFFCURVE",
"194 41 OFFCURVE",
"162 37 CURVE",
"156 0 LINE"
);
}
);
width = 593;
},
{
layerId = "3A3DE108-C793-40C5-98B7-5D5D6E88ABCD";
paths = (
{
closed = 1;
nodes = (
"399 0 LINE",
"404 37 LINE",
"372 41 OFFCURVE",
"332 47 OFFCURVE",
"304 62 CURVE",
"392 615 LINE",
"452 614 OFFCURVE",
"492 613 OFFCURVE",
"520 611 CURVE",
"534 583 OFFCURVE",
"538 550 OFFCURVE",
"538 524 CURVE SMOOTH",
"538 515 OFFCURVE",
"538 508 OFFCURVE",
"537 501 CURVE",
"544 500 OFFCURVE",
"552 499 OFFCURVE",
"560 499 CURVE SMOOTH",
"567 499 OFFCURVE",
"574 499 OFFCURVE",
"582 501 CURVE",
"608 670 LINE",
"608 670 OFFCURVE",
"437 667 OFFCURVE",
"341 667 CURVE SMOOTH",
"218 667 OFFCURVE",
"120 670 OFFCURVE",
"98 670 CURVE",
"72 501 LINE",
"78 499 OFFCURVE",
"85 499 OFFCURVE",
"92 499 CURVE SMOOTH",
"100 499 OFFCURVE",
"108 500 OFFCURVE",
"116 501 CURVE",
"122 529 OFFCURVE",
"140 576 OFFCURVE",
"169 613 CURVE",
"197 614 OFFCURVE",
"239 615 OFFCURVE",
"304 615 CURVE",
"215 62 LINE",
"187 45 OFFCURVE",
"152 40 OFFCURVE",
"121 37 CURVE",
"115 0 LINE"
);
}
);
width = 574;
},
{
layerId = "C58AFD15-F6AF-4274-A800-842D1A888C52";
paths = (
{
closed = 1;
nodes = (
"431 48 OFFCURVE",
"407 58 OFFCURVE",
"393 71 CURVE",
"393 606 LINE",
"432 605 OFFCURVE",
"466 602 OFFCURVE",
"496 598 CURVE",
"513 571 OFFCURVE",
"527 528 OFFCURVE",
"532 483 CURVE",
"544 481 OFFCURVE",
"556 480 OFFCURVE",
"568 480 CURVE SMOOTH",
"579 480 OFFCURVE",
"590 481 OFFCURVE",
"601 483 CURVE",
"601 671 LINE",
"587 670 OFFCURVE",
"400 667 OFFCURVE",
"319 667 CURVE SMOOTH",
"185 667 OFFCURVE",
"38 671 OFFCURVE",
"38 671 CURVE",
"38 483 LINE",
"49 481 OFFCURVE",
"60 480 OFFCURVE",
"71 480 CURVE SMOOTH",
"83 480 OFFCURVE",
"95 481 OFFCURVE",
"107 483 CURVE",
"108 522 OFFCURVE",
"124 570 OFFCURVE",
"145 599 CURVE",
"174 601 OFFCURVE",
"207 604 OFFCURVE",
"246 605 CURVE",
"246 71 LINE",
"226 54 OFFCURVE",
"205 45 OFFCURVE",
"174 41 CURVE",
"170 0 LINE",
"461 0 LINE",
"468 41 LINE"
);
}
);
width = 639;
},
{
layerId = "E8623A4A-BA36-4417-942F-5A3A2106E744";
paths = (
{
closed = 1;
nodes = (
"473 605 OFFCURVE",
"496 602 OFFCURVE",
"526 598 CURVE",
"538 571 OFFCURVE",
"543 528 OFFCURVE",
"543 483 CURVE",
"555 481 OFFCURVE",
"567 480 OFFCURVE",
"579 480 CURVE SMOOTH",
"590 480 OFFCURVE",
"601 481 OFFCURVE",
"612 483 CURVE",
"642 671 LINE",
"628 670 OFFCURVE",
"451 667 OFFCURVE",
"370 667 CURVE SMOOTH",
"236 667 OFFCURVE",
"99 671 OFFCURVE",
"99 671 CURVE",
"69 483 LINE",
"80 481 OFFCURVE",
"91 480 OFFCURVE",
"102 480 CURVE SMOOTH",
"114 480 OFFCURVE",
"126 481 OFFCURVE",
"138 483 CURVE",
"146 522 OFFCURVE",
"169 570 OFFCURVE",
"195 599 CURVE",
"224 601 OFFCURVE",
"248 604 OFFCURVE",
"287 605 CURVE",
"202 71 LINE",
"181 55 OFFCURVE",
"143 46 OFFCURVE",
"110 41 CURVE",
"105 0 LINE",
"431 0 LINE",
"436 41 LINE",
"404 48 OFFCURVE",
"362 57 OFFCURVE",
"349 71 CURVE",
"434 606 LINE"
);
}
);
width = 603;
}
);
unicode = 0054;
userData = {
com.typemytype.robofont.layerData = {
};
};
},
{
glyphname = U;
lastChange = "2019-08-11 12:29:22 +0000";
layers = (
{
layerId = master01;
paths = (
{
closed = 1;
nodes = (
"402 667 LINE",
"400 655 OFFCURVE",
"398 643 OFFCURVE",
"397 631 CURVE",
"440 626 OFFCURVE",
"472 616 OFFCURVE",
"494 604 CURVE",
"494 216 LINE SMOOTH",
"494 105 OFFCURVE",
"435 45 OFFCURVE",
"332 45 CURVE SMOOTH",
"228 45 OFFCURVE",
"180 91 OFFCURVE",
"180 210 CURVE SMOOTH",
"180 604 LINE",
"203 616 OFFCURVE",
"229 624 OFFCURVE",
"270 631 CURVE",
"276 667 LINE",
"-4 667 LINE",
"-8 631 LINE",
"35 626 OFFCURVE",
"66 616 OFFCURVE",
"89 604 CURVE",
"89 210 LINE SMOOTH",
"89 60 OFFCURVE",
"160 -7 OFFCURVE",
"332 -7 CURVE SMOOTH",
"477 -7 OFFCURVE",
"558 73 OFFCURVE",
"558 216 CURVE SMOOTH",
"558 604 LINE",
"581 616 OFFCURVE",
"607 624 OFFCURVE",
"650 631 CURVE",
"655 667 LINE"
);
}
);
width = 648;
},
{
layerId = "3A3DE108-C793-40C5-98B7-5D5D6E88ABCD";
paths = (
{
closed = 1;
nodes = (
"445 667 LINE",
"440 630 LINE",
"473 626 OFFCURVE",
"501 619 OFFCURVE",
"526 604 CURVE",
"463 212 LINE SMOOTH",
"446 104 OFFCURVE",
"385 45 OFFCURVE",
"292 45 CURVE SMOOTH",
"213 45 OFFCURVE",
"173 77 OFFCURVE",
"173 157 CURVE SMOOTH",
"173 172 OFFCURVE",
"174 188 OFFCURVE",
"177 207 CURVE SMOOTH",
"241 605 LINE",
"268 620 OFFCURVE",
"293 626 OFFCURVE",
"324 630 CURVE",
"330 667 LINE",
"70 667 LINE",
"65 630 LINE",
"98 626 OFFCURVE",
"127 619 OFFCURVE",
"151 604 CURVE",
"87 207 LINE SMOOTH",
"84 186 OFFCURVE",
"82 167 OFFCURVE",
"82 150 CURVE SMOOTH",
"82 42 OFFCURVE",
"144 -7 OFFCURVE",
"282 -7 CURVE SMOOTH",
"418 -7 OFFCURVE",
"505 72 OFFCURVE",
"527 212 CURVE SMOOTH",
"590 605 LINE",
"617 620 OFFCURVE",
"642 626 OFFCURVE",
"673 630 CURVE",
"679 667 LINE"
);
}
);
width = 632;
},
{
layerId = "C58AFD15-F6AF-4274-A800-842D1A888C52";
paths = (
{
closed = 1;
nodes = (
"32 621 OFFCURVE",
"65 609 OFFCURVE",
"78 596 CURVE",
"78 208 LINE SMOOTH",
"78 64 OFFCURVE",
"166 -7 OFFCURVE",
"344 -7 CURVE SMOOTH",
"397 -7 OFFCURVE",
"444 3 OFFCURVE",
"479 19 CURVE SMOOTH",
"564 58 OFFCURVE",
"589 125 OFFCURVE",
"589 245 CURVE SMOOTH",
"589 596 LINE",
"605 609 OFFCURVE",
"626 619 OFFCURVE",
"655 628 CURVE",
"661 667 LINE",
"423 667 LINE",
"418 626 LINE",
"449 619 OFFCURVE",
"475 613 OFFCURVE",
"494 598 CURVE",
"494 223 LINE SMOOTH",
"494 132 OFFCURVE",
"465 60 OFFCURVE",
"365 60 CURVE SMOOTH",
"268 60 OFFCURVE",
"225 111 OFFCURVE",
"225 208 CURVE SMOOTH",
"225 596 LINE",
"244 612 OFFCURVE",
"260 619 OFFCURVE",
"294 626 CURVE",
"300 667 LINE",
"7 667 LINE",
"2 626 LINE"
);
}
);
width = 676;
},
{
layerId = "E8623A4A-BA36-4417-942F-5A3A2106E744";
paths = (
{
closed = 1;
nodes = (
"660 613 OFFCURVE",
"677 620 OFFCURVE",
"710 626 CURVE",
"716 667 LINE",
"487 667 LINE",
"481 626 LINE",
"509 622 OFFCURVE",
"536 610 OFFCURVE",
"547 596 CURVE",
"490 223 LINE SMOOTH",
"475 132 OFFCURVE",
"437 60 OFFCURVE",
"340 60 CURVE SMOOTH",
"257 60 OFFCURVE",
"220 97 OFFCURVE",
"220 168 CURVE SMOOTH",
"220 193 OFFCURVE",
"234 285 OFFCURVE",
"236 299 CURVE SMOOTH",
"283 596 LINE",
"306 613 OFFCURVE",
"323 620 OFFCURVE",
"356 626 CURVE",
"362 667 LINE",
"76 667 LINE",
"70 626 LINE",
"98 622 OFFCURVE",
"125 610 OFFCURVE",
"136 596 CURVE",
"99 353 LINE SMOOTH",
"96 336 OFFCURVE",
"72 198 OFFCURVE",
"72 161 CURVE SMOOTH",
"72 49 OFFCURVE",
"150 -7 OFFCURVE",
"308 -7 CURVE SMOOTH",
"489 -7 OFFCURVE",
"558 83 OFFCURVE",
"583 245 CURVE SMOOTH",
"637 596 LINE"
);
}
);
width = 654;
}
);
unicode = 0055;
userData = {
com.typemytype.robofont.layerData = {
};
};
},
{
glyphname = V;
lastChange = "2019-08-11 12:29:22 +0000";
layers = (
{
layerId = master01;
paths = (
{
closed = 1;
nodes = (
"376 667 LINE",
"375 655 OFFCURVE",
"373 643 OFFCURVE",
"371 631 CURVE",
"403 627 OFFCURVE",
"435 618 OFFCURVE",
"462 604 CURVE",
"319 153 LINE",
"162 604 LINE",
"189 620 OFFCURVE",
"217 627 OFFCURVE",
"248 631 CURVE",
"254 667 LINE",
"12 667 LINE",
"7 631 LINE",
"29 626 OFFCURVE",
"54 616 OFFCURVE",
"68 604 CURVE",
"284 0 LINE",
"332 0 LINE",
"528 605 LINE",
"548 619 OFFCURVE",
"568 627 OFFCURVE",
"590 631 CURVE",
"596 667 LINE"
);
}
);
width = 604;
},
{
layerId = "3A3DE108-C793-40C5-98B7-5D5D6E88ABCD";
paths = (
{
closed = 1;
nodes = (
"406 667 LINE",
"401 630 LINE",
"433 626 OFFCURVE",
"461 619 OFFCURVE",
"485 605 CURVE",
"284 145 LINE",
"217 604 LINE",
"248 620 OFFCURVE",
"273 626 OFFCURVE",
"305 630 CURVE",
"310 667 LINE",
"61 667 LINE",
"56 630 LINE",
"79 627 OFFCURVE",
"101 619 OFFCURVE",
"120 609 CURVE",
"219 0 LINE",
"239 -7 OFFCURVE",
"273 -7 OFFCURVE",
"273 -7 CURVE",
"553 611 LINE",
"575 621 OFFCURVE",
"597 626 OFFCURVE",
"625 630 CURVE",
"630 667 LINE"
);
}
);
width = 575;
},
{
layerId = "C58AFD15-F6AF-4274-A800-842D1A888C52";
paths = (
{
closed = 1;
nodes = (
"280 667 LINE",
"6 667 LINE",
"1 627 LINE",
"27 622 OFFCURVE",
"54 613 OFFCURVE",
"65 585 CURVE",
"252 0 LINE",
"353 0 LINE",
"573 601 LINE",
"584 618 OFFCURVE",
"609 626 OFFCURVE",
"636 627 CURVE",
"641 667 LINE",
"420 667 LINE",
"415 627 LINE",
"446 623 OFFCURVE",
"476 613 OFFCURVE",
"494 597 CURVE",
"348 185 LINE",
"212 605 LINE",
"227 620 OFFCURVE",
"247 626 OFFCURVE",
"274 627 CURVE"
);
}
);
width = 634;
},
{
layerId = "E8623A4A-BA36-4417-942F-5A3A2106E744";
paths = (
{
closed = 1;
nodes = (
"260 605 LINE",
"275 618 OFFCURVE",
"298 623 OFFCURVE",
"327 627 CURVE",
"333 667 LINE",
"57 667 LINE",
"52 626 LINE",
"79 620 OFFCURVE",
"107 608 OFFCURVE",
"110 585 CURVE SMOOTH",
"184 0 LINE",
"285 0 LINE",
"590 602 LINE",
"605 619 OFFCURVE",
"629 624 OFFCURVE",
"655 626 CURVE",
"661 667 LINE",
"435 667 LINE",
"430 627 LINE",
"463 623 OFFCURVE",
"493 613 OFFCURVE",
"510 597 CURVE",
"309 185 LINE"
);
}
);
width = 596;
}
);
unicode = 0056;
userData = {
com.typemytype.robofont.layerData = {
};
};
},
{
glyphname = W;
lastChange = "2019-08-11 12:29:22 +0000";
layers = (
{
layerId = master01;
paths = (
{
closed = 1;
nodes = (
"681 667 LINE",
"676 631 LINE",
"709 627 OFFCURVE",
"740 618 OFFCURVE",
"767 604 CURVE",
"648 161 LINE",
"488 667 LINE",
"456 667 LINE",
"307 159 LINE",
"175 604 LINE",
"202 620 OFFCURVE",
"230 627 OFFCURVE",
"261 631 CURVE",
"267 667 LINE",
"24 667 LINE",
"20 631 LINE",
"42 626 OFFCURVE",
"65 617 OFFCURVE",
"80 605 CURVE",
"272 0 LINE",
"320 0 LINE",
"460 462 LINE",
"614 0 LINE",
"662 0 LINE",
"835 606 LINE",
"854 619 OFFCURVE",
"874 627 OFFCURVE",
"895 631 CURVE",
"901 667 LINE"
);
}
);
width = 921;
},
{
layerId = "3A3DE108-C793-40C5-98B7-5D5D6E88ABCD";
paths = (
{
closed = 1;
nodes = (
"86 667 LINE",
"81 630 LINE",
"105 627 OFFCURVE",
"128 618 OFFCURVE",
"148 608 CURVE",
"201 0 LINE",
"220 -7 OFFCURVE",
"255 -7 OFFCURVE",
"255 -7 CURVE",
"491 477 LINE",
"537 0 LINE",
"556 -7 OFFCURVE",
"591 -7 OFFCURVE",
"591 -7 CURVE",
"879 605 LINE",
"899 617 OFFCURVE",
"926 625 OFFCURVE",
"947 630 CURVE",
"952 667 LINE",
"733 667 LINE",
"728 630 LINE",
"760 626 OFFCURVE",
"788 619 OFFCURVE",
"813 604 CURVE",
"605 152 LINE",
"570 657 LINE",
"570 657 OFFCURVE",
"529 656 OFFCURVE",
"510 649 CURVE",
"270 150 LINE",
"242 604 LINE",
"273 620 OFFCURVE",
"298 626 OFFCURVE",
"330 630 CURVE",
"335 667 LINE"
);
}
);
width = 896;
},
{
layerId = "C58AFD15-F6AF-4274-A800-842D1A888C52";
paths = (
{
closed = 1;
nodes = (
"328 185 LINE",
"211 605 LINE",
"227 620 OFFCURVE",
"247 626 OFFCURVE",
"274 627 CURVE",
"280 667 LINE",
"6 667 LINE",
"1 627 LINE",
"24 622 OFFCURVE",
"48 615 OFFCURVE",
"61 593 CURVE",
"232 0 LINE",
"333 0 LINE",
"472 430 LINE",
"600 0 LINE",
"701 0 LINE",
"901 602 LINE",
"912 619 OFFCURVE",
"937 626 OFFCURVE",
"963 627 CURVE",
"968 667 LINE",
"747 667 LINE",
"742 627 LINE",
"773 623 OFFCURVE",
"804 613 OFFCURVE",
"822 596 CURVE",
"696 185 LINE",
"558 667 LINE",
"470 667 LINE"
);
}
);
width = 961;
},
{
layerId = "E8623A4A-BA36-4417-942F-5A3A2106E744";
paths = (
{
closed = 1;
nodes = (
"664 185 LINE",
"604 667 LINE",
"518 667 LINE",
"302 185 LINE",
"253 605 LINE",
"267 618 OFFCURVE",
"290 623 OFFCURVE",
"319 627 CURVE",
"325 667 LINE",
"52 667 LINE",
"46 626 LINE",
"70 621 OFFCURVE",
"89 611 OFFCURVE",
"101 596 CURVE",
"177 0 LINE",
"277 0 LINE",
"481 430 LINE",
"541 0 LINE",
"641 0 LINE",
"932 602 LINE",
"947 619 OFFCURVE",
"962 624 OFFCURVE",
"988 626 CURVE",
"993 667 LINE",
"777 667 LINE",
"772 627 LINE",
"805 623 OFFCURVE",
"835 613 OFFCURVE",
"852 596 CURVE"
);
}
);
width = 930;
}
);
unicode = 0057;
userData = {
com.typemytype.robofont.layerData = {
};
};
},
{
glyphname = X;
lastChange = "2019-08-11 12:29:22 +0000";
layers = (
{
layerId = master01;
paths = (
{
closed = 1;
nodes = (
"15 667 LINE",
"10 631 LINE",
"37 624 OFFCURVE",
"57 615 OFFCURVE",
"71 605 CURVE",
"242 339 LINE",
"68 61 LINE",
"42 44 OFFCURVE",
"11 39 OFFCURVE",
"-20 37 CURVE",
"-21 25 OFFCURVE",
"-23 13 OFFCURVE",
"-25 0 CURVE",
"229 0 LINE",
"233 37 LINE",
"185 37 OFFCURVE",
"153 44 OFFCURVE",
"140 61 CURVE",
"277 283 LINE",
"417 63 LINE",
"401 47 OFFCURVE",
"379 37 OFFCURVE",
"331 37 CURVE",
"330 25 OFFCURVE",
"328 13 OFFCURVE",
"326 0 CURVE",
"592 0 LINE",
"593 13 OFFCURVE",
"595 25 OFFCURVE",
"597 37 CURVE",
"577 40 OFFCURVE",
"548 44 OFFCURVE",
"523 61 CURVE",
"335 355 LINE",
"491 605 LINE",
"507 617 OFFCURVE",
"527 627 OFFCURVE",
"555 631 CURVE",
"560 667 LINE",
"343 667 LINE",
"341 655 OFFCURVE",
"339 643 OFFCURVE",
"338 631 CURVE",
"372 625 OFFCURVE",
"401 614 OFFCURVE",
"418 604 CURVE",
"298 412 LINE",
"176 604 LINE",
"195 616 OFFCURVE",
"223 626 OFFCURVE",
"256 631 CURVE",
"262 667 LINE"
);
}
);
width = 571;
},
{
layerId = "3A3DE108-C793-40C5-98B7-5D5D6E88ABCD";
paths = (
{
closed = 1;
nodes = (
"208 651 OFFCURVE",
"207 667 OFFCURVE",
"168 667 CURVE SMOOTH",
"65 667 LINE",
"60 630 LINE",
"106 629 OFFCURVE",
"129 609 OFFCURVE",
"139 584 CURVE SMOOTH",
"238 336 LINE",
"35 61 LINE",
"9 45 OFFCURVE",
"-16 41 OFFCURVE",
"-46 37 CURVE",
"-52 0 LINE",
"186 0 LINE",
"190 37 LINE",
"158 41 OFFCURVE",
"128 47 OFFCURVE",
"100 63 CURVE",
"260 282 LINE",
"347 66 LINE SMOOTH",
"367 16 OFFCURVE",
"380 0 OFFCURVE",
"427 0 CURVE SMOOTH",
"514 0 LINE",
"520 38 LINE",
"465 44 OFFCURVE",
"451 58 OFFCURVE",
"439 83 CURVE",
"329 353 LINE",
"502 606 LINE",
"527 620 OFFCURVE",
"551 626 OFFCURVE",
"582 630 CURVE",
"587 667 LINE",
"355 667 LINE",
"350 630 LINE",
"383 626 OFFCURVE",
"411 619 OFFCURVE",
"436 604 CURVE",
"307 408 LINE",
"229 600 LINE SMOOTH"
);
}
);
width = 545;
},
{
layerId = "C58AFD15-F6AF-4274-A800-842D1A888C52";
paths = (
{
closed = 1;
nodes = (
"58 48 OFFCURVE",
"33 41 OFFCURVE",
"7 40 CURVE",
"2 0 LINE",
"223 0 LINE",
"228 40 LINE",
"201 44 OFFCURVE",
"175 53 OFFCURVE",
"159 68 CURVE",
"280 248 LINE",
"397 61 LINE",
"383 47 OFFCURVE",
"365 41 OFFCURVE",
"341 40 CURVE",
"335 0 LINE",
"609 0 LINE",
"614 40 LINE",
"596 43 OFFCURVE",
"577 48 OFFCURVE",
"563 61 CURVE",
"373 365 LINE",
"530 599 LINE SMOOTH",
"542 616 OFFCURVE",
"567 623 OFFCURVE",
"593 624 CURVE",
"598 664 LINE",
"377 664 LINE",
"372 624 LINE",
"399 620 OFFCURVE",
"425 611 OFFCURVE",
"441 595 CURVE",
"332 432 LINE",
"224 606 LINE",
"238 620 OFFCURVE",
"255 626 OFFCURVE",
"280 627 CURVE",
"286 667 LINE",
"12 667 LINE",
"7 627 LINE",
"25 623 OFFCURVE",
"45 618 OFFCURVE",
"58 604 CURVE",
"238 315 LINE",
"69 65 LINE SMOOTH"
);
}
);
width = 619;
},
{
layerId = "E8623A4A-BA36-4417-942F-5A3A2106E744";
paths = (
{
closed = 1;
nodes = (
"370 38 OFFCURVE",
"389 0 OFFCURVE",
"440 0 CURVE SMOOTH",
"572 0 LINE",
"577 41 LINE",
"542 48 OFFCURVE",
"529 54 OFFCURVE",
"519 76 CURVE SMOOTH",
"384 365 LINE",
"578 599 LINE SMOOTH",
"593 616 OFFCURVE",
"619 625 OFFCURVE",
"645 627 CURVE",
"650 667 LINE",
"424 667 LINE",
"419 627 LINE",
"452 623 OFFCURVE",
"473 613 OFFCURVE",
"490 597 CURVE",
"353 432 LINE",
"271 609 LINE SMOOTH",
"261 629 OFFCURVE",
"242 667 OFFCURVE",
"191 667 CURVE SMOOTH",
"59 667 LINE",
"54 626 LINE",
"89 619 OFFCURVE",
"102 613 OFFCURVE",
"112 591 CURVE SMOOTH",
"240 314 LINE",
"32 65 LINE SMOOTH",
"20 51 OFFCURVE",
"-11 42 OFFCURVE",
"-34 40 CURVE",
"-39 0 LINE",
"187 0 LINE",
"192 40 LINE",
"159 44 OFFCURVE",
"139 52 OFFCURVE",
"122 68 CURVE",
"271 247 LINE",
"360 58 LINE SMOOTH"
);
}
);
width = 586;
}
);
unicode = 0058;
userData = {
com.typemytype.robofont.layerData = {
};
};
},
{
glyphname = Y;
lastChange = "2019-08-11 12:29:22 +0000";
layers = (
{
layerId = master01;
paths = (
{
closed = 1;
nodes = (
"429 0 LINE",
"433 37 LINE",
"398 41 OFFCURVE",
"361 47 OFFCURVE",
"331 64 CURVE",
"331 277 LINE",
"493 605 LINE",
"511 619 OFFCURVE",
"532 627 OFFCURVE",
"554 631 CURVE",
"560 667 LINE",
"340 667 LINE",
"338 655 OFFCURVE",
"336 643 OFFCURVE",
"335 631 CURVE",
"367 627 OFFCURVE",
"399 618 OFFCURVE",
"424 605 CURVE",
"296 343 LINE",
"171 604 LINE",
"199 620 OFFCURVE",
"228 627 OFFCURVE",
"258 631 CURVE",
"259 643 OFFCURVE",
"261 655 OFFCURVE",
"263 667 CURVE",
"16 667 LINE",
"11 631 LINE",
"34 626 OFFCURVE",
"58 616 OFFCURVE",
"73 605 CURVE",
"243 265 LINE",
"243 64 LINE",
"212 46 OFFCURVE",
"182 41 OFFCURVE",
"146 37 CURVE",
"141 0 LINE"
);
}
);
width = 570;
},
{
layerId = "3A3DE108-C793-40C5-98B7-5D5D6E88ABCD";
paths = (
{
closed = 1;
nodes = (
"380 0 LINE",
"384 37 LINE",
"352 41 OFFCURVE",
"312 47 OFFCURVE",
"284 63 CURVE",
"319 285 LINE",
"520 606 LINE",
"546 621 OFFCURVE",
"570 626 OFFCURVE",
"601 630 CURVE",
"606 667 LINE",
"373 667 LINE",
"368 630 LINE",
"399 626 OFFCURVE",
"428 619 OFFCURVE",
"453 604 CURVE",
"297 347 LINE",
"219 607 LINE",
"245 621 OFFCURVE",
"269 626 OFFCURVE",
"299 630 CURVE",
"304 667 LINE",
"61 667 LINE",
"56 630 LINE",
"78 627 OFFCURVE",
"99 620 OFFCURVE",
"118 611 CURVE",
"228 272 LINE",
"196 63 LINE",
"168 46 OFFCURVE",
"133 41 OFFCURVE",
"101 37 CURVE",
"96 0 LINE"
);
}
);
width = 548;
},
{
layerId = "C58AFD15-F6AF-4274-A800-842D1A888C52";
paths = (
{
closed = 1;
nodes = (
"408 46 OFFCURVE",
"382 57 OFFCURVE",
"367 71 CURVE",
"367 268 LINE",
"538 605 LINE",
"550 620 OFFCURVE",
"573 626 OFFCURVE",
"598 627 CURVE",
"603 667 LINE",
"379 667 LINE",
"374 627 LINE",
"405 623 OFFCURVE",
"436 613 OFFCURVE",
"454 597 CURVE",
"332 357 LINE",
"213 605 LINE",
"228 620 OFFCURVE",
"248 626 OFFCURVE",
"275 627 CURVE",
"281 667 LINE",
"10 667 LINE",
"5 627 LINE",
"28 622 OFFCURVE",
"53 615 OFFCURVE",
"65 593 CURVE",
"67 590 LINE",
"68 588 OFFCURVE",
"68 586 OFFCURVE",
"69 585 CURVE",
"220 269 LINE",
"220 66 LINE",
"210 55 OFFCURVE",
"184 44 OFFCURVE",
"163 41 CURVE",
"159 0 LINE",
"435 0 LINE",
"442 39 LINE"
);
}
);
width = 604;
},
{
layerId = "E8623A4A-BA36-4417-942F-5A3A2106E744";
paths = (
{
closed = 1;
nodes = (
"164 55 OFFCURVE",
"136 46 OFFCURVE",
"103 41 CURVE",
"98 0 LINE",
"404 0 LINE",
"409 41 LINE",
"377 48 OFFCURVE",
"345 57 OFFCURVE",
"332 71 CURVE",
"363 268 LINE",
"585 601 LINE",
"603 617 OFFCURVE",
"623 625 OFFCURVE",
"649 627 CURVE",
"654 667 LINE",
"428 667 LINE",
"423 627 LINE",
"456 623 OFFCURVE",
"486 613 OFFCURVE",
"503 597 CURVE",
"343 357 LINE",
"273 605 LINE",
"288 618 OFFCURVE",
"314 623 OFFCURVE",
"343 627 CURVE",
"349 667 LINE",
"73 667 LINE",
"69 627 LINE",
"96 621 OFFCURVE",
"119 607 OFFCURVE",
"126 585 CURVE SMOOTH",
"217 269 LINE",
"185 71 LINE"
);
}
);
width = 577;
}
);
unicode = 0059;
userData = {
com.typemytype.robofont.layerData = {
};
};
},
{
glyphname = Z;
lastChange = "2019-08-11 12:29:22 +0000";
layers = (
{
layerId = master01;
paths = (
{
closed = 1;
nodes = (
"491 182 OFFCURVE",
"484 183 OFFCURVE",
"476 183 CURVE SMOOTH",
"470 183 OFFCURVE",
"461 182 OFFCURVE",
"455 181 CURVE",
"442 132 OFFCURVE",
"418 87 OFFCURVE",
"389 52 CURVE",
"341 51 OFFCURVE",
"286 51 OFFCURVE",
"240 51 CURVE SMOOTH",
"204 51 OFFCURVE",
"171 51 OFFCURVE",
"144 52 CURVE",
"499 632 LINE",
"490 672 LINE",
"463 671 OFFCURVE",
"381 667 OFFCURVE",
"296 667 CURVE SMOOTH",
"194 667 OFFCURVE",
"74 672 OFFCURVE",
"74 672 CURVE",
"48 648 LINE",
"60 502 LINE",
"65 501 OFFCURVE",
"72 501 OFFCURVE",
"77 501 CURVE SMOOTH",
"84 501 OFFCURVE",
"92 502 OFFCURVE",
"98 502 CURVE",
"105 543 OFFCURVE",
"122 593 OFFCURVE",
"146 614 CURVE",
"191 615 OFFCURVE",
"248 616 OFFCURVE",
"295 616 CURVE SMOOTH",
"345 616 LINE SMOOTH",
"358 616 OFFCURVE",
"372 615 OFFCURVE",
"384 615 CURVE",
"38 46 LINE",
"41 -4 LINE",
"48 -3 OFFCURVE",
"141 0 OFFCURVE",
"239 0 CURVE SMOOTH",
"322 0 OFFCURVE",
"443 -1 OFFCURVE",
"489 -3 CURVE",
"498 181 LINE"
);
}
);
width = 538;
},
{
layerId = "3A3DE108-C793-40C5-98B7-5D5D6E88ABCD";
paths = (
{
closed = 1;
nodes = (
"472 179 OFFCURVE",
"465 180 OFFCURVE",
"457 180 CURVE SMOOTH",
"450 180 OFFCURVE",
"437 179 OFFCURVE",
"430 178 CURVE",
"410 130 OFFCURVE",
"401 96 OFFCURVE",
"375 62 CURVE",
"139 53 LINE",
"537 627 LINE",
"535 667 LINE",
"134 667 LINE",
"110 644 LINE",
"99 499 LINE",
"104 497 OFFCURVE",
"115 497 OFFCURVE",
"121 497 CURVE SMOOTH",
"128 497 OFFCURVE",
"136 498 OFFCURVE",
"143 499 CURVE",
"154 533 OFFCURVE",
"166 569 OFFCURVE",
"186 605 CURVE",
"253 608 OFFCURVE",
"357 611 OFFCURVE",
"419 612 CURVE",
"24 44 LINE",
"30 0 LINE",
"441 0 LINE",
"479 178 LINE"
);
}
);
width = 512;
},
{
layerId = "C58AFD15-F6AF-4274-A800-842D1A888C52";
paths = (
{
closed = 1;
nodes = (
"526 193 OFFCURVE",
"513 194 OFFCURVE",
"500 194 CURVE SMOOTH",
"487 194 OFFCURVE",
"472 193 OFFCURVE",
"460 190 CURVE",
"448 138 OFFCURVE",
"429 89 OFFCURVE",
"408 59 CURVE",
"200 59 LINE",
"535 631 LINE",
"525 669 LINE",
"449 667 OFFCURVE",
"375 667 OFFCURVE",
"302 667 CURVE SMOOTH",
"203 667 OFFCURVE",
"88 668 OFFCURVE",
"65 669 CURVE",
"28 637 LINE",
"40 490 LINE",
"56 485 OFFCURVE",
"73 482 OFFCURVE",
"90 482 CURVE SMOOTH",
"102 482 OFFCURVE",
"114 483 OFFCURVE",
"125 485 CURVE",
"134 541 OFFCURVE",
"149 594 OFFCURVE",
"161 609 CURVE",
"354 609 LINE",
"28 45 LINE",
"32 -2 LINE",
"69 0 OFFCURVE",
"196 0 OFFCURVE",
"261 0 CURVE SMOOTH",
"355 0 OFFCURVE",
"481 -2 OFFCURVE",
"526 -2 CURVE",
"535 191 LINE"
);
}
);
width = 566;
},
{
layerId = "E8623A4A-BA36-4417-942F-5A3A2106E744";
paths = (
{
closed = 1;
nodes = (
"92 476 OFFCURVE",
"107 473 OFFCURVE",
"126 473 CURVE SMOOTH",
"133 473 OFFCURVE",
"151 474 OFFCURVE",
"158 476 CURVE",
"160 506 OFFCURVE",
"172 556 OFFCURVE",
"189 592 CURVE",
"251 598 OFFCURVE",
"363 600 OFFCURVE",
"379 600 CURVE",
"0 45 LINE",
"-3 0 LINE",
"474 0 LINE",
"513 194 LINE",
"499 198 OFFCURVE",
"481 201 OFFCURVE",
"462 201 CURVE SMOOTH",
"455 201 OFFCURVE",
"437 200 OFFCURVE",
"430 198 CURVE",
"420 170 OFFCURVE",
"402 113 OFFCURVE",
"376 75 CURVE",
"326 70 OFFCURVE",
"273 69 OFFCURVE",
"181 69 CURVE",
"570 631 LINE",
"566 667 LINE",
"118 667 LINE",
"89 639 LINE",
"78 480 LINE"
);
}
);
width = 544;
}
);
unicode = 005A;
userData = {
com.typemytype.robofont.layerData = {
};
};
},
{
glyphname = a;
lastChange = "2019-08-11 12:29:22 +0000";
layers = (
{
layerId = master01;
paths = (
{
closed = 1;
nodes = (
"439 40 OFFCURVE",
"410 52 OFFCURVE",
"398 61 CURVE",
"398 340 LINE SMOOTH",
"398 426 OFFCURVE",
"333 476 OFFCURVE",
"224 476 CURVE SMOOTH",
"121 476 OFFCURVE",
"56 432 OFFCURVE",
"56 364 CURVE SMOOTH",
"56 329 OFFCURVE",
"79 306 OFFCURVE",
"114 306 CURVE SMOOTH",
"151 306 OFFCURVE",
"171 323 OFFCURVE",
"171 354 CURVE",
"152 361 OFFCURVE",
"141 374 OFFCURVE",
"141 391 CURVE SMOOTH",
"141 419 OFFCURVE",
"171 436 OFFCURVE",
"224 436 CURVE SMOOTH",
"286 436 OFFCURVE",
"313 407 OFFCURVE",
"313 340 CURVE SMOOTH",
"313 259 LINE",
"231 253 LINE SMOOTH",
"109 245 OFFCURVE",
"44 194 OFFCURVE",
"44 107 CURVE SMOOTH",
"44 35 OFFCURVE",
"92 -7 OFFCURVE",
"174 -7 CURVE SMOOTH",
"228 -7 OFFCURVE",
"272 4 OFFCURVE",
"316 45 CURVE",
"326 0 LINE",
"464 0 LINE",
"468 34 LINE"
);
},
{
closed = 1;
nodes = (
"132 169 OFFCURVE",
"170 206 OFFCURVE",
"233 211 CURVE SMOOTH",
"313 218 LINE",
"313 92 LINE",
"270 51 OFFCURVE",
"237 34 OFFCURVE",
"199 34 CURVE SMOOTH",
"154 34 OFFCURVE",
"132 62 OFFCURVE",
"132 116 CURVE SMOOTH"
);
}
);
width = 488;
},
{
layerId = "3A3DE108-C793-40C5-98B7-5D5D6E88ABCD";
paths = (
{
closed = 1;
nodes = (
"306 16 OFFCURVE",
"312 -7 OFFCURVE",
"362 -7 CURVE SMOOTH",
"402 -7 OFFCURVE",
"454 30 OFFCURVE",
"476 49 CURVE",
"466 81 LINE",
"461 78 OFFCURVE",
"433 62 OFFCURVE",
"415 62 CURVE SMOOTH",
"401 62 OFFCURVE",
"394 66 OFFCURVE",
"394 77 CURVE SMOOTH",
"394 79 OFFCURVE",
"396 91 OFFCURVE",
"397 99 CURVE SMOOTH",
"456 462 LINE",
"427 476 LINE",
"376 452 LINE",
"337 470 OFFCURVE",
"300 478 OFFCURVE",
"267 478 CURVE SMOOTH",
"123 478 OFFCURVE",
"40 324 OFFCURVE",
"40 172 CURVE SMOOTH",
"40 69 OFFCURVE",
"65 -7 OFFCURVE",
"167 -7 CURVE SMOOTH",
"231 -7 OFFCURVE",
"283 52 OFFCURVE",
"314 98 CURVE",
"309 72 OFFCURVE",
"306 53 OFFCURVE",
"306 45 CURVE SMOOTH"
);
},
{
closed = 1;
nodes = (
"146 45 OFFCURVE",
"129 101 OFFCURVE",
"129 171 CURVE SMOOTH",
"129 273 OFFCURVE",
"185 430 OFFCURVE",
"287 430 CURVE SMOOTH",
"309 430 OFFCURVE",
"334 423 OFFCURVE",
"360 406 CURVE",
"343 301 LINE SMOOTH",
"318 145 OFFCURVE",
"245 45 OFFCURVE",
"193 45 CURVE SMOOTH"
);
}
);
width = 526;
},
{
layerId = "C58AFD15-F6AF-4274-A800-842D1A888C52";
paths = (
{
closed = 1;
nodes = (
"489 40 OFFCURVE",
"464 52 OFFCURVE",
"455 62 CURVE",
"455 334 LINE SMOOTH",
"455 438 OFFCURVE",
"382 492 OFFCURVE",
"240 492 CURVE SMOOTH",
"122 492 OFFCURVE",
"50 449 OFFCURVE",
"50 378 CURVE SMOOTH",
"50 336 OFFCURVE",
"83 305 OFFCURVE",
"127 305 CURVE SMOOTH",
"163 305 OFFCURVE",
"190 327 OFFCURVE",
"197 360 CURVE",
"183 371 OFFCURVE",
"175 386 OFFCURVE",
"175 402 CURVE SMOOTH",
"175 431 OFFCURVE",
"203 453 OFFCURVE",
"240 453 CURVE SMOOTH",
"295 453 OFFCURVE",
"314 422 OFFCURVE",
"314 329 CURVE SMOOTH",
"314 271 LINE",
"226 265 LINE SMOOTH",
"96 256 OFFCURVE",
"29 205 OFFCURVE",
"29 118 CURVE SMOOTH",
"29 37 OFFCURVE",
"80 -7 OFFCURVE",
"172 -7 CURVE SMOOTH",
"230 -7 OFFCURVE",
"277 13 OFFCURVE",
"321 57 CURVE",
"331 0 LINE",
"511 0 LINE",
"515 35 LINE"
);
},
{
closed = 1;
nodes = (
"161 186 OFFCURVE",
"191 212 OFFCURVE",
"264 218 CURVE SMOOTH",
"314 222 LINE",
"314 113 LINE",
"281 74 OFFCURVE",
"251 58 OFFCURVE",
"221 58 CURVE SMOOTH",
"183 58 OFFCURVE",
"161 84 OFFCURVE",
"161 129 CURVE SMOOTH"
);
}
);
width = 535;
},
{
layerId = "E8623A4A-BA36-4417-942F-5A3A2106E744";
paths = (
{
closed = 1;
nodes = (
"413 472 LINE",
"379 484 OFFCURVE",
"346 492 OFFCURVE",
"309 492 CURVE SMOOTH",
"158 492 OFFCURVE",
"37 395 OFFCURVE",
"37 181 CURVE SMOOTH",
"37 49 OFFCURVE",
"113 -11 OFFCURVE",
"196 -11 CURVE SMOOTH",
"256 -11 OFFCURVE",
"297 15 OFFCURVE",
"326 56 CURVE",
"331 19 OFFCURVE",
"351 -6 OFFCURVE",
"406 -6 CURVE SMOOTH",
"467 -6 OFFCURVE",
"523 30 OFFCURVE",
"548 46 CURVE",
"535 84 LINE",
"519 74 OFFCURVE",
"500 69 OFFCURVE",
"488 69 CURVE SMOOTH",
"473 69 OFFCURVE",
"467 76 OFFCURVE",
"467 93 CURVE SMOOTH",
"467 115 OFFCURVE",
"527 475 OFFCURVE",
"527 476 CURVE",
"497 491 LINE"
);
},
{
closed = 1;
nodes = (
"195 50 OFFCURVE",
"181 112 OFFCURVE",
"181 182 CURVE SMOOTH",
"181 358 OFFCURVE",
"252 443 OFFCURVE",
"332 443 CURVE SMOOTH",
"349 443 OFFCURVE",
"364 440 OFFCURVE",
"380 434 CURVE",
"348 249 LINE SMOOTH",
"327 127 OFFCURVE",
"290 50 OFFCURVE",
"241 50 CURVE SMOOTH"
);
}
);
width = 570;
}
);
unicode = 0061;
userData = {
com.typemytype.robofont.layerData = {
};
};
},
{
glyphname = b;
lastChange = "2019-08-11 12:29:22 +0000";
layers = (
{
layerId = master01;
paths = (
{
closed = 1;
nodes = (
"76 631 OFFCURVE",
"94 617 OFFCURVE",
"94 567 CURVE SMOOTH",
"94 0 LINE",
"142 0 LINE",
"146 16 OFFCURVE",
"152 27 OFFCURVE",
"162 42 CURVE",
"190 16 OFFCURVE",
"229 -7 OFFCURVE",
"278 -7 CURVE SMOOTH",
"422 -7 OFFCURVE",
"494 98 OFFCURVE",
"494 237 CURVE SMOOTH",
"494 376 OFFCURVE",
"440 476 OFFCURVE",
"298 476 CURVE SMOOTH",
"248 476 OFFCURVE",
"200 444 OFFCURVE",
"180 406 CURVE",
"180 687 LINE",
"160 697 LINE",
"119 685 OFFCURVE",
"72 670 OFFCURVE",
"27 663 CURVE",
"24 633 LINE"
);
},
{
closed = 1;
nodes = (
"403 144 OFFCURVE",
"390 35 OFFCURVE",
"283 35 CURVE SMOOTH",
"240 35 OFFCURVE",
"206 62 OFFCURVE",
"180 85 CURVE",
"180 205 LINE SMOOTH",
"180 315 OFFCURVE",
"192 433 OFFCURVE",
"300 433 CURVE SMOOTH",
"394 433 OFFCURVE",
"403 339 OFFCURVE",
"403 237 CURVE SMOOTH"
);
}
);
width = 547;
},
{
layerId = "3A3DE108-C793-40C5-98B7-5D5D6E88ABCD";
paths = (
{
closed = 1;
nodes = (
"76 18 OFFCURVE",
"104 12 OFFCURVE",
"137 5 CURVE SMOOTH",
"165 -2 OFFCURVE",
"214 -7 OFFCURVE",
"242 -7 CURVE SMOOTH",
"383 -7 OFFCURVE",
"479 155 OFFCURVE",
"479 297 CURVE SMOOTH",
"479 399 OFFCURVE",
"454 476 OFFCURVE",
"351 476 CURVE SMOOTH",
"290 476 OFFCURVE",
"241 423 OFFCURVE",
"210 378 CURVE",
"258 672 LINE",
"233 697 LINE",
"88 686 LINE",
"83 653 LINE",
"123 649 OFFCURVE",
"160 639 OFFCURVE",
"160 603 CURVE SMOOTH",
"160 596 OFFCURVE",
"151 539 OFFCURVE",
"139 466 CURVE SMOOTH",
"116 318 OFFCURVE",
"81 103 OFFCURVE",
"81 103 CURVE",
"78 82 OFFCURVE",
"76 67 OFFCURVE",
"76 60 CURVE SMOOTH"
);
},
{
closed = 1;
nodes = (
"186 306 OFFCURVE",
"271 424 OFFCURVE",
"326 424 CURVE SMOOTH",
"373 424 OFFCURVE",
"390 368 OFFCURVE",
"390 297 CURVE SMOOTH",
"390 188 OFFCURVE",
"327 38 OFFCURVE",
"234 38 CURVE SMOOTH",
"195 38 OFFCURVE",
"162 51 OFFCURVE",
"162 75 CURVE"
);
}
);
width = 521;
},
{
layerId = "C58AFD15-F6AF-4274-A800-842D1A888C52";
paths = (
{
closed = 1;
nodes = (
"298 492 OFFCURVE",
"253 469 OFFCURVE",
"224 425 CURVE",
"224 687 LINE",
"207 697 LINE",
"168 686 OFFCURVE",
"66 671 OFFCURVE",
"23 663 CURVE",
"21 624 LINE",
"66 622 OFFCURVE",
"83 608 OFFCURVE",
"83 558 CURVE SMOOTH",
"83 0 LINE",
"158 0 LINE",
"184 25 LINE",
"224 3 OFFCURVE",
"269 -7 OFFCURVE",
"318 -7 CURVE SMOOTH",
"458 -7 OFFCURVE",
"544 83 OFFCURVE",
"544 258 CURVE SMOOTH",
"544 411 OFFCURVE",
"478 492 OFFCURVE",
"360 492 CURVE SMOOTH"
);
},
{
closed = 1;
nodes = (
"372 432 OFFCURVE",
"398 376 OFFCURVE",
"398 256 CURVE SMOOTH",
"398 121 OFFCURVE",
"365 46 OFFCURVE",
"290 46 CURVE SMOOTH",
"263 46 OFFCURVE",
"238 55 OFFCURVE",
"224 65 CURVE",
"224 268 LINE SMOOTH",
"224 377 OFFCURVE",
"259 432 OFFCURVE",
"315 432 CURVE SMOOTH"
);
}
);
width = 591;
},
{
layerId = "E8623A4A-BA36-4417-942F-5A3A2106E744";
paths = (
{
closed = 1;
nodes = (
"270 672 LINE",
"245 696 LINE",
"56 678 LINE",
"50 638 LINE",
"84 638 OFFCURVE",
"116 628 OFFCURVE",
"116 590 CURVE SMOOTH",
"116 577 OFFCURVE",
"103 502 OFFCURVE",
"102 494 CURVE SMOOTH",
"40 98 LINE",
"41 80 OFFCURVE",
"52 65 OFFCURVE",
"68 52 CURVE SMOOTH",
"117 13 OFFCURVE",
"216 -7 OFFCURVE",
"258 -7 CURVE SMOOTH",
"424 -7 OFFCURVE",
"532 110 OFFCURVE",
"532 313 CURVE SMOOTH",
"532 429 OFFCURVE",
"478 492 OFFCURVE",
"379 492 CURVE SMOOTH",
"317 492 OFFCURVE",
"267 469 OFFCURVE",
"231 425 CURVE",
"252 555 LINE"
);
},
{
closed = 1;
nodes = (
"367 432 OFFCURVE",
"387 395 OFFCURVE",
"387 322 CURVE SMOOTH",
"387 190 OFFCURVE",
"350 46 OFFCURVE",
"238 46 CURVE SMOOTH",
"211 46 OFFCURVE",
"188 55 OFFCURVE",
"175 65 CURVE",
"207 268 LINE SMOOTH",
"224 377 OFFCURVE",
"269 432 OFFCURVE",
"324 432 CURVE SMOOTH"
);
}
);
width = 567;
}
);
unicode = 0062;
userData = {
com.typemytype.robofont.layerData = {
};
};
},
{
glyphname = c;
lastChange = "2019-08-11 12:29:22 +0000";
layers = (
{
layerId = master01;
paths = (
{
closed = 1;
nodes = (
"42 82 OFFCURVE",
"97 -7 OFFCURVE",
"253 -7 CURVE SMOOTH",
"348 -7 OFFCURVE",
"411 59 OFFCURVE",
"411 59 CURVE",
"385 89 LINE",
"385 89 OFFCURVE",
"333 42 OFFCURVE",
"258 42 CURVE SMOOTH",
"147 42 OFFCURVE",
"135 126 OFFCURVE",
"135 238 CURVE SMOOTH",
"135 344 OFFCURVE",
"153 440 OFFCURVE",
"257 440 CURVE SMOOTH",
"294 440 OFFCURVE",
"319 417 OFFCURVE",
"319 383 CURVE SMOOTH",
"319 372 OFFCURVE",
"314 360 OFFCURVE",
"306 347 CURVE",
"312 326 OFFCURVE",
"333 311 OFFCURVE",
"358 311 CURVE SMOOTH",
"387 311 OFFCURVE",
"411 339 OFFCURVE",
"411 370 CURVE SMOOTH",
"411 433 OFFCURVE",
"349 476 OFFCURVE",
"257 476 CURVE SMOOTH",
"117 476 OFFCURVE",
"44 395 OFFCURVE",
"42 238 CURVE"
);
}
);
width = 441;
},
{
layerId = "3A3DE108-C793-40C5-98B7-5D5D6E88ABCD";
paths = (
{
closed = 1;
nodes = (
"39 51 OFFCURVE",
"90 -7 OFFCURVE",
"210 -7 CURVE SMOOTH",
"304 -7 OFFCURVE",
"378 63 OFFCURVE",
"378 63 CURVE",
"351 100 LINE",
"351 100 OFFCURVE",
"281 45 OFFCURVE",
"222 45 CURVE SMOOTH",
"155 45 OFFCURVE",
"128 104 OFFCURVE",
"128 171 CURVE SMOOTH",
"128 298 OFFCURVE",
"194 431 OFFCURVE",
"277 431 CURVE SMOOTH",
"304 431 OFFCURVE",
"320 418 OFFCURVE",
"320 383 CURVE SMOOTH",
"320 368 OFFCURVE",
"315 355 OFFCURVE",
"304 338 CURVE",
"306 317 OFFCURVE",
"323 302 OFFCURVE",
"348 302 CURVE SMOOTH",
"383 302 OFFCURVE",
"410 338 OFFCURVE",
"410 374 CURVE SMOOTH",
"410 444 OFFCURVE",
"339 476 OFFCURVE",
"266 476 CURVE SMOOTH",
"110 476 OFFCURVE",
"39 307 OFFCURVE",
"39 171 CURVE SMOOTH"
);
}
);
width = 433;
},
{
layerId = "C58AFD15-F6AF-4274-A800-842D1A888C52";
paths = (
{
closed = 1;
nodes = (
"350 -7 OFFCURVE",
"419 21 OFFCURVE",
"464 68 CURVE",
"428 104 LINE",
"390 69 OFFCURVE",
"348 51 OFFCURVE",
"306 51 CURVE SMOOTH",
"223 51 OFFCURVE",
"191 106 OFFCURVE",
"191 248 CURVE SMOOTH",
"191 377 OFFCURVE",
"218 443 OFFCURVE",
"271 443 CURVE SMOOTH",
"299 443 OFFCURVE",
"320 425 OFFCURVE",
"320 400 CURVE SMOOTH",
"320 386 OFFCURVE",
"316 372 OFFCURVE",
"308 360 CURVE",
"316 336 OFFCURVE",
"345 318 OFFCURVE",
"376 318 CURVE SMOOTH",
"420 318 OFFCURVE",
"454 348 OFFCURVE",
"454 387 CURVE SMOOTH",
"454 447 OFFCURVE",
"383 489 OFFCURVE",
"280 489 CURVE SMOOTH",
"126 489 OFFCURVE",
"44 401 OFFCURVE",
"44 236 CURVE SMOOTH",
"44 77 OFFCURVE",
"125 -7 OFFCURVE",
"281 -7 CURVE SMOOTH"
);
}
);
width = 469;
},
{
layerId = "E8623A4A-BA36-4417-942F-5A3A2106E744";
paths = (
{
closed = 1;
nodes = (
"295 -7 OFFCURVE",
"368 21 OFFCURVE",
"421 68 CURVE",
"390 104 LINE",
"347 69 OFFCURVE",
"302 51 OFFCURVE",
"260 51 CURVE SMOOTH",
"197 51 OFFCURVE",
"168 89 OFFCURVE",
"168 177 CURVE SMOOTH",
"168 301 OFFCURVE",
"203 443 OFFCURVE",
"287 443 CURVE SMOOTH",
"313 443 OFFCURVE",
"330 427 OFFCURVE",
"330 405 CURVE SMOOTH",
"330 392 OFFCURVE",
"324 375 OFFCURVE",
"311 360 CURVE",
"315 336 OFFCURVE",
"341 318 OFFCURVE",
"372 318 CURVE SMOOTH",
"420 318 OFFCURVE",
"462 352 OFFCURVE",
"462 396 CURVE SMOOTH",
"462 451 OFFCURVE",
"400 489 OFFCURVE",
"303 489 CURVE SMOOTH",
"121 489 OFFCURVE",
"22 374 OFFCURVE",
"22 186 CURVE SMOOTH",
"22 61 OFFCURVE",
"91 -7 OFFCURVE",
"226 -7 CURVE SMOOTH"
);
}
);
width = 452;
}
);
unicode = 0063;
userData = {
com.typemytype.robofont.layerData = {
};
};
},
{
glyphname = d;
lastChange = "2019-08-11 12:29:22 +0000";
layers = (
{
layerId = master01;
paths = (
{
closed = 1;
nodes = (
"296 -7 OFFCURVE",
"338 15 OFFCURVE",
"366 59 CURVE",
"374 0 LINE",
"518 0 LINE",
"521 34 LINE",
"492 40 OFFCURVE",
"468 49 OFFCURVE",
"452 61 CURVE",
"452 687 LINE",
"432 697 LINE",
"391 685 OFFCURVE",
"344 670 OFFCURVE",
"299 662 CURVE",
"297 633 LINE",
"348 631 OFFCURVE",
"366 617 OFFCURVE",
"366 567 CURVE SMOOTH",
"366 459 LINE",
"339 470 OFFCURVE",
"313 476 OFFCURVE",
"281 476 CURVE SMOOTH",
"135 476 OFFCURVE",
"55 388 OFFCURVE",
"55 224 CURVE SMOOTH",
"55 71 OFFCURVE",
"117 -7 OFFCURVE",
"238 -7 CURVE SMOOTH"
);
},
{
closed = 1;
nodes = (
"176 36 OFFCURVE",
"143 95 OFFCURVE",
"143 224 CURVE SMOOTH",
"143 357 OFFCURVE",
"193 434 OFFCURVE",
"278 434 CURVE SMOOTH",
"323 434 OFFCURVE",
"347 424 OFFCURVE",
"366 414 CURVE",
"366 224 LINE SMOOTH",
"366 98 OFFCURVE",
"324 36 OFFCURVE",
"247 36 CURVE SMOOTH"
);
}
);
width = 555;
},
{
layerId = "3A3DE108-C793-40C5-98B7-5D5D6E88ABCD";
paths = (
{
closed = 1;
nodes = (
"325 474 OFFCURVE",
"288 476 OFFCURVE",
"262 476 CURVE SMOOTH",
"121 476 OFFCURVE",
"40 313 OFFCURVE",
"40 172 CURVE SMOOTH",
"40 69 OFFCURVE",
"65 -7 OFFCURVE",
"167 -7 CURVE SMOOTH",
"231 -7 OFFCURVE",
"283 52 OFFCURVE",
"314 98 CURVE",
"309 72 OFFCURVE",
"306 53 OFFCURVE",
"306 45 CURVE SMOOTH",
"306 16 OFFCURVE",
"312 -7 OFFCURVE",
"363 -7 CURVE SMOOTH",
"402 -7 OFFCURVE",
"454 30 OFFCURVE",
"476 49 CURVE",
"466 81 LINE",
"461 78 OFFCURVE",
"433 62 OFFCURVE",
"416 62 CURVE SMOOTH",
"402 62 OFFCURVE",
"394 65 OFFCURVE",
"394 77 CURVE SMOOTH",
"394 79 OFFCURVE",
"395 86 OFFCURVE",
"397 96 CURVE SMOOTH",
"490 672 LINE",
"467 697 LINE",
"322 686 LINE",
"317 653 LINE",
"357 649 OFFCURVE",
"394 639 OFFCURVE",
"394 603 CURVE SMOOTH",
"394 596 OFFCURVE",
"380 528 OFFCURVE",
"368 455 CURVE"
);
},
{
closed = 1;
nodes = (
"146 45 OFFCURVE",
"129 101 OFFCURVE",
"129 171 CURVE SMOOTH",
"129 280 OFFCURVE",
"191 431 OFFCURVE",
"285 431 CURVE SMOOTH",
"314 431 OFFCURVE",
"340 419 OFFCURVE",
"360 406 CURVE",
"343 301 LINE SMOOTH",
"318 145 OFFCURVE",
"245 45 OFFCURVE",
"193 45 CURVE SMOOTH"
);
}
);
width = 524;
},
{
layerId = "C58AFD15-F6AF-4274-A800-842D1A888C52";
paths = (
{
closed = 1;
nodes = (
"540 40 OFFCURVE",
"516 52 OFFCURVE",
"505 62 CURVE",
"505 687 LINE",
"488 697 LINE",
"448 686 OFFCURVE",
"341 671 OFFCURVE",
"297 663 CURVE",
"294 624 LINE",
"346 622 OFFCURVE",
"364 608 OFFCURVE",
"364 558 CURVE SMOOTH",
"364 468 LINE",
"335 483 OFFCURVE",
"308 492 OFFCURVE",
"265 492 CURVE SMOOTH",
"125 492 OFFCURVE",
"44 401 OFFCURVE",
"44 229 CURVE SMOOTH",
"44 73 OFFCURVE",
"110 -7 OFFCURVE",
"228 -7 CURVE SMOOTH",
"293 -7 OFFCURVE",
"339 17 OFFCURVE",
"368 65 CURVE",
"381 0 LINE",
"561 0 LINE",
"565 35 LINE"
);
},
{
closed = 1;
nodes = (
"364 114 OFFCURVE",
"332 53 OFFCURVE",
"273 53 CURVE SMOOTH",
"216 53 OFFCURVE",
"190 109 OFFCURVE",
"190 229 CURVE SMOOTH",
"190 364 OFFCURVE",
"224 438 OFFCURVE",
"299 438 CURVE SMOOTH",
"325 438 OFFCURVE",
"350 429 OFFCURVE",
"364 419 CURVE",
"364 234 LINE SMOOTH"
);
}
);
width = 597;
},
{
layerId = "E8623A4A-BA36-4417-942F-5A3A2106E744";
paths = (
{
closed = 1;
nodes = (
"374 483 OFFCURVE",
"348 492 OFFCURVE",
"305 492 CURVE SMOOTH",
"138 492 OFFCURVE",
"36 372 OFFCURVE",
"36 172 CURVE SMOOTH",
"36 55 OFFCURVE",
"90 -7 OFFCURVE",
"189 -7 CURVE SMOOTH",
"244 -7 OFFCURVE",
"307 16 OFFCURVE",
"340 73 CURVE",
"342 24 OFFCURVE",
"365 -5 OFFCURVE",
"424 -5 CURVE SMOOTH",
"471 -5 OFFCURVE",
"538 23 OFFCURVE",
"564 49 CURVE",
"551 85 LINE",
"533 75 OFFCURVE",
"517 69 OFFCURVE",
"505 69 CURVE SMOOTH",
"491 69 OFFCURVE",
"483 77 OFFCURVE",
"483 93 CURVE SMOOTH",
"483 96 OFFCURVE",
"484 110 OFFCURVE",
"487 129 CURVE SMOOTH",
"555 555 LINE",
"573 672 LINE",
"548 696 LINE",
"359 678 LINE",
"353 638 LINE",
"387 638 OFFCURVE",
"419 628 OFFCURVE",
"419 590 CURVE SMOOTH",
"419 580 OFFCURVE",
"413 544 OFFCURVE",
"404 492 CURVE SMOOTH",
"400 468 LINE"
);
},
{
closed = 1;
nodes = (
"344 114 OFFCURVE",
"302 53 OFFCURVE",
"243 53 CURVE SMOOTH",
"201 53 OFFCURVE",
"181 90 OFFCURVE",
"181 163 CURVE SMOOTH",
"181 300 OFFCURVE",
"221 438 OFFCURVE",
"330 438 CURVE SMOOTH",
"356 438 OFFCURVE",
"380 429 OFFCURVE",
"392 419 CURVE",
"363 234 LINE SMOOTH"
);
}
);
width = 570;
}
);
unicode = 0064;
userData = {
com.typemytype.robofont.layerData = {
};
};
},
{
glyphname = e;
lastChange = "2019-08-11 12:29:22 +0000";
layers = (
{
layerId = master01;
paths = (
{
closed = 1;
nodes = (
"451 270 LINE",
"447 396 OFFCURVE",
"409 476 OFFCURVE",
"269 476 CURVE SMOOTH",
"130 476 OFFCURVE",
"60 383 OFFCURVE",
"60 238 CURVE SMOOTH",
"60 82 OFFCURVE",
"114 -7 OFFCURVE",
"271 -7 CURVE SMOOTH",
"365 -7 OFFCURVE",
"428 59 OFFCURVE",
"428 59 CURVE",
"403 89 LINE",
"403 89 OFFCURVE",
"350 42 OFFCURVE",
"275 42 CURVE SMOOTH",
"163 42 OFFCURVE",
"152 126 OFFCURVE",
"152 238 CURVE SMOOTH",
"152 243 LINE",
"430 243 LINE"
);
},
{
closed = 1;
nodes = (
"341 436 OFFCURVE",
"361 387 OFFCURVE",
"361 287 CURVE",
"361 287 OFFCURVE",
"231 281 OFFCURVE",
"152 280 CURVE",
"154 371 OFFCURVE",
"185 436 OFFCURVE",
"265 436 CURVE SMOOTH"
);
}
);
width = 488;
},
{
layerId = "3A3DE108-C793-40C5-98B7-5D5D6E88ABCD";
paths = (
{
closed = 1;
nodes = (
"423 424 OFFCURVE",
"382 476 OFFCURVE",
"286 476 CURVE SMOOTH",
"141 476 OFFCURVE",
"40 350 OFFCURVE",
"40 157 CURVE SMOOTH",
"40 79 OFFCURVE",
"80 -7 OFFCURVE",
"200 -7 CURVE SMOOTH",
"280 -7 OFFCURVE",
"350 33 OFFCURVE",
"386 69 CURVE",
"357 106 LINE",
"329 85 OFFCURVE",
"272 45 OFFCURVE",
"220 45 CURVE SMOOTH",
"168 45 OFFCURVE",
"131 84 OFFCURVE",
"131 172 CURVE SMOOTH",
"131 195 LINE",
"300 195 OFFCURVE",
"423 273 OFFCURVE",
"423 370 CURVE SMOOTH"
);
},
{
closed = 1;
nodes = (
"317 430 OFFCURVE",
"335 402 OFFCURVE",
"335 372 CURVE SMOOTH",
"335 298 OFFCURVE",
"256 244 OFFCURVE",
"136 244 CURVE",
"152 349 OFFCURVE",
"203 430 OFFCURVE",
"279 430 CURVE SMOOTH"
);
}
);
width = 457;
},
{
layerId = "C58AFD15-F6AF-4274-A800-842D1A888C52";
paths = (
{
closed = 1;
nodes = (
"489 413 OFFCURVE",
"442 492 OFFCURVE",
"284 492 CURVE SMOOTH",
"125 492 OFFCURVE",
"43 393 OFFCURVE",
"43 238 CURVE SMOOTH",
"43 91 OFFCURVE",
"116 -7 OFFCURVE",
"276 -7 CURVE SMOOTH",
"381 -7 OFFCURVE",
"432 32 OFFCURVE",
"478 78 CURVE",
"438 117 LINE",
"400 78 OFFCURVE",
"348 62 OFFCURVE",
"300 62 CURVE SMOOTH",
"207 62 OFFCURVE",
"186 123 OFFCURVE",
"186 227 CURVE SMOOTH",
"186 243 LINE",
"468 243 LINE",
"496 285 LINE"
);
},
{
closed = 1;
nodes = (
"338 443 OFFCURVE",
"354 393 OFFCURVE",
"354 291 CURVE",
"354 291 OFFCURVE",
"258 285 OFFCURVE",
"186 283 CURVE",
"188 376 OFFCURVE",
"212 443 OFFCURVE",
"280 443 CURVE SMOOTH"
);
}
);
width = 531;
},
{
layerId = "E8623A4A-BA36-4417-942F-5A3A2106E744";
paths = (
{
closed = 1;
nodes = (
"363 210 OFFCURVE",
"478 280 OFFCURVE",
"478 392 CURVE SMOOTH",
"478 452 OFFCURVE",
"412 492 OFFCURVE",
"313 492 CURVE SMOOTH",
"137 492 OFFCURVE",
"27 375 OFFCURVE",
"27 189 CURVE SMOOTH",
"27 69 OFFCURVE",
"103 -7 OFFCURVE",
"223 -7 CURVE SMOOTH",
"300 -7 OFFCURVE",
"382 24 OFFCURVE",
"446 78 CURVE",
"413 117 LINE",
"372 84 OFFCURVE",
"312 62 OFFCURVE",
"262 62 CURVE SMOOTH",
"200 62 OFFCURVE",
"166 97 OFFCURVE",
"166 160 CURVE SMOOTH",
"166 173 OFFCURVE",
"167 188 OFFCURVE",
"170 210 CURVE",
"181 210 LINE SMOOTH"
);
},
{
closed = 1;
nodes = (
"335 443 OFFCURVE",
"353 425 OFFCURVE",
"353 390 CURVE SMOOTH",
"353 324 OFFCURVE",
"269 271 OFFCURVE",
"179 268 CURVE",
"200 378 OFFCURVE",
"231 443 OFFCURVE",
"301 443 CURVE SMOOTH"
);
}
);
width = 499;
}
);
unicode = 0065;
userData = {
com.typemytype.robofont.layerData = {
};
};
},
{
glyphname = f;
lastChange = "2019-08-11 12:29:22 +0000";
layers = (
{
layerId = master01;
paths = (
{
closed = 1;
nodes = (
"233 40 OFFCURVE",
"201 49 OFFCURVE",
"183 62 CURVE",
"183 417 LINE",
"287 417 LINE",
"287 470 LINE",
"183 470 LINE",
"183 507 OFFCURVE",
"171 555 OFFCURVE",
"171 590 CURVE SMOOTH",
"171 643 OFFCURVE",
"198 672 OFFCURVE",
"239 672 CURVE SMOOTH",
"279 672 OFFCURVE",
"299 642 OFFCURVE",
"307 588 CURVE",
"362 588 LINE",
"362 684 LINE",
"340 698 OFFCURVE",
"297 709 OFFCURVE",
"253 709 CURVE SMOOTH",
"137 709 OFFCURVE",
"98 625 OFFCURVE",
"98 524 CURVE SMOOTH",
"98 470 LINE",
"76 459 OFFCURVE",
"42 454 OFFCURVE",
"19 452 CURVE",
"24 417 LINE",
"98 417 LINE",
"98 62 LINE",
"78 46 OFFCURVE",
"62 41 OFFCURVE",
"32 36 CURVE",
"28 0 LINE",
"261 0 LINE",
"264 34 LINE"
);
}
);
width = 303;
},
{
layerId = "3A3DE108-C793-40C5-98B7-5D5D6E88ABCD";
paths = (
{
closed = 1;
nodes = (
"115 -219 OFFCURVE",
"137 -55 OFFCURVE",
"155 59 CURVE SMOOTH",
"211 413 LINE",
"308 413 LINE",
"315 462 LINE",
"219 462 LINE",
"226 521 OFFCURVE",
"213 650 OFFCURVE",
"294 650 CURVE SMOOTH",
"324 650 OFFCURVE",
"338 635 OFFCURVE",
"338 617 CURVE SMOOTH",
"338 603 OFFCURVE",
"329 587 OFFCURVE",
"314 576 CURVE",
"321 551 OFFCURVE",
"340 540 OFFCURVE",
"359 540 CURVE SMOOTH",
"388 540 OFFCURVE",
"421 567 OFFCURVE",
"421 613 CURVE SMOOTH",
"421 663 OFFCURVE",
"372 697 OFFCURVE",
"313 697 CURVE SMOOTH",
"208 697 OFFCURVE",
"163 617 OFFCURVE",
"143 513 CURVE SMOOTH",
"134 467 LINE",
"58 447 LINE",
"52 413 LINE",
"126 413 LINE",
"71 70 LINE SMOOTH",
"53 -40 OFFCURVE",
"61 -171 OFFCURVE",
"-12 -171 CURVE SMOOTH",
"-31 -171 OFFCURVE",
"-39 -158 OFFCURVE",
"-39 -143 CURVE SMOOTH",
"-39 -131 OFFCURVE",
"-33 -118 OFFCURVE",
"-22 -112 CURVE",
"-27 -88 OFFCURVE",
"-48 -76 OFFCURVE",
"-70 -76 CURVE SMOOTH",
"-99 -76 OFFCURVE",
"-129 -97 OFFCURVE",
"-129 -142 CURVE SMOOTH",
"-129 -190 OFFCURVE",
"-88 -219 OFFCURVE",
"-31 -219 CURVE SMOOTH"
);
}
);
width = 292;
},
{
layerId = "C58AFD15-F6AF-4274-A800-842D1A888C52";
paths = (
{
closed = 1;
nodes = (
"365 694 OFFCURVE",
"312 709 OFFCURVE",
"272 709 CURVE SMOOTH",
"163 709 OFFCURVE",
"87 632 OFFCURVE",
"87 522 CURVE SMOOTH",
"87 478 LINE",
"67 469 OFFCURVE",
"34 460 OFFCURVE",
"3 455 CURVE",
"8 415 LINE",
"87 415 LINE",
"87 62 LINE",
"67 46 OFFCURVE",
"52 41 OFFCURVE",
"21 36 CURVE",
"17 0 LINE",
"311 0 LINE",
"314 34 LINE",
"274 41 OFFCURVE",
"244 50 OFFCURVE",
"228 62 CURVE",
"228 415 LINE",
"332 415 LINE",
"332 478 LINE",
"228 478 LINE",
"228 511 OFFCURVE",
"208 555 OFFCURVE",
"208 588 CURVE SMOOTH",
"208 637 OFFCURVE",
"230 670 OFFCURVE",
"264 670 CURVE SMOOTH",
"301 670 OFFCURVE",
"318 641 OFFCURVE",
"327 562 CURVE",
"400 562 LINE",
"400 672 LINE"
);
}
);
width = 326;
},
{
layerId = "E8623A4A-BA36-4417-942F-5A3A2106E744";
paths = (
{
closed = 1;
nodes = (
"45 -40 OFFCURVE",
"62 -171 OFFCURVE",
"-21 -171 CURVE SMOOTH",
"-41 -171 OFFCURVE",
"-50 -157 OFFCURVE",
"-50 -141 CURVE SMOOTH",
"-50 -127 OFFCURVE",
"-42 -110 OFFCURVE",
"-29 -103 CURVE",
"-34 -75 OFFCURVE",
"-58 -61 OFFCURVE",
"-83 -61 CURVE SMOOTH",
"-116 -61 OFFCURVE",
"-152 -85 OFFCURVE",
"-152 -135 CURVE SMOOTH",
"-152 -191 OFFCURVE",
"-98 -219 OFFCURVE",
"-32 -219 CURVE SMOOTH",
"150 -219 OFFCURVE",
"182 -55 OFFCURVE",
"200 59 CURVE SMOOTH",
"256 415 LINE",
"360 415 LINE",
"370 478 LINE",
"266 478 LINE",
"267 483 OFFCURVE",
"267 489 OFFCURVE",
"267 495 CURVE SMOOTH",
"267 520 OFFCURVE",
"262 550 OFFCURVE",
"262 573 CURVE SMOOTH",
"262 608 OFFCURVE",
"278 670 OFFCURVE",
"334 670 CURVE SMOOTH",
"359 670 OFFCURVE",
"371 658 OFFCURVE",
"371 638 CURVE SMOOTH",
"371 621 OFFCURVE",
"361 604 OFFCURVE",
"344 591 CURVE",
"345 564 OFFCURVE",
"369 548 OFFCURVE",
"396 548 CURVE SMOOTH",
"431 548 OFFCURVE",
"470 572 OFFCURVE",
"470 625 CURVE SMOOTH",
"470 686 OFFCURVE",
"397 709 OFFCURVE",
"346 709 CURVE SMOOTH",
"232 709 OFFCURVE",
"149 628 OFFCURVE",
"132 522 CURVE SMOOTH",
"125 478 LINE",
"100 468 OFFCURVE",
"68 460 OFFCURVE",
"44 456 CURVE",
"36 415 LINE",
"115 415 LINE",
"62 70 LINE SMOOTH"
);
}
);
width = 320;
}
);
unicode = 0066;
userData = {
com.typemytype.robofont.layerData = {
};
};
},
{
glyphname = g;
lastChange = "2019-08-11 12:29:22 +0000";
layers = (
{
layerId = master01;
paths = (
{
closed = 1;
nodes = (
"119 475 OFFCURVE",
"58 417 OFFCURVE",
"58 308 CURVE SMOOTH",
"58 228 OFFCURVE",
"103 172 OFFCURVE",
"182 153 CURVE",
"100 95 LINE",
"100 67 OFFCURVE",
"108 44 OFFCURVE",
"122 28 CURVE",
"69 -1 OFFCURVE",
"45 -22 OFFCURVE",
"45 -93 CURVE SMOOTH",
"45 -168 OFFCURVE",
"113 -219 OFFCURVE",
"258 -219 CURVE SMOOTH",
"403 -219 OFFCURVE",
"470 -168 OFFCURVE",
"470 -80 CURVE SMOOTH",
"470 -2 OFFCURVE",
"422 67 OFFCURVE",
"291 67 CURVE SMOOTH",
"249 67 LINE SMOOTH",
"201 68 OFFCURVE",
"188 76 OFFCURVE",
"185 95 CURVE",
"227 147 LINE",
"241 147 LINE SMOOTH",
"355 147 OFFCURVE",
"425 210 OFFCURVE",
"425 308 CURVE SMOOTH",
"425 356 OFFCURVE",
"413 395 OFFCURVE",
"388 423 CURVE",
"434 439 OFFCURVE",
"458 470 OFFCURVE",
"458 510 CURVE SMOOTH",
"458 540 OFFCURVE",
"438 560 OFFCURVE",
"408 560 CURVE SMOOTH",
"379 560 OFFCURVE",
"361 546 OFFCURVE",
"361 526 CURVE",
"378 518 OFFCURVE",
"389 504 OFFCURVE",
"389 490 CURVE SMOOTH",
"389 471 OFFCURVE",
"376 458 OFFCURVE",
"353 451 CURVE",
"324 467 OFFCURVE",
"287 475 OFFCURVE",
"241 475 CURVE SMOOTH"
);
},
{
closed = 1;
nodes = (
"175 188 OFFCURVE",
"148 225 OFFCURVE",
"148 311 CURVE SMOOTH",
"148 398 OFFCURVE",
"176 435 OFFCURVE",
"241 435 CURVE SMOOTH",
"306 435 OFFCURVE",
"334 398 OFFCURVE",
"334 311 CURVE SMOOTH",
"334 225 OFFCURVE",
"307 188 OFFCURVE",
"241 188 CURVE SMOOTH"
);
},
{
closed = 1;
nodes = (
"337 -1 OFFCURVE",
"378 -23 OFFCURVE",
"378 -80 CURVE SMOOTH",
"378 -147 OFFCURVE",
"336 -178 OFFCURVE",
"258 -178 CURVE SMOOTH",
"180 -178 OFFCURVE",
"137 -146 OFFCURVE",
"137 -80 CURVE SMOOTH",
"137 -47 OFFCURVE",
"153 -20 OFFCURVE",
"182 -1 CURVE",
"267 -1 LINE SMOOTH"
);
}
);
width = 494;
},
{
layerId = "3A3DE108-C793-40C5-98B7-5D5D6E88ABCD";
paths = (
{
closed = 1;
nodes = (
"-36 -184 OFFCURVE",
"41 -219 OFFCURVE",
"134 -219 CURVE SMOOTH",
"293 -219 OFFCURVE",
"376 -126 OFFCURVE",
"408 74 CURVE SMOOTH",
"471 462 LINE",
"441 476 LINE",
"390 452 LINE",
"344 473 OFFCURVE",
"305 478 OFFCURVE",
"277 478 CURVE SMOOTH",
"136 478 OFFCURVE",
"55 313 OFFCURVE",
"55 172 CURVE SMOOTH",
"55 69 OFFCURVE",
"80 -7 OFFCURVE",
"182 -7 CURVE SMOOTH",
"245 -7 OFFCURVE",
"297 51 OFFCURVE",
"328 97 CURVE",
"318 36 LINE SMOOTH",
"298 -83 OFFCURVE",
"258 -173 OFFCURVE",
"149 -173 CURVE SMOOTH",
"89 -173 OFFCURVE",
"66 -144 OFFCURVE",
"66 -117 CURVE SMOOTH",
"66 -103 OFFCURVE",
"72 -89 OFFCURVE",
"83 -80 CURVE",
"74 -56 OFFCURVE",
"54 -45 OFFCURVE",
"32 -45 CURVE SMOOTH",
"-1 -45 OFFCURVE",
"-36 -70 OFFCURVE",
"-36 -113 CURVE SMOOTH"
);
},
{
closed = 1;
nodes = (
"345 182 OFFCURVE",
"262 45 OFFCURVE",
"208 45 CURVE SMOOTH",
"161 45 OFFCURVE",
"144 101 OFFCURVE",
"144 171 CURVE SMOOTH",
"144 280 OFFCURVE",
"206 431 OFFCURVE",
"300 431 CURVE SMOOTH",
"328 431 OFFCURVE",
"354 420 OFFCURVE",
"373 407 CURVE",
"361 312 LINE SMOOTH"
);
}
);
width = 522;
},
{
layerId = "C58AFD15-F6AF-4274-A800-842D1A888C52";
paths = (
{
closed = 1;
nodes = (
"120 492 OFFCURVE",
"44 427 OFFCURVE",
"44 315 CURVE SMOOTH",
"44 236 OFFCURVE",
"92 178 OFFCURVE",
"173 156 CURVE",
"86 95 LINE",
"86 71 OFFCURVE",
"91 51 OFFCURVE",
"101 35 CURVE",
"47 -1 OFFCURVE",
"23 -41 OFFCURVE",
"23 -93 CURVE SMOOTH",
"23 -174 OFFCURVE",
"112 -219 OFFCURVE",
"269 -219 CURVE SMOOTH",
"421 -219 OFFCURVE",
"505 -165 OFFCURVE",
"505 -67 CURVE SMOOTH",
"505 32 OFFCURVE",
"434 84 OFFCURVE",
"302 84 CURVE SMOOTH",
"260 84 LINE SMOOTH",
"220 84 OFFCURVE",
"204 89 OFFCURVE",
"202 104 CURVE",
"236 147 LINE",
"252 147 LINE SMOOTH",
"378 147 OFFCURVE",
"459 212 OFFCURVE",
"459 315 CURVE SMOOTH",
"459 361 OFFCURVE",
"446 399 OFFCURVE",
"422 428 CURVE",
"457 445 OFFCURVE",
"483 482 OFFCURVE",
"483 515 CURVE SMOOTH",
"483 546 OFFCURVE",
"461 567 OFFCURVE",
"427 567 CURVE SMOOTH",
"396 567 OFFCURVE",
"371 550 OFFCURVE",
"371 529 CURVE",
"389 520 OFFCURVE",
"399 507 OFFCURVE",
"399 491 CURVE SMOOTH",
"399 478 OFFCURVE",
"394 467 OFFCURVE",
"385 459 CURVE",
"351 480 OFFCURVE",
"306 492 OFFCURVE",
"252 492 CURVE SMOOTH"
);
},
{
closed = 1;
nodes = (
"352 0 OFFCURVE",
"389 -26 OFFCURVE",
"389 -78 CURVE SMOOTH",
"389 -136 OFFCURVE",
"351 -163 OFFCURVE",
"269 -163 CURVE SMOOTH",
"189 -163 OFFCURVE",
"153 -137 OFFCURVE",
"153 -78 CURVE SMOOTH",
"153 -50 OFFCURVE",
"163 -24 OFFCURVE",
"181 -6 CURVE SMOOTH",
"187 0 LINE",
"278 0 LINE SMOOTH"
);
},
{
closed = 1;
nodes = (
"198 196 OFFCURVE",
"185 220 OFFCURVE",
"185 315 CURVE SMOOTH",
"185 405 OFFCURVE",
"205 442 OFFCURVE",
"252 442 CURVE SMOOTH",
"304 442 OFFCURVE",
"326 404 OFFCURVE",
"326 315 CURVE SMOOTH",
"326 225 OFFCURVE",
"308 196 OFFCURVE",
"252 196 CURVE SMOOTH"
);
}
);
width = 520;
},
{
layerId = "E8623A4A-BA36-4417-942F-5A3A2106E744";
paths = (
{
closed = 1;
nodes = (
"514 491 LINE",
"430 472 LINE",
"396 484 OFFCURVE",
"363 492 OFFCURVE",
"326 492 CURVE SMOOTH",
"175 492 OFFCURVE",
"54 395 OFFCURVE",
"54 181 CURVE SMOOTH",
"54 49 OFFCURVE",
"130 -11 OFFCURVE",
"213 -11 CURVE SMOOTH",
"269 -11 OFFCURVE",
"308 12 OFFCURVE",
"337 48 CURVE",
"336 36 LINE SMOOTH",
"324 -77 OFFCURVE",
"287 -164 OFFCURVE",
"192 -164 CURVE SMOOTH",
"145 -164 OFFCURVE",
"129 -142 OFFCURVE",
"129 -119 CURVE SMOOTH",
"129 -101 OFFCURVE",
"139 -82 OFFCURVE",
"152 -73 CURVE",
"141 -44 OFFCURVE",
"116 -31 OFFCURVE",
"90 -31 CURVE SMOOTH",
"50 -31 OFFCURVE",
"7 -61 OFFCURVE",
"7 -113 CURVE SMOOTH",
"7 -199 OFFCURVE",
"84 -219 OFFCURVE",
"177 -219 CURVE SMOOTH",
"347 -219 OFFCURVE",
"445 -135 OFFCURVE",
"475 49 CURVE SMOOTH",
"544 476 LINE"
);
},
{
closed = 1;
nodes = (
"346 134 OFFCURVE",
"308 50 OFFCURVE",
"258 50 CURVE SMOOTH",
"212 50 OFFCURVE",
"198 112 OFFCURVE",
"198 182 CURVE SMOOTH",
"198 358 OFFCURVE",
"269 443 OFFCURVE",
"349 443 CURVE SMOOTH",
"366 443 OFFCURVE",
"381 440 OFFCURVE",
"397 434 CURVE",
"368 262 LINE SMOOTH"
);
}
);
width = 565;
}
);
unicode = 0067;
userData = {
com.typemytype.robofont.layerData = {
};
};
},
{
glyphname = h;
lastChange = "2019-08-11 12:29:22 +0000";
layers = (
{
layerId = master01;
paths = (
{
closed = 1;
nodes = (
"220 40 OFFCURVE",
"196 49 OFFCURVE",
"179 62 CURVE",
"179 344 LINE",
"200 394 OFFCURVE",
"246 428 OFFCURVE",
"292 428 CURVE SMOOTH",
"348 428 OFFCURVE",
"377 396 OFFCURVE",
"377 329 CURVE SMOOTH",
"377 62 LINE",
"358 47 OFFCURVE",
"336 38 OFFCURVE",
"311 34 CURVE",
"308 0 LINE",
"528 0 LINE",
"532 34 LINE",
"503 40 OFFCURVE",
"474 52 OFFCURVE",
"462 62 CURVE",
"462 338 LINE SMOOTH",
"462 425 OFFCURVE",
"405 476 OFFCURVE",
"308 476 CURVE SMOOTH",
"258 476 OFFCURVE",
"211 449 OFFCURVE",
"179 408 CURVE",
"179 687 LINE",
"160 697 LINE",
"119 685 OFFCURVE",
"72 670 OFFCURVE",
"27 663 CURVE",
"24 633 LINE",
"75 631 OFFCURVE",
"94 617 OFFCURVE",
"94 567 CURVE SMOOTH",
"94 62 LINE",
"74 46 OFFCURVE",
"58 41 OFFCURVE",
"28 37 CURVE",
"24 0 LINE",
"245 0 LINE",
"249 35 LINE"
);
}
);
width = 552;
},
{
layerId = "3A3DE108-C793-40C5-98B7-5D5D6E88ABCD";
paths = (
{
closed = 1;
nodes = (
"127 0 LINE",
"160 201 LINE",
"184 310 OFFCURVE",
"238 421 OFFCURVE",
"313 421 CURVE SMOOTH",
"343 421 OFFCURVE",
"366 399 OFFCURVE",
"366 353 CURVE SMOOTH",
"366 319 OFFCURVE",
"318 74 OFFCURVE",
"318 45 CURVE SMOOTH",
"318 16 OFFCURVE",
"325 -7 OFFCURVE",
"375 -7 CURVE SMOOTH",
"415 -7 OFFCURVE",
"467 30 OFFCURVE",
"489 49 CURVE",
"479 81 LINE",
"474 78 OFFCURVE",
"445 62 OFFCURVE",
"428 62 CURVE SMOOTH",
"412 62 OFFCURVE",
"407 68 OFFCURVE",
"407 84 CURVE",
"449 327 LINE SMOOTH",
"453 352 OFFCURVE",
"454 360 OFFCURVE",
"454 369 CURVE SMOOTH",
"454 437 OFFCURVE",
"413 476 OFFCURVE",
"341 476 CURVE SMOOTH",
"266 476 OFFCURVE",
"214 413 OFFCURVE",
"183 359 CURVE",
"234 672 LINE",
"209 697 LINE",
"64 686 LINE",
"59 653 LINE",
"99 649 OFFCURVE",
"136 639 OFFCURVE",
"136 603 CURVE SMOOTH",
"136 596 OFFCURVE",
"128 543 OFFCURVE",
"116 470 CURVE SMOOTH",
"41 0 LINE"
);
}
);
width = 530;
},
{
layerId = "C58AFD15-F6AF-4274-A800-842D1A888C52";
paths = (
{
closed = 1;
nodes = (
"260 46 OFFCURVE",
"239 55 OFFCURVE",
"225 67 CURVE",
"225 371 LINE",
"245 404 OFFCURVE",
"279 425 OFFCURVE",
"313 425 CURVE SMOOTH",
"355 425 OFFCURVE",
"375 394 OFFCURVE",
"375 329 CURVE SMOOTH",
"375 66 LINE",
"362 52 OFFCURVE",
"345 43 OFFCURVE",
"326 39 CURVE",
"323 0 LINE",
"577 0 LINE",
"580 39 LINE",
"551 45 OFFCURVE",
"528 57 OFFCURVE",
"517 66 CURVE",
"517 338 LINE SMOOTH",
"517 435 OFFCURVE",
"457 492 OFFCURVE",
"367 492 CURVE SMOOTH",
"309 492 OFFCURVE",
"259 467 OFFCURVE",
"225 429 CURVE",
"225 688 LINE",
"207 698 LINE",
"169 687 OFFCURVE",
"66 672 OFFCURVE",
"24 664 CURVE",
"21 625 LINE",
"67 623 OFFCURVE",
"83 609 OFFCURVE",
"83 559 CURVE SMOOTH",
"83 67 LINE",
"67 52 OFFCURVE",
"55 47 OFFCURVE",
"31 42 CURVE",
"27 1 LINE",
"281 1 LINE",
"285 40 LINE"
);
}
);
width = 597;
},
{
layerId = "E8623A4A-BA36-4417-942F-5A3A2106E744";
paths = (
{
closed = 1;
nodes = (
"177 0 LINE",
"208 196 LINE SMOOTH",
"226 310 OFFCURVE",
"294 425 OFFCURVE",
"342 425 CURVE SMOOTH",
"369 425 OFFCURVE",
"384 404 OFFCURVE",
"384 365 CURVE SMOOTH",
"384 354 OFFCURVE",
"384 342 OFFCURVE",
"380 320 CURVE SMOOTH",
"350 136 LINE SMOOTH",
"347 116 OFFCURVE",
"345 97 OFFCURVE",
"345 81 CURVE SMOOTH",
"345 27 OFFCURVE",
"365 -6 OFFCURVE",
"428 -6 CURVE SMOOTH",
"475 -6 OFFCURVE",
"542 22 OFFCURVE",
"568 48 CURVE",
"555 84 LINE",
"537 74 OFFCURVE",
"521 68 OFFCURVE",
"509 68 CURVE SMOOTH",
"495 68 OFFCURVE",
"487 76 OFFCURVE",
"487 92 CURVE SMOOTH",
"487 95 OFFCURVE",
"488 107 OFFCURVE",
"490 117 CURVE SMOOTH",
"521 321 LINE SMOOTH",
"525 349 OFFCURVE",
"526 359 OFFCURVE",
"526 369 CURVE SMOOTH",
"526 446 OFFCURVE",
"479 492 OFFCURVE",
"399 492 CURVE SMOOTH",
"333 492 OFFCURVE",
"280 458 OFFCURVE",
"239 395 CURVE",
"283 672 LINE",
"258 696 LINE",
"69 678 LINE",
"63 638 LINE",
"97 638 OFFCURVE",
"129 628 OFFCURVE",
"129 590 CURVE SMOOTH",
"129 577 OFFCURVE",
"116 502 OFFCURVE",
"115 494 CURVE SMOOTH",
"36 0 LINE"
);
}
);
width = 580;
}
);
unicode = 0068;
userData = {
com.typemytype.robofont.layerData = {
};
};
},
{
glyphname = dotlessi;
lastChange = "2019-08-11 12:29:22 +0000";
layers = (
{
layerId = master01;
paths = (
{
closed = 1;
nodes = (
"83 46 OFFCURVE",
"67 41 OFFCURVE",
"38 36 CURVE",
"34 0 LINE",
"255 0 LINE",
"259 34 LINE",
"230 40 OFFCURVE",
"206 49 OFFCURVE",
"189 61 CURVE",
"189 468 LINE",
"169 479 LINE",
"129 467 OFFCURVE",
"82 452 OFFCURVE",
"37 444 CURVE",
"34 415 LINE",
"85 413 OFFCURVE",
"104 399 OFFCURVE",
"104 349 CURVE SMOOTH",
"104 61 LINE"
);
}
);
width = 278;
},
{
layerId = "3A3DE108-C793-40C5-98B7-5D5D6E88ABCD";
paths = (
{
closed = 1;
nodes = (
"106 367 OFFCURVE",
"56 74 OFFCURVE",
"56 45 CURVE SMOOTH",
"56 16 OFFCURVE",
"62 -7 OFFCURVE",
"112 -7 CURVE SMOOTH",
"152 -7 OFFCURVE",
"205 30 OFFCURVE",
"227 49 CURVE",
"217 81 LINE",
"212 78 OFFCURVE",
"183 62 OFFCURVE",
"166 62 CURVE SMOOTH",
"150 62 OFFCURVE",
"147 68 OFFCURVE",
"147 84 CURVE SMOOTH",
"147 104 OFFCURVE",
"201 427 OFFCURVE",
"205 451 CURVE",
"180 476 LINE",
"38 445 LINE",
"43 412 LINE",
"83 412 OFFCURVE",
"106 409 OFFCURVE",
"106 379 CURVE SMOOTH"
);
}
);
width = 271;
},
{
layerId = "C58AFD15-F6AF-4274-A800-842D1A888C52";
paths = (
{
closed = 1;
nodes = (
"269 45 OFFCURVE",
"246 57 OFFCURVE",
"234 66 CURVE",
"234 483 LINE",
"217 492 LINE",
"179 481 OFFCURVE",
"76 466 OFFCURVE",
"34 458 CURVE",
"31 419 LINE",
"77 417 OFFCURVE",
"93 403 OFFCURVE",
"93 354 CURVE SMOOTH",
"93 66 LINE",
"77 51 OFFCURVE",
"65 46 OFFCURVE",
"41 41 CURVE",
"37 0 LINE",
"294 0 LINE",
"298 39 LINE"
);
}
);
width = 314;
},
{
layerId = "E8623A4A-BA36-4417-942F-5A3A2106E744";
paths = (
{
closed = 1;
nodes = (
"69 116 OFFCURVE",
"67 97 OFFCURVE",
"67 81 CURVE SMOOTH",
"67 27 OFFCURVE",
"87 -6 OFFCURVE",
"150 -6 CURVE SMOOTH",
"197 -6 OFFCURVE",
"264 22 OFFCURVE",
"290 48 CURVE",
"277 84 LINE",
"259 74 OFFCURVE",
"243 68 OFFCURVE",
"231 68 CURVE SMOOTH",
"217 68 OFFCURVE",
"208 76 OFFCURVE",
"208 93 CURVE SMOOTH",
"208 102 OFFCURVE",
"211 117 OFFCURVE",
"212 123 CURVE SMOOTH",
"266 470 LINE",
"230 492 LINE",
"45 466 LINE",
"51 422 LINE",
"85 420 OFFCURVE",
"109 408 OFFCURVE",
"109 376 CURVE SMOOTH",
"109 369 OFFCURVE",
"108 362 OFFCURVE",
"107 354 CURVE SMOOTH",
"72 136 LINE SMOOTH"
);
}
);
width = 302;
}
);
unicode = 0131;
userData = {
com.typemytype.robofont.layerData = {
};
};
},
{
glyphname = i;
lastChange = "2019-08-11 12:29:22 +0000";
layers = (
{
layerId = master01;
paths = (
{
closed = 1;
nodes = (
"83 46 OFFCURVE",
"67 41 OFFCURVE",
"38 36 CURVE",
"34 0 LINE",
"255 0 LINE",
"259 34 LINE",
"230 40 OFFCURVE",
"206 49 OFFCURVE",
"189 61 CURVE",
"189 468 LINE",
"169 479 LINE",
"129 467 OFFCURVE",
"82 452 OFFCURVE",
"37 444 CURVE",
"34 415 LINE",
"85 413 OFFCURVE",
"104 399 OFFCURVE",
"104 349 CURVE SMOOTH",
"104 61 LINE"
);
},
{
closed = 1;
nodes = (
"176 540 OFFCURVE",
"194 561 OFFCURVE",
"194 598 CURVE SMOOTH",
"194 635 OFFCURVE",
"176 656 OFFCURVE",
"141 656 CURVE SMOOTH",
"105 656 OFFCURVE",
"89 635 OFFCURVE",
"89 598 CURVE SMOOTH",
"89 561 OFFCURVE",
"105 540 OFFCURVE",
"141 540 CURVE SMOOTH"
);
}
);
width = 278;
},
{
layerId = "3A3DE108-C793-40C5-98B7-5D5D6E88ABCD";
paths = (
{
closed = 1;
nodes = (
"106 367 OFFCURVE",
"56 74 OFFCURVE",
"56 45 CURVE SMOOTH",
"56 16 OFFCURVE",
"62 -7 OFFCURVE",
"112 -7 CURVE SMOOTH",
"152 -7 OFFCURVE",
"205 30 OFFCURVE",
"227 49 CURVE",
"217 81 LINE",
"212 78 OFFCURVE",
"183 62 OFFCURVE",
"166 62 CURVE SMOOTH",
"150 62 OFFCURVE",
"147 68 OFFCURVE",
"147 84 CURVE SMOOTH",
"147 104 OFFCURVE",
"201 427 OFFCURVE",
"205 451 CURVE",
"180 476 LINE",
"38 445 LINE",
"43 412 LINE",
"83 412 OFFCURVE",
"106 409 OFFCURVE",
"106 379 CURVE SMOOTH"
);
},
{
closed = 1;
nodes = (
"205 540 OFFCURVE",
"229 567 OFFCURVE",
"229 611 CURVE SMOOTH",
"229 638 OFFCURVE",
"212 656 OFFCURVE",
"183 656 CURVE SMOOTH",
"147 656 OFFCURVE",
"123 629 OFFCURVE",
"123 585 CURVE SMOOTH",
"123 557 OFFCURVE",
"140 540 OFFCURVE",
"169 540 CURVE SMOOTH"
);
}
);
width = 271;
},
{
layerId = "C58AFD15-F6AF-4274-A800-842D1A888C52";
paths = (
{
closed = 1;
nodes = (
"269 45 OFFCURVE",
"246 57 OFFCURVE",
"234 66 CURVE",
"234 483 LINE",
"217 492 LINE",
"179 481 OFFCURVE",
"76 466 OFFCURVE",
"34 458 CURVE",
"31 419 LINE",
"77 417 OFFCURVE",
"93 403 OFFCURVE",
"93 354 CURVE SMOOTH",
"93 66 LINE",
"77 51 OFFCURVE",
"65 46 OFFCURVE",
"41 41 CURVE",
"37 0 LINE",
"294 0 LINE",
"298 39 LINE"
);
},
{
closed = 1;
nodes = (
"219 550 OFFCURVE",
"245 576 OFFCURVE",
"245 620 CURVE SMOOTH",
"245 665 OFFCURVE",
"219 690 OFFCURVE",
"166 690 CURVE SMOOTH",
"112 690 OFFCURVE",
"86 665 OFFCURVE",
"86 620 CURVE SMOOTH",
"86 576 OFFCURVE",
"112 550 OFFCURVE",
"166 550 CURVE SMOOTH"
);
}
);
width = 314;
},
{
layerId = "E8623A4A-BA36-4417-942F-5A3A2106E744";
paths = (
{
closed = 1;
nodes = (
"67 116 OFFCURVE",
"65 97 OFFCURVE",
"65 81 CURVE SMOOTH",
"65 27 OFFCURVE",
"85 -6 OFFCURVE",
"148 -6 CURVE SMOOTH",
"195 -6 OFFCURVE",
"262 22 OFFCURVE",
"288 48 CURVE",
"275 84 LINE",
"257 74 OFFCURVE",
"241 68 OFFCURVE",
"229 68 CURVE SMOOTH",
"215 68 OFFCURVE",
"206 76 OFFCURVE",
"206 93 CURVE SMOOTH",
"206 102 OFFCURVE",
"209 117 OFFCURVE",
"210 123 CURVE SMOOTH",
"264 470 LINE",
"228 492 LINE",
"43 466 LINE",
"49 422 LINE",
"83 420 OFFCURVE",
"107 408 OFFCURVE",
"107 376 CURVE SMOOTH",
"107 369 OFFCURVE",
"106 362 OFFCURVE",
"105 354 CURVE SMOOTH",
"70 136 LINE SMOOTH"
);
},
{
closed = 1;
nodes = (
"256 550 OFFCURVE",
"289 581 OFFCURVE",
"289 634 CURVE SMOOTH",
"289 667 OFFCURVE",
"264 690 OFFCURVE",
"224 690 CURVE SMOOTH",
"174 690 OFFCURVE",
"141 659 OFFCURVE",
"141 606 CURVE SMOOTH",
"141 572 OFFCURVE",
"166 550 OFFCURVE",
"206 550 CURVE SMOOTH"
);
}
);
width = 302;
}
);
unicode = 0069;
userData = {
com.typemytype.robofont.layerData = {
};
};
},
{
glyphname = dotlessj;
lastChange = "2019-08-11 12:29:22 +0000";
layers = (
{
layerId = master01;
paths = (
{
closed = 1;
nodes = (
"85 413 OFFCURVE",
"104 399 OFFCURVE",
"104 349 CURVE SMOOTH",
"104 73 LINE SMOOTH",
"104 -16 OFFCURVE",
"116 -38 OFFCURVE",
"116 -108 CURVE SMOOTH",
"116 -144 OFFCURVE",
"107 -173 OFFCURVE",
"76 -173 CURVE SMOOTH",
"52 -173 OFFCURVE",
"39 -156 OFFCURVE",
"39 -137 CURVE SMOOTH",
"39 -124 OFFCURVE",
"45 -111 OFFCURVE",
"54 -104 CURVE",
"46 -91 OFFCURVE",
"32 -84 OFFCURVE",
"15 -84 CURVE SMOOTH",
"-14 -84 OFFCURVE",
"-33 -110 OFFCURVE",
"-33 -139 CURVE SMOOTH",
"-33 -196 OFFCURVE",
"18 -216 OFFCURVE",
"75 -216 CURVE SMOOTH",
"173 -216 OFFCURVE",
"189 -124 OFFCURVE",
"189 -33 CURVE SMOOTH",
"189 468 LINE",
"170 479 LINE",
"129 466 OFFCURVE",
"82 452 OFFCURVE",
"37 444 CURVE",
"34 415 LINE"
);
}
);
width = 266;
},
{
layerId = "3A3DE108-C793-40C5-98B7-5D5D6E88ABCD";
paths = (
{
closed = 1;
nodes = (
"95 -219 OFFCURVE",
"119 -64 OFFCURVE",
"137 48 CURVE SMOOTH",
"203 450 LINE",
"177 476 LINE",
"38 445 LINE",
"43 412 LINE",
"76 412 OFFCURVE",
"106 412 OFFCURVE",
"106 379 CURVE SMOOTH",
"106 374 OFFCURVE",
"101 347 OFFCURVE",
"98 329 CURVE SMOOTH",
"57 70 LINE SMOOTH",
"40 -40 OFFCURVE",
"46 -171 OFFCURVE",
"-27 -171 CURVE SMOOTH",
"-46 -171 OFFCURVE",
"-55 -158 OFFCURVE",
"-55 -143 CURVE SMOOTH",
"-55 -131 OFFCURVE",
"-49 -118 OFFCURVE",
"-38 -112 CURVE",
"-42 -88 OFFCURVE",
"-63 -76 OFFCURVE",
"-85 -76 CURVE SMOOTH",
"-113 -76 OFFCURVE",
"-145 -97 OFFCURVE",
"-145 -140 CURVE SMOOTH",
"-145 -189 OFFCURVE",
"-104 -219 OFFCURVE",
"-46 -219 CURVE SMOOTH"
);
}
);
width = 266;
},
{
layerId = "C58AFD15-F6AF-4274-A800-842D1A888C52";
paths = (
{
closed = 1;
nodes = (
"70 417 OFFCURVE",
"86 403 OFFCURVE",
"86 354 CURVE SMOOTH",
"86 62 LINE SMOOTH",
"86 -18 OFFCURVE",
"98 -41 OFFCURVE",
"98 -108 CURVE SMOOTH",
"98 -141 OFFCURVE",
"85 -168 OFFCURVE",
"66 -168 CURVE SMOOTH",
"51 -168 OFFCURVE",
"42 -153 OFFCURVE",
"42 -137 CURVE SMOOTH",
"42 -121 OFFCURVE",
"48 -106 OFFCURVE",
"57 -97 CURVE",
"46 -80 OFFCURVE",
"28 -72 OFFCURVE",
"11 -72 CURVE SMOOTH",
"-26 -72 OFFCURVE",
"-52 -97 OFFCURVE",
"-52 -134 CURVE SMOOTH",
"-52 -190 OFFCURVE",
"9 -218 OFFCURVE",
"72 -218 CURVE SMOOTH",
"123 -218 OFFCURVE",
"177 -200 OFFCURVE",
"201 -161 CURVE SMOOTH",
"222 -126 OFFCURVE",
"227 -80 OFFCURVE",
"227 -33 CURVE SMOOTH",
"227 483 LINE",
"210 492 LINE",
"172 481 OFFCURVE",
"69 466 OFFCURVE",
"27 458 CURVE",
"24 419 LINE"
);
}
);
width = 302;
},
{
layerId = "E8623A4A-BA36-4417-942F-5A3A2106E744";
paths = (
{
closed = 1;
nodes = (
"232 492 LINE",
"47 466 LINE",
"53 422 LINE",
"87 420 OFFCURVE",
"111 408 OFFCURVE",
"111 376 CURVE SMOOTH",
"111 369 OFFCURVE",
"110 362 OFFCURVE",
"109 354 CURVE SMOOTH",
"63 62 LINE SMOOTH",
"48 -31 OFFCURVE",
"63 -168 OFFCURVE",
"6 -168 CURVE SMOOTH",
"-7 -168 OFFCURVE",
"-13 -156 OFFCURVE",
"-13 -142 CURVE SMOOTH",
"-13 -126 OFFCURVE",
"-4 -108 OFFCURVE",
"9 -97 CURVE",
"0 -80 OFFCURVE",
"-16 -72 OFFCURVE",
"-33 -72 CURVE SMOOTH",
"-75 -72 OFFCURVE",
"-107 -102 OFFCURVE",
"-107 -143 CURVE SMOOTH",
"-107 -193 OFFCURVE",
"-54 -218 OFFCURVE",
"4 -218 CURVE SMOOTH",
"54 -218 OFFCURVE",
"113 -200 OFFCURVE",
"143 -161 CURVE SMOOTH",
"169 -127 OFFCURVE",
"182 -80 OFFCURVE",
"189 -33 CURVE SMOOTH",
"268 470 LINE"
);
}
);
width = 297;
}
);
unicode = 0237;
userData = {
com.typemytype.robofont.layerData = {
};
};
},
{
glyphname = j;
lastChange = "2019-08-11 12:29:22 +0000";
layers = (
{
layerId = master01;
paths = (
{
closed = 1;
nodes = (
"85 413 OFFCURVE",
"104 399 OFFCURVE",
"104 349 CURVE SMOOTH",
"104 73 LINE SMOOTH",
"104 -16 OFFCURVE",
"116 -38 OFFCURVE",
"116 -108 CURVE SMOOTH",
"116 -144 OFFCURVE",
"107 -173 OFFCURVE",
"76 -173 CURVE SMOOTH",
"52 -173 OFFCURVE",
"39 -156 OFFCURVE",
"39 -137 CURVE SMOOTH",
"39 -124 OFFCURVE",
"45 -111 OFFCURVE",
"54 -104 CURVE",
"46 -91 OFFCURVE",
"32 -84 OFFCURVE",
"15 -84 CURVE SMOOTH",
"-14 -84 OFFCURVE",
"-33 -110 OFFCURVE",
"-33 -139 CURVE SMOOTH",
"-33 -196 OFFCURVE",
"18 -216 OFFCURVE",
"75 -216 CURVE SMOOTH",
"173 -216 OFFCURVE",
"189 -124 OFFCURVE",
"189 -33 CURVE SMOOTH",
"189 468 LINE",
"170 479 LINE",
"129 466 OFFCURVE",
"82 452 OFFCURVE",
"37 444 CURVE",
"34 415 LINE"
);
},
{
closed = 1;
nodes = (
"177 540 OFFCURVE",
"195 561 OFFCURVE",
"195 598 CURVE SMOOTH",
"195 635 OFFCURVE",
"177 656 OFFCURVE",
"142 656 CURVE SMOOTH",
"106 656 OFFCURVE",
"90 635 OFFCURVE",
"90 598 CURVE SMOOTH",
"90 561 OFFCURVE",
"106 540 OFFCURVE",
"142 540 CURVE SMOOTH"
);
}
);
width = 266;
},
{
layerId = "3A3DE108-C793-40C5-98B7-5D5D6E88ABCD";
paths = (
{
closed = 1;
nodes = (
"95 -219 OFFCURVE",
"119 -64 OFFCURVE",
"137 48 CURVE SMOOTH",
"203 450 LINE",
"177 476 LINE",
"38 445 LINE",
"43 412 LINE",
"76 412 OFFCURVE",
"106 412 OFFCURVE",
"106 379 CURVE SMOOTH",
"106 374 OFFCURVE",
"101 347 OFFCURVE",
"98 329 CURVE SMOOTH",
"57 70 LINE SMOOTH",
"40 -40 OFFCURVE",
"46 -171 OFFCURVE",
"-27 -171 CURVE SMOOTH",
"-46 -171 OFFCURVE",
"-55 -158 OFFCURVE",
"-55 -143 CURVE SMOOTH",
"-55 -131 OFFCURVE",
"-49 -118 OFFCURVE",
"-38 -112 CURVE",
"-42 -88 OFFCURVE",
"-63 -76 OFFCURVE",
"-85 -76 CURVE SMOOTH",
"-113 -76 OFFCURVE",
"-145 -97 OFFCURVE",
"-145 -140 CURVE SMOOTH",
"-145 -189 OFFCURVE",
"-104 -219 OFFCURVE",
"-46 -219 CURVE SMOOTH"
);
},
{
closed = 1;
nodes = (
"203 540 OFFCURVE",
"227 567 OFFCURVE",
"227 611 CURVE SMOOTH",
"227 638 OFFCURVE",
"210 656 OFFCURVE",
"181 656 CURVE SMOOTH",
"145 656 OFFCURVE",
"121 629 OFFCURVE",
"121 585 CURVE SMOOTH",
"121 557 OFFCURVE",
"138 540 OFFCURVE",
"167 540 CURVE SMOOTH"
);
}
);
width = 266;
},
{
layerId = "C58AFD15-F6AF-4274-A800-842D1A888C52";
paths = (
{
closed = 1;
nodes = (
"70 417 OFFCURVE",
"86 403 OFFCURVE",
"86 354 CURVE SMOOTH",
"86 62 LINE SMOOTH",
"86 -18 OFFCURVE",
"98 -41 OFFCURVE",
"98 -108 CURVE SMOOTH",
"98 -141 OFFCURVE",
"85 -168 OFFCURVE",
"66 -168 CURVE SMOOTH",
"51 -168 OFFCURVE",
"42 -153 OFFCURVE",
"42 -137 CURVE SMOOTH",
"42 -121 OFFCURVE",
"48 -106 OFFCURVE",
"57 -97 CURVE",
"46 -80 OFFCURVE",
"28 -72 OFFCURVE",
"11 -72 CURVE SMOOTH",
"-26 -72 OFFCURVE",
"-52 -97 OFFCURVE",
"-52 -134 CURVE SMOOTH",
"-52 -190 OFFCURVE",
"9 -218 OFFCURVE",
"72 -218 CURVE SMOOTH",
"123 -218 OFFCURVE",
"177 -200 OFFCURVE",
"201 -161 CURVE SMOOTH",
"222 -126 OFFCURVE",
"227 -80 OFFCURVE",
"227 -33 CURVE SMOOTH",
"227 483 LINE",
"210 492 LINE",
"172 481 OFFCURVE",
"69 466 OFFCURVE",
"27 458 CURVE",
"24 419 LINE"
);
},
{
closed = 1;
nodes = (
"212 550 OFFCURVE",
"238 576 OFFCURVE",
"238 620 CURVE SMOOTH",
"238 665 OFFCURVE",
"212 690 OFFCURVE",
"159 690 CURVE SMOOTH",
"105 690 OFFCURVE",
"79 665 OFFCURVE",
"79 620 CURVE SMOOTH",
"79 576 OFFCURVE",
"105 550 OFFCURVE",
"159 550 CURVE SMOOTH"
);
}
);
width = 302;
},
{
layerId = "E8623A4A-BA36-4417-942F-5A3A2106E744";
paths = (
{
closed = 1;
nodes = (
"260 550 OFFCURVE",
"293 581 OFFCURVE",
"293 634 CURVE SMOOTH",
"293 667 OFFCURVE",
"268 690 OFFCURVE",
"228 690 CURVE SMOOTH",
"178 690 OFFCURVE",
"145 659 OFFCURVE",
"145 606 CURVE SMOOTH",
"145 572 OFFCURVE",
"170 550 OFFCURVE",
"210 550 CURVE SMOOTH"
);
},
{
closed = 1;
nodes = (
"232 492 LINE",
"47 466 LINE",
"53 422 LINE",
"87 420 OFFCURVE",
"111 408 OFFCURVE",
"111 376 CURVE SMOOTH",
"111 369 OFFCURVE",
"110 362 OFFCURVE",
"109 354 CURVE SMOOTH",
"63 62 LINE SMOOTH",
"48 -31 OFFCURVE",
"63 -168 OFFCURVE",
"6 -168 CURVE SMOOTH",
"-7 -168 OFFCURVE",
"-13 -156 OFFCURVE",
"-13 -142 CURVE SMOOTH",
"-13 -126 OFFCURVE",
"-4 -108 OFFCURVE",
"9 -97 CURVE",
"0 -80 OFFCURVE",
"-16 -72 OFFCURVE",
"-33 -72 CURVE SMOOTH",
"-75 -72 OFFCURVE",
"-107 -102 OFFCURVE",
"-107 -143 CURVE SMOOTH",
"-107 -193 OFFCURVE",
"-54 -218 OFFCURVE",
"4 -218 CURVE SMOOTH",
"54 -218 OFFCURVE",
"113 -200 OFFCURVE",
"143 -161 CURVE SMOOTH",
"169 -127 OFFCURVE",
"182 -80 OFFCURVE",
"189 -33 CURVE SMOOTH",
"268 470 LINE"
);
}
);
width = 297;
}
);
unicode = 006A;
userData = {
com.typemytype.robofont.layerData = {
};
};
},
{
glyphname = k;
lastChange = "2019-08-11 12:29:22 +0000";
layers = (
{
layerId = master01;
paths = (
{
closed = 1;
nodes = (
"489 40 OFFCURVE",
"456 50 OFFCURVE",
"433 63 CURVE",
"283 302 LINE",
"375 394 LINE SMOOTH",
"406 424 OFFCURVE",
"444 435 OFFCURVE",
"485 437 CURVE",
"482 467 LINE",
"349 467 LINE",
"346 454 OFFCURVE",
"339 435 OFFCURVE",
"316 411 CURVE SMOOTH",
"179 273 LINE",
"179 687 LINE",
"160 697 LINE",
"119 685 OFFCURVE",
"72 670 OFFCURVE",
"27 663 CURVE",
"24 633 LINE",
"75 631 OFFCURVE",
"94 617 OFFCURVE",
"94 567 CURVE SMOOTH",
"94 62 LINE",
"74 46 OFFCURVE",
"58 41 OFFCURVE",
"28 37 CURVE",
"24 0 LINE",
"245 0 LINE",
"249 35 LINE",
"220 40 OFFCURVE",
"196 49 OFFCURVE",
"179 62 CURVE",
"179 199 LINE",
"225 244 LINE",
"378 0 LINE",
"521 0 LINE",
"525 35 LINE"
);
}
);
width = 524;
},
{
layerId = "3A3DE108-C793-40C5-98B7-5D5D6E88ABCD";
paths = (
{
closed = 1;
nodes = (
"123 0 LINE",
"156 211 LINE",
"179 219 OFFCURVE",
"201 228 OFFCURVE",
"221 237 CURVE",
"311 45 LINE SMOOTH",
"324 16 OFFCURVE",
"334 -7 OFFCURVE",
"367 -7 CURVE SMOOTH",
"407 -7 OFFCURVE",
"449 30 OFFCURVE",
"471 49 CURVE",
"461 81 LINE",
"456 78 OFFCURVE",
"427 62 OFFCURVE",
"410 62 CURVE SMOOTH",
"394 62 OFFCURVE",
"391 74 OFFCURVE",
"385 86 CURVE SMOOTH",
"289 271 LINE",
"450 361 OFFCURVE",
"453 448 OFFCURVE",
"453 451 CURVE",
"428 476 LINE",
"312 451 LINE",
"316 423 LINE",
"330 422 OFFCURVE",
"339 414 OFFCURVE",
"339 401 CURVE SMOOTH",
"339 371 OFFCURVE",
"293 316 OFFCURVE",
"165 265 CURVE",
"230 672 LINE",
"205 697 LINE",
"60 686 LINE",
"55 653 LINE",
"95 649 OFFCURVE",
"132 639 OFFCURVE",
"132 603 CURVE SMOOTH",
"132 596 OFFCURVE",
"124 543 OFFCURVE",
"112 470 CURVE SMOOTH",
"37 0 LINE"
);
}
);
width = 497;
},
{
layerId = "C58AFD15-F6AF-4274-A800-842D1A888C52";
paths = (
{
closed = 1;
nodes = (
"73 622 OFFCURVE",
"89 608 OFFCURVE",
"89 558 CURVE SMOOTH",
"89 66 LINE",
"74 51 OFFCURVE",
"61 46 OFFCURVE",
"37 41 CURVE",
"33 0 LINE",
"291 0 LINE",
"294 39 LINE",
"265 45 OFFCURVE",
"242 57 OFFCURVE",
"231 66 CURVE",
"231 165 LINE",
"285 219 LINE",
"387 58 LINE SMOOTH",
"399 38 OFFCURVE",
"404 23 OFFCURVE",
"405 0 CURVE",
"593 0 LINE",
"600 41 LINE",
"570 47 OFFCURVE",
"547 59 OFFCURVE",
"529 76 CURVE",
"378 312 LINE",
"473 406 LINE",
"501 438 OFFCURVE",
"541 444 OFFCURVE",
"561 445 CURVE",
"569 484 LINE",
"336 484 LINE",
"328 445 LINE",
"350 445 OFFCURVE",
"379 439 OFFCURVE",
"379 416 CURVE SMOOTH",
"379 410 OFFCURVE",
"376 404 OFFCURVE",
"371 398 CURVE",
"231 263 LINE",
"231 687 LINE",
"213 697 LINE",
"175 686 OFFCURVE",
"72 671 OFFCURVE",
"30 663 CURVE",
"27 624 LINE"
);
}
);
width = 592;
},
{
layerId = "E8623A4A-BA36-4417-942F-5A3A2106E744";
paths = (
{
closed = 1;
nodes = (
"251 693 LINE",
"62 675 LINE",
"56 635 LINE",
"90 635 OFFCURVE",
"122 625 OFFCURVE",
"122 587 CURVE SMOOTH",
"122 574 OFFCURVE",
"109 499 OFFCURVE",
"108 491 CURVE SMOOTH",
"29 -3 LINE",
"170 -3 LINE",
"203 207 LINE",
"205 209 OFFCURVE",
"232 217 OFFCURVE",
"246 224 CURVE",
"321 59 LINE SMOOTH",
"340 17 OFFCURVE",
"368 2 OFFCURVE",
"398 2 CURVE SMOOTH",
"445 2 OFFCURVE",
"497 38 OFFCURVE",
"534 67 CURVE",
"518 100 LINE",
"506 93 OFFCURVE",
"487 84 OFFCURVE",
"470 84 CURVE SMOOTH",
"457 84 OFFCURVE",
"445 90 OFFCURVE",
"438 106 CURVE SMOOTH",
"357 281 LINE",
"438 332 OFFCURVE",
"509 399 OFFCURVE",
"521 470 CURVE",
"485 492 LINE",
"360 478 LINE",
"365 442 LINE",
"387 440 OFFCURVE",
"398 426 OFFCURVE",
"398 412 CURVE SMOOTH",
"398 355 OFFCURVE",
"264 297 OFFCURVE",
"214 278 CURVE",
"276 669 LINE"
);
}
);
width = 538;
}
);
unicode = 006B;
userData = {
com.typemytype.robofont.layerData = {
};
};
},
{
glyphname = l;
lastChange = "2019-08-11 12:29:22 +0000";
layers = (
{
layerId = master01;
paths = (
{
closed = 1;
nodes = (
"219 40 OFFCURVE",
"195 49 OFFCURVE",
"178 62 CURVE",
"178 687 LINE",
"159 697 LINE",
"118 685 OFFCURVE",
"71 670 OFFCURVE",
"26 663 CURVE",
"23 633 LINE",
"75 631 OFFCURVE",
"93 617 OFFCURVE",
"93 567 CURVE SMOOTH",
"93 62 LINE",
"73 46 OFFCURVE",
"57 41 OFFCURVE",
"27 37 CURVE",
"23 0 LINE",
"244 0 LINE",
"248 35 LINE"
);
}
);
width = 271;
},
{
layerId = "3A3DE108-C793-40C5-98B7-5D5D6E88ABCD";
paths = (
{
closed = 1;
nodes = (
"131 104 OFFCURVE",
"214 608 OFFCURVE",
"225 682 CURVE",
"200 707 LINE",
"55 696 LINE",
"50 663 LINE",
"90 659 OFFCURVE",
"127 649 OFFCURVE",
"127 613 CURVE SMOOTH",
"127 606 OFFCURVE",
"119 553 OFFCURVE",
"107 480 CURVE",
"107 480 OFFCURVE",
"41 83 OFFCURVE",
"41 45 CURVE SMOOTH",
"41 16 OFFCURVE",
"47 -7 OFFCURVE",
"97 -7 CURVE SMOOTH",
"138 -7 OFFCURVE",
"190 30 OFFCURVE",
"212 49 CURVE",
"202 81 LINE",
"197 78 OFFCURVE",
"168 62 OFFCURVE",
"151 62 CURVE SMOOTH",
"135 62 OFFCURVE",
"131 68 OFFCURVE",
"131 84 CURVE SMOOTH"
);
}
);
width = 267;
},
{
layerId = "C58AFD15-F6AF-4274-A800-842D1A888C52";
paths = (
{
closed = 1;
nodes = (
"259 45 OFFCURVE",
"236 57 OFFCURVE",
"225 66 CURVE",
"225 687 LINE",
"207 697 LINE",
"169 686 OFFCURVE",
"66 671 OFFCURVE",
"24 663 CURVE",
"21 624 LINE",
"67 622 OFFCURVE",
"83 608 OFFCURVE",
"83 558 CURVE SMOOTH",
"83 66 LINE",
"67 51 OFFCURVE",
"55 46 OFFCURVE",
"31 41 CURVE",
"27 0 LINE",
"285 0 LINE",
"288 39 LINE"
);
}
);
width = 308;
},
{
layerId = "E8623A4A-BA36-4417-942F-5A3A2106E744";
paths = (
{
closed = 1;
nodes = (
"268 696 LINE",
"79 678 LINE",
"73 638 LINE",
"107 638 OFFCURVE",
"139 628 OFFCURVE",
"139 590 CURVE SMOOTH",
"139 577 OFFCURVE",
"126 502 OFFCURVE",
"125 494 CURVE SMOOTH",
"68 136 LINE SMOOTH",
"65 113 OFFCURVE",
"63 95 OFFCURVE",
"63 81 CURVE SMOOTH",
"63 21 OFFCURVE",
"89 -6 OFFCURVE",
"146 -6 CURVE SMOOTH",
"190 -6 OFFCURVE",
"258 20 OFFCURVE",
"286 48 CURVE",
"273 84 LINE",
"254 73 OFFCURVE",
"238 68 OFFCURVE",
"227 68 CURVE SMOOTH",
"212 68 OFFCURVE",
"204 77 OFFCURVE",
"204 93 CURVE SMOOTH",
"204 96 OFFCURVE",
"206 113 OFFCURVE",
"208 122 CURVE",
"293 672 LINE"
);
}
);
width = 297;
}
);
unicode = 006C;
userData = {
com.typemytype.robofont.layerData = {
};
};
},
{
glyphname = m;
lastChange = "2019-08-11 12:29:22 +0000";
layers = (
{
layerId = master01;
paths = (
{
closed = 1;
nodes = (
"240 40 OFFCURVE",
"216 49 OFFCURVE",
"200 62 CURVE",
"200 350 LINE",
"212 385 OFFCURVE",
"257 428 OFFCURVE",
"307 428 CURVE SMOOTH",
"359 428 OFFCURVE",
"386 398 OFFCURVE",
"386 329 CURVE SMOOTH",
"386 62 LINE",
"367 47 OFFCURVE",
"345 38 OFFCURVE",
"320 34 CURVE",
"317 0 LINE",
"537 0 LINE",
"541 34 LINE",
"512 40 OFFCURVE",
"483 52 OFFCURVE",
"471 62 CURVE",
"471 361 LINE",
"488 393 OFFCURVE",
"528 428 OFFCURVE",
"573 428 CURVE SMOOTH",
"626 428 OFFCURVE",
"652 398 OFFCURVE",
"652 329 CURVE SMOOTH",
"652 62 LINE",
"633 47 OFFCURVE",
"611 38 OFFCURVE",
"586 34 CURVE",
"584 0 LINE",
"803 0 LINE",
"807 34 LINE",
"778 40 OFFCURVE",
"750 52 OFFCURVE",
"737 62 CURVE",
"737 326 LINE SMOOTH",
"737 436 OFFCURVE",
"664 476 OFFCURVE",
"582 476 CURVE SMOOTH",
"526 476 OFFCURVE",
"483 445 OFFCURVE",
"449 414 CURVE",
"422 456 OFFCURVE",
"378 476 OFFCURVE",
"317 476 CURVE SMOOTH",
"248 476 OFFCURVE",
"202 423 OFFCURVE",
"195 415 CURVE",
"188 467 LINE",
"170 476 LINE",
"132 465 OFFCURVE",
"90 450 OFFCURVE",
"47 442 CURVE",
"44 413 LINE",
"96 411 OFFCURVE",
"114 397 OFFCURVE",
"114 347 CURVE SMOOTH",
"114 62 LINE",
"94 46 OFFCURVE",
"78 41 OFFCURVE",
"48 36 CURVE",
"44 0 LINE",
"265 0 LINE",
"269 34 LINE"
);
}
);
width = 832;
},
{
layerId = "3A3DE108-C793-40C5-98B7-5D5D6E88ABCD";
paths = (
{
closed = 1;
nodes = (
"105 369 OFFCURVE",
"46 0 OFFCURVE",
"46 0 CURVE",
"131 0 LINE",
"157 163 LINE SMOOTH",
"176 283 OFFCURVE",
"233 421 OFFCURVE",
"317 421 CURVE SMOOTH",
"347 421 OFFCURVE",
"370 399 OFFCURVE",
"370 353 CURVE SMOOTH",
"370 319 OFFCURVE",
"324 63 OFFCURVE",
"315 0 CURVE",
"400 0 LINE",
"419 143 OFFCURVE",
"453 421 OFFCURVE",
"585 421 CURVE SMOOTH",
"615 421 OFFCURVE",
"638 399 OFFCURVE",
"638 353 CURVE SMOOTH",
"638 319 OFFCURVE",
"590 76 OFFCURVE",
"590 45 CURVE SMOOTH",
"590 16 OFFCURVE",
"597 -7 OFFCURVE",
"646 -7 CURVE SMOOTH",
"687 -7 OFFCURVE",
"739 30 OFFCURVE",
"761 49 CURVE",
"751 81 LINE",
"746 78 OFFCURVE",
"717 62 OFFCURVE",
"700 62 CURVE SMOOTH",
"687 62 OFFCURVE",
"680 66 OFFCURVE",
"680 77 CURVE SMOOTH",
"680 79 OFFCURVE",
"682 92 OFFCURVE",
"685 107 CURVE SMOOTH",
"722 329 LINE SMOOTH",
"726 352 OFFCURVE",
"726 360 OFFCURVE",
"726 369 CURVE SMOOTH",
"726 437 OFFCURVE",
"685 476 OFFCURVE",
"613 476 CURVE SMOOTH",
"540 476 OFFCURVE",
"489 417 OFFCURVE",
"458 364 CURVE",
"458 435 OFFCURVE",
"420 476 OFFCURVE",
"345 476 CURVE SMOOTH",
"269 476 OFFCURVE",
"217 413 OFFCURVE",
"187 359 CURVE",
"197 451 LINE",
"172 476 LINE",
"36 445 LINE",
"41 412 LINE",
"81 412 OFFCURVE",
"105 409 OFFCURVE",
"105 379 CURVE SMOOTH"
);
}
);
width = 799;
},
{
layerId = "C58AFD15-F6AF-4274-A800-842D1A888C52";
paths = (
{
closed = 1;
nodes = (
"555 45 OFFCURVE",
"535 54 OFFCURVE",
"520 66 CURVE",
"520 338 LINE SMOOTH",
"520 347 OFFCURVE",
"519 356 OFFCURVE",
"518 365 CURVE",
"536 401 OFFCURVE",
"572 425 OFFCURVE",
"608 425 CURVE SMOOTH",
"649 425 OFFCURVE",
"669 394 OFFCURVE",
"669 329 CURVE SMOOTH",
"669 66 LINE",
"655 52 OFFCURVE",
"638 43 OFFCURVE",
"620 39 CURVE",
"617 0 LINE",
"870 0 LINE",
"874 39 LINE",
"845 45 OFFCURVE",
"822 57 OFFCURVE",
"810 66 CURVE",
"810 338 LINE SMOOTH",
"810 435 OFFCURVE",
"750 492 OFFCURVE",
"660 492 CURVE SMOOTH",
"593 492 OFFCURVE",
"539 460 OFFCURVE",
"506 410 CURVE",
"483 462 OFFCURVE",
"434 492 OFFCURVE",
"370 492 CURVE SMOOTH",
"310 492 OFFCURVE",
"261 466 OFFCURVE",
"227 425 CURVE",
"219 483 LINE",
"201 492 LINE",
"163 481 OFFCURVE",
"73 466 OFFCURVE",
"30 458 CURVE",
"27 419 LINE",
"73 417 OFFCURVE",
"90 403 OFFCURVE",
"90 354 CURVE SMOOTH",
"90 66 LINE",
"73 51 OFFCURVE",
"62 46 OFFCURVE",
"37 41 CURVE",
"34 0 LINE",
"287 0 LINE",
"291 39 LINE",
"266 45 OFFCURVE",
"246 54 OFFCURVE",
"231 66 CURVE",
"231 370 LINE",
"250 403 OFFCURVE",
"284 425 OFFCURVE",
"318 425 CURVE SMOOTH",
"359 425 OFFCURVE",
"379 394 OFFCURVE",
"379 329 CURVE SMOOTH",
"379 66 LINE",
"365 52 OFFCURVE",
"348 43 OFFCURVE",
"330 39 CURVE",
"327 0 LINE",
"576 0 LINE",
"580 39 LINE"
);
}
);
width = 890;
},
{
layerId = "E8623A4A-BA36-4417-942F-5A3A2106E744";
paths = (
{
closed = 1;
nodes = (
"658 425 OFFCURVE",
"673 404 OFFCURVE",
"673 365 CURVE SMOOTH",
"673 354 OFFCURVE",
"672 342 OFFCURVE",
"670 329 CURVE SMOOTH",
"639 136 LINE SMOOTH",
"636 115 OFFCURVE",
"633 96 OFFCURVE",
"633 80 CURVE SMOOTH",
"633 27 OFFCURVE",
"655 -6 OFFCURVE",
"717 -6 CURVE SMOOTH",
"764 -6 OFFCURVE",
"831 22 OFFCURVE",
"857 48 CURVE",
"844 84 LINE",
"826 74 OFFCURVE",
"810 68 OFFCURVE",
"798 68 CURVE SMOOTH",
"784 68 OFFCURVE",
"776 76 OFFCURVE",
"776 92 CURVE SMOOTH",
"776 98 OFFCURVE",
"778 110 OFFCURVE",
"779 116 CURVE SMOOTH",
"812 331 LINE SMOOTH",
"814 342 OFFCURVE",
"815 359 OFFCURVE",
"815 369 CURVE SMOOTH",
"815 446 OFFCURVE",
"768 492 OFFCURVE",
"688 492 CURVE SMOOTH",
"620 492 OFFCURVE",
"567 456 OFFCURVE",
"526 391 CURVE",
"518 454 OFFCURVE",
"472 492 OFFCURVE",
"400 492 CURVE SMOOTH",
"333 492 OFFCURVE",
"280 457 OFFCURVE",
"239 393 CURVE",
"241 470 LINE",
"205 492 LINE",
"32 466 LINE",
"38 422 LINE",
"70 420 OFFCURVE",
"96 409 OFFCURVE",
"96 376 CURVE SMOOTH",
"96 369 OFFCURVE",
"95 362 OFFCURVE",
"94 354 CURVE SMOOTH",
"37 0 LINE",
"178 0 LINE",
"210 196 LINE SMOOTH",
"228 310 OFFCURVE",
"294 425 OFFCURVE",
"343 425 CURVE SMOOTH",
"370 425 OFFCURVE",
"385 404 OFFCURVE",
"385 365 CURVE SMOOTH",
"385 354 OFFCURVE",
"384 342 OFFCURVE",
"382 329 CURVE SMOOTH",
"328 0 LINE",
"470 0 LINE",
"510 251 LINE",
"537 344 OFFCURVE",
"591 425 OFFCURVE",
"631 425 CURVE SMOOTH"
);
}
);
width = 866;
}
);
unicode = 006D;
userData = {
com.typemytype.robofont.layerData = {
};
};
},
{
glyphname = n;
lastChange = "2019-08-11 12:29:22 +0000";
layers = (
{
layerId = master01;
paths = (
{
closed = 1;
nodes = (
"509 40 OFFCURVE",
"480 52 OFFCURVE",
"468 62 CURVE",
"468 338 LINE SMOOTH",
"468 425 OFFCURVE",
"411 476 OFFCURVE",
"314 476 CURVE SMOOTH",
"263 476 OFFCURVE",
"213 448 OFFCURVE",
"182 405 CURVE",
"173 467 LINE",
"155 476 LINE",
"117 465 OFFCURVE",
"76 450 OFFCURVE",
"33 442 CURVE",
"30 413 LINE",
"81 411 OFFCURVE",
"100 397 OFFCURVE",
"100 347 CURVE SMOOTH",
"100 62 LINE",
"80 46 OFFCURVE",
"63 41 OFFCURVE",
"34 36 CURVE",
"30 0 LINE",
"251 0 LINE",
"255 34 LINE",
"226 40 OFFCURVE",
"202 49 OFFCURVE",
"185 62 CURVE",
"185 344 LINE",
"206 394 OFFCURVE",
"252 428 OFFCURVE",
"297 428 CURVE SMOOTH",
"354 428 OFFCURVE",
"383 396 OFFCURVE",
"383 329 CURVE SMOOTH",
"383 62 LINE",
"364 47 OFFCURVE",
"342 38 OFFCURVE",
"317 34 CURVE",
"314 0 LINE",
"534 0 LINE",
"538 34 LINE"
);
}
);
width = 558;
},
{
layerId = "3A3DE108-C793-40C5-98B7-5D5D6E88ABCD";
paths = (
{
closed = 1;
nodes = (
"176 283 OFFCURVE",
"233 421 OFFCURVE",
"317 421 CURVE SMOOTH",
"347 421 OFFCURVE",
"370 399 OFFCURVE",
"370 353 CURVE SMOOTH",
"370 320 OFFCURVE",
"322 75 OFFCURVE",
"322 45 CURVE SMOOTH",
"322 16 OFFCURVE",
"329 -7 OFFCURVE",
"378 -7 CURVE SMOOTH",
"418 -7 OFFCURVE",
"471 30 OFFCURVE",
"493 49 CURVE",
"483 81 LINE",
"478 78 OFFCURVE",
"449 62 OFFCURVE",
"432 62 CURVE SMOOTH",
"416 62 OFFCURVE",
"413 68 OFFCURVE",
"413 84 CURVE SMOOTH",
"413 100 OFFCURVE",
"439 236 OFFCURVE",
"454 328 CURVE SMOOTH",
"457 348 OFFCURVE",
"458 364 OFFCURVE",
"458 369 CURVE SMOOTH",
"458 437 OFFCURVE",
"417 476 OFFCURVE",
"345 476 CURVE SMOOTH",
"269 476 OFFCURVE",
"217 413 OFFCURVE",
"187 359 CURVE",
"197 451 LINE",
"172 476 LINE",
"36 445 LINE",
"41 412 LINE",
"81 412 OFFCURVE",
"105 409 OFFCURVE",
"105 379 CURVE SMOOTH",
"105 369 OFFCURVE",
"46 0 OFFCURVE",
"46 0 CURVE",
"131 0 LINE",
"157 163 LINE SMOOTH"
);
}
);
width = 535;
},
{
layerId = "C58AFD15-F6AF-4274-A800-842D1A888C52";
paths = (
{
closed = 1;
nodes = (
"558 45 OFFCURVE",
"535 57 OFFCURVE",
"523 66 CURVE",
"523 338 LINE SMOOTH",
"523 435 OFFCURVE",
"463 492 OFFCURVE",
"374 492 CURVE SMOOTH",
"313 492 OFFCURVE",
"262 466 OFFCURVE",
"227 425 CURVE",
"219 483 LINE",
"201 492 LINE",
"163 481 OFFCURVE",
"73 466 OFFCURVE",
"30 458 CURVE",
"27 419 LINE",
"73 417 OFFCURVE",
"90 403 OFFCURVE",
"90 354 CURVE SMOOTH",
"90 66 LINE",
"73 51 OFFCURVE",
"62 46 OFFCURVE",
"37 41 CURVE",
"34 0 LINE",
"287 0 LINE",
"291 39 LINE",
"266 45 OFFCURVE",
"246 54 OFFCURVE",
"231 66 CURVE",
"231 370 LINE",
"250 403 OFFCURVE",
"286 425 OFFCURVE",
"320 425 CURVE SMOOTH",
"362 425 OFFCURVE",
"382 394 OFFCURVE",
"382 329 CURVE SMOOTH",
"382 66 LINE",
"369 52 OFFCURVE",
"352 43 OFFCURVE",
"333 39 CURVE",
"330 0 LINE",
"583 0 LINE",
"587 39 LINE"
);
}
);
width = 604;
},
{
layerId = "E8623A4A-BA36-4417-942F-5A3A2106E744";
paths = (
{
closed = 1;
nodes = (
"206 492 LINE",
"33 466 LINE",
"39 422 LINE",
"71 420 OFFCURVE",
"97 409 OFFCURVE",
"97 376 CURVE SMOOTH",
"97 369 OFFCURVE",
"96 362 OFFCURVE",
"95 354 CURVE SMOOTH",
"38 0 LINE",
"179 0 LINE",
"211 196 LINE SMOOTH",
"229 310 OFFCURVE",
"295 425 OFFCURVE",
"344 425 CURVE SMOOTH",
"371 425 OFFCURVE",
"386 404 OFFCURVE",
"386 365 CURVE SMOOTH",
"386 354 OFFCURVE",
"385 342 OFFCURVE",
"383 329 CURVE SMOOTH",
"352 136 LINE SMOOTH",
"349 116 OFFCURVE",
"347 97 OFFCURVE",
"347 80 CURVE SMOOTH",
"347 27 OFFCURVE",
"367 -6 OFFCURVE",
"430 -6 CURVE SMOOTH",
"477 -6 OFFCURVE",
"544 22 OFFCURVE",
"570 48 CURVE",
"557 84 LINE",
"539 74 OFFCURVE",
"523 68 OFFCURVE",
"511 68 CURVE SMOOTH",
"494 68 OFFCURVE",
"489 80 OFFCURVE",
"489 93 CURVE SMOOTH",
"489 103 OFFCURVE",
"492 114 OFFCURVE",
"493 122 CURVE SMOOTH",
"525 329 LINE SMOOTH",
"527 342 OFFCURVE",
"528 359 OFFCURVE",
"528 369 CURVE SMOOTH",
"528 446 OFFCURVE",
"481 492 OFFCURVE",
"401 492 CURVE SMOOTH",
"334 492 OFFCURVE",
"280 457 OFFCURVE",
"240 392 CURVE",
"242 470 LINE"
);
}
);
width = 585;
}
);
unicode = 006E;
userData = {
com.typemytype.robofont.layerData = {
};
};
},
{
glyphname = o;
lastChange = "2019-08-11 12:29:22 +0000";
layers = (
{
layerId = master01;
paths = (
{
closed = 1;
nodes = (
"143 374 OFFCURVE",
"178 430 OFFCURVE",
"265 430 CURVE SMOOTH",
"352 430 OFFCURVE",
"389 374 OFFCURVE",
"389 235 CURVE SMOOTH",
"389 96 OFFCURVE",
"352 39 OFFCURVE",
"265 39 CURVE SMOOTH",
"178 39 OFFCURVE",
"143 96 OFFCURVE",
"143 235 CURVE SMOOTH"
);
},
{
closed = 1;
nodes = (
"53 78 OFFCURVE",
"125 -7 OFFCURVE",
"265 -7 CURVE SMOOTH",
"406 -7 OFFCURVE",
"477 78 OFFCURVE",
"477 235 CURVE SMOOTH",
"477 392 OFFCURVE",
"406 476 OFFCURVE",
"265 476 CURVE SMOOTH",
"125 476 OFFCURVE",
"53 392 OFFCURVE",
"53 235 CURVE SMOOTH"
);
}
);
width = 531;
},
{
layerId = "3A3DE108-C793-40C5-98B7-5D5D6E88ABCD";
paths = (
{
closed = 1;
nodes = (
"169 41 OFFCURVE",
"148 88 OFFCURVE",
"148 157 CURVE SMOOTH",
"148 305 OFFCURVE",
"219 428 OFFCURVE",
"296 428 CURVE SMOOTH",
"343 428 OFFCURVE",
"366 383 OFFCURVE",
"366 311 CURVE SMOOTH",
"366 162 OFFCURVE",
"293 41 OFFCURVE",
"218 41 CURVE SMOOTH"
);
},
{
closed = 1;
nodes = (
"377 -7 OFFCURVE",
"459 146 OFFCURVE",
"459 305 CURVE SMOOTH",
"459 413 OFFCURVE",
"403 476 OFFCURVE",
"296 476 CURVE SMOOTH",
"137 476 OFFCURVE",
"55 322 OFFCURVE",
"55 164 CURVE SMOOTH",
"55 56 OFFCURVE",
"111 -7 OFFCURVE",
"218 -7 CURVE SMOOTH"
);
}
);
width = 507;
},
{
layerId = "C58AFD15-F6AF-4274-A800-842D1A888C52";
paths = (
{
closed = 1;
nodes = (
"191 380 OFFCURVE",
"218 436 OFFCURVE",
"285 436 CURVE SMOOTH",
"351 436 OFFCURVE",
"378 380 OFFCURVE",
"378 243 CURVE SMOOTH",
"378 105 OFFCURVE",
"351 49 OFFCURVE",
"285 49 CURVE SMOOTH",
"218 49 OFFCURVE",
"191 105 OFFCURVE",
"191 243 CURVE SMOOTH"
);
},
{
closed = 1;
nodes = (
"44 81 OFFCURVE",
"125 -7 OFFCURVE",
"285 -7 CURVE SMOOTH",
"445 -7 OFFCURVE",
"525 81 OFFCURVE",
"525 243 CURVE SMOOTH",
"525 405 OFFCURVE",
"445 492 OFFCURVE",
"285 492 CURVE SMOOTH",
"125 492 OFFCURVE",
"44 405 OFFCURVE",
"44 243 CURVE SMOOTH"
);
}
);
width = 569;
},
{
layerId = "E8623A4A-BA36-4417-942F-5A3A2106E744";
paths = (
{
closed = 1;
nodes = (
"171 321 OFFCURVE",
"228 436 OFFCURVE",
"304 436 CURVE SMOOTH",
"353 436 OFFCURVE",
"375 400 OFFCURVE",
"375 319 CURVE SMOOTH",
"375 164 OFFCURVE",
"319 49 OFFCURVE",
"243 49 CURVE SMOOTH",
"193 49 OFFCURVE",
"171 86 OFFCURVE",
"171 167 CURVE SMOOTH"
);
},
{
closed = 1;
nodes = (
"27 61 OFFCURVE",
"99 -7 OFFCURVE",
"234 -7 CURVE SMOOTH",
"417 -7 OFFCURVE",
"519 101 OFFCURVE",
"519 295 CURVE SMOOTH",
"519 424 OFFCURVE",
"448 492 OFFCURVE",
"313 492 CURVE SMOOTH",
"129 492 OFFCURVE",
"27 384 OFFCURVE",
"27 191 CURVE SMOOTH"
);
}
);
width = 540;
}
);
unicode = 006F;
userData = {
com.typemytype.robofont.layerData = {
};
};
},
{
glyphname = p;
lastChange = "2019-08-11 12:29:22 +0000";
layers = (
{
layerId = master01;
paths = (
{
closed = 1;
nodes = (
"231 -171 OFFCURVE",
"208 -162 OFFCURVE",
"191 -149 CURVE",
"191 9 LINE",
"217 -2 OFFCURVE",
"243 -7 OFFCURVE",
"276 -7 CURVE SMOOTH",
"422 -7 OFFCURVE",
"502 81 OFFCURVE",
"502 244 CURVE SMOOTH",
"502 398 OFFCURVE",
"440 476 OFFCURVE",
"319 476 CURVE SMOOTH",
"259 476 OFFCURVE",
"215 452 OFFCURVE",
"188 406 CURVE",
"179 467 LINE",
"161 477 LINE",
"123 466 OFFCURVE",
"82 451 OFFCURVE",
"39 443 CURVE",
"36 414 LINE",
"87 412 OFFCURVE",
"105 398 OFFCURVE",
"105 348 CURVE SMOOTH",
"105 -149 LINE",
"85 -164 OFFCURVE",
"69 -170 OFFCURVE",
"40 -174 CURVE",
"36 -210 LINE",
"257 -210 LINE",
"260 -176 LINE"
);
},
{
closed = 1;
nodes = (
"381 433 OFFCURVE",
"414 374 OFFCURVE",
"414 244 CURVE SMOOTH",
"414 111 OFFCURVE",
"364 35 OFFCURVE",
"279 35 CURVE SMOOTH",
"234 35 OFFCURVE",
"209 45 OFFCURVE",
"191 55 CURVE",
"191 245 LINE SMOOTH",
"191 370 OFFCURVE",
"233 433 OFFCURVE",
"311 433 CURVE SMOOTH"
);
}
);
width = 556;
},
{
layerId = "3A3DE108-C793-40C5-98B7-5D5D6E88ABCD";
paths = (
{
closed = 1;
nodes = (
"185 -212 LINE",
"190 -175 LINE",
"154 -170 OFFCURVE",
"124 -158 OFFCURVE",
"129 -130 CURVE SMOOTH",
"150 14 LINE",
"194 -5 OFFCURVE",
"231 -7 OFFCURVE",
"258 -7 CURVE SMOOTH",
"400 -7 OFFCURVE",
"481 155 OFFCURVE",
"481 297 CURVE SMOOTH",
"481 399 OFFCURVE",
"456 476 OFFCURVE",
"353 476 CURVE SMOOTH",
"287 476 OFFCURVE",
"234 413 OFFCURVE",
"204 366 CURVE",
"213 451 LINE",
"188 476 LINE",
"56 445 LINE",
"61 412 LINE",
"101 412 OFFCURVE",
"125 409 OFFCURVE",
"125 379 CURVE",
"36 -193 LINE",
"46 -212 LINE"
);
},
{
closed = 1;
nodes = (
"186 306 OFFCURVE",
"272 424 OFFCURVE",
"327 424 CURVE SMOOTH",
"375 424 OFFCURVE",
"392 368 OFFCURVE",
"392 297 CURVE SMOOTH",
"392 188 OFFCURVE",
"328 38 OFFCURVE",
"235 38 CURVE SMOOTH",
"194 38 OFFCURVE",
"162 51 OFFCURVE",
"162 75 CURVE"
);
}
);
width = 527;
},
{
layerId = "C58AFD15-F6AF-4274-A800-842D1A888C52";
paths = (
{
closed = 1;
nodes = (
"72 417 OFFCURVE",
"88 403 OFFCURVE",
"88 354 CURVE SMOOTH",
"88 -145 LINE",
"72 -160 OFFCURVE",
"60 -165 OFFCURVE",
"36 -170 CURVE",
"32 -211 LINE",
"299 -211 LINE",
"303 -172 LINE",
"269 -166 OFFCURVE",
"243 -154 OFFCURVE",
"229 -145 CURVE",
"229 17 LINE",
"258 2 OFFCURVE",
"285 -7 OFFCURVE",
"329 -7 CURVE SMOOTH",
"469 -7 OFFCURVE",
"550 83 OFFCURVE",
"550 256 CURVE SMOOTH",
"550 412 OFFCURVE",
"483 492 OFFCURVE",
"365 492 CURVE SMOOTH",
"299 492 OFFCURVE",
"252 467 OFFCURVE",
"223 416 CURVE",
"213 483 LINE",
"195 492 LINE",
"157 481 OFFCURVE",
"71 466 OFFCURVE",
"29 458 CURVE",
"26 419 LINE"
);
},
{
closed = 1;
nodes = (
"377 432 OFFCURVE",
"403 376 OFFCURVE",
"403 256 CURVE SMOOTH",
"403 121 OFFCURVE",
"370 46 OFFCURVE",
"295 46 CURVE SMOOTH",
"268 46 OFFCURVE",
"242 56 OFFCURVE",
"229 66 CURVE",
"229 268 LINE SMOOTH",
"229 377 OFFCURVE",
"265 432 OFFCURVE",
"321 432 CURVE SMOOTH"
);
}
);
width = 597;
},
{
layerId = "E8623A4A-BA36-4417-942F-5A3A2106E744";
paths = (
{
closed = 1;
nodes = (
"385 432 OFFCURVE",
"405 395 OFFCURVE",
"405 322 CURVE SMOOTH",
"405 190 OFFCURVE",
"368 46 OFFCURVE",
"256 46 CURVE SMOOTH",
"229 46 OFFCURVE",
"205 56 OFFCURVE",
"193 66 CURVE",
"228 284 LINE SMOOTH",
"244 383 OFFCURVE",
"290 432 OFFCURVE",
"343 432 CURVE SMOOTH"
);
},
{
closed = 1;
nodes = (
"210 492 LINE",
"36 466 LINE",
"42 422 LINE",
"74 420 OFFCURVE",
"100 409 OFFCURVE",
"100 376 CURVE SMOOTH",
"100 369 OFFCURVE",
"99 362 OFFCURVE",
"98 354 CURVE SMOOTH",
"12 -182 LINE",
"23 -211 LINE",
"201 -211 LINE",
"206 -173 LINE",
"175 -162 OFFCURVE",
"163 -149 OFFCURVE",
"163 -132 CURVE",
"186 17 LINE",
"212 2 OFFCURVE",
"238 -7 OFFCURVE",
"282 -7 CURVE SMOOTH",
"449 -7 OFFCURVE",
"550 112 OFFCURVE",
"550 312 CURVE SMOOTH",
"550 430 OFFCURVE",
"496 492 OFFCURVE",
"397 492 CURVE SMOOTH",
"331 492 OFFCURVE",
"281 467 OFFCURVE",
"244 417 CURVE",
"246 470 LINE"
);
}
);
width = 571;
}
);
unicode = 0070;
userData = {
com.typemytype.robofont.layerData = {
};
};
},
{
glyphname = q;
lastChange = "2019-08-11 12:29:22 +0000";
layers = (
{
layerId = master01;
paths = (
{
closed = 1;
nodes = (
"489 -172 OFFCURVE",
"465 -163 OFFCURVE",
"448 -151 CURVE",
"448 467 LINE",
"395 467 LINE",
"379 429 LINE",
"350 455 OFFCURVE",
"313 476 OFFCURVE",
"267 476 CURVE SMOOTH",
"117 476 OFFCURVE",
"60 372 OFFCURVE",
"60 232 CURVE SMOOTH",
"60 94 OFFCURVE",
"110 -7 OFFCURVE",
"249 -7 CURVE SMOOTH",
"304 -7 OFFCURVE",
"339 21 OFFCURVE",
"363 59 CURVE",
"363 -151 LINE",
"342 -166 OFFCURVE",
"327 -171 OFFCURVE",
"297 -176 CURVE",
"293 -212 LINE",
"514 -212 LINE",
"518 -178 LINE"
);
},
{
closed = 1;
nodes = (
"150 321 OFFCURVE",
"154 434 OFFCURVE",
"265 434 CURVE SMOOTH",
"305 434 OFFCURVE",
"338 409 OFFCURVE",
"363 383 CURVE",
"363 240 LINE SMOOTH",
"363 134 OFFCURVE",
"344 35 OFFCURVE",
"249 35 CURVE SMOOTH",
"159 35 OFFCURVE",
"150 130 OFFCURVE",
"150 232 CURVE SMOOTH"
);
}
);
width = 547;
},
{
layerId = "3A3DE108-C793-40C5-98B7-5D5D6E88ABCD";
paths = (
{
closed = 1;
nodes = (
"421 -212 LINE",
"426 -175 LINE",
"390 -170 OFFCURVE",
"360 -158 OFFCURVE",
"365 -130 CURVE SMOOTH",
"461 462 LINE",
"432 476 LINE",
"381 452 LINE",
"334 474 OFFCURVE",
"295 478 OFFCURVE",
"267 478 CURVE SMOOTH",
"125 478 OFFCURVE",
"44 313 OFFCURVE",
"44 172 CURVE SMOOTH",
"44 69 OFFCURVE",
"70 -7 OFFCURVE",
"172 -7 CURVE SMOOTH",
"239 -7 OFFCURVE",
"292 57 OFFCURVE",
"322 103 CURVE",
"270 -193 LINE",
"280 -212 LINE"
);
},
{
closed = 1;
nodes = (
"150 45 OFFCURVE",
"134 101 OFFCURVE",
"134 171 CURVE SMOOTH",
"134 280 OFFCURVE",
"196 431 OFFCURVE",
"290 431 CURVE SMOOTH",
"319 431 OFFCURVE",
"345 419 OFFCURVE",
"365 406 CURVE",
"347 298 LINE SMOOTH",
"321 144 OFFCURVE",
"250 45 OFFCURVE",
"198 45 CURVE SMOOTH"
);
}
);
width = 521;
},
{
layerId = "C58AFD15-F6AF-4274-A800-842D1A888C52";
paths = (
{
closed = 1;
nodes = (
"293 -7 OFFCURVE",
"338 15 OFFCURVE",
"367 59 CURVE",
"367 -145 LINE",
"344 -160 OFFCURVE",
"328 -165 OFFCURVE",
"294 -170 CURVE",
"291 -211 LINE",
"558 -211 LINE",
"561 -172 LINE",
"537 -166 OFFCURVE",
"518 -154 OFFCURVE",
"508 -145 CURVE",
"508 484 LINE",
"434 484 LINE",
"400 452 LINE",
"359 480 OFFCURVE",
"318 492 OFFCURVE",
"271 492 CURVE SMOOTH",
"134 492 OFFCURVE",
"47 407 OFFCURVE",
"47 242 CURVE SMOOTH",
"47 80 OFFCURVE",
"113 -7 OFFCURVE",
"231 -7 CURVE SMOOTH"
);
},
{
closed = 1;
nodes = (
"219 53 OFFCURVE",
"193 115 OFFCURVE",
"193 243 CURVE SMOOTH",
"193 371 OFFCURVE",
"228 441 OFFCURVE",
"298 441 CURVE SMOOTH",
"330 441 OFFCURVE",
"352 425 OFFCURVE",
"367 408 CURVE",
"367 234 LINE SMOOTH",
"367 114 OFFCURVE",
"335 53 OFFCURVE",
"276 53 CURVE SMOOTH"
);
}
);
width = 591;
},
{
layerId = "E8623A4A-BA36-4417-942F-5A3A2106E744";
paths = (
{
closed = 1;
nodes = (
"342 135 OFFCURVE",
"307 50 OFFCURVE",
"256 50 CURVE SMOOTH",
"210 50 OFFCURVE",
"196 112 OFFCURVE",
"196 182 CURVE SMOOTH",
"196 358 OFFCURVE",
"267 443 OFFCURVE",
"347 443 CURVE SMOOTH",
"363 443 OFFCURVE",
"379 440 OFFCURVE",
"394 435 CURVE",
"366 265 LINE SMOOTH"
);
},
{
closed = 1;
nodes = (
"307 -211 LINE",
"485 -211 LINE",
"490 -173 LINE",
"460 -162 OFFCURVE",
"448 -150 OFFCURVE",
"447 -134 CURVE",
"463 -32 OFFCURVE",
"542 476 OFFCURVE",
"542 477 CURVE",
"512 491 LINE",
"428 472 LINE",
"394 484 OFFCURVE",
"361 492 OFFCURVE",
"324 492 CURVE SMOOTH",
"173 492 OFFCURVE",
"52 395 OFFCURVE",
"52 181 CURVE SMOOTH",
"52 49 OFFCURVE",
"128 -11 OFFCURVE",
"211 -11 CURVE SMOOTH",
"264 -11 OFFCURVE",
"302 10 OFFCURVE",
"331 43 CURVE",
"296 -182 LINE"
);
}
);
width = 564;
}
);
unicode = 0071;
userData = {
com.typemytype.robofont.layerData = {
};
};
},
{
glyphname = r;
lastChange = "2019-08-11 12:29:22 +0000";
layers = (
{
layerId = master01;
paths = (
{
closed = 1;
nodes = (
"97 411 OFFCURVE",
"116 397 OFFCURVE",
"116 347 CURVE SMOOTH",
"116 62 LINE",
"95 46 OFFCURVE",
"80 41 OFFCURVE",
"50 36 CURVE",
"46 0 LINE",
"276 0 LINE",
"280 34 LINE",
"248 40 OFFCURVE",
"220 49 OFFCURVE",
"201 62 CURVE",
"201 294 LINE SMOOTH",
"201 357 OFFCURVE",
"250 421 OFFCURVE",
"286 421 CURVE SMOOTH",
"305 421 OFFCURVE",
"314 410 OFFCURVE",
"314 391 CURVE SMOOTH",
"314 382 OFFCURVE",
"309 368 OFFCURVE",
"304 363 CURVE",
"310 343 OFFCURVE",
"333 332 OFFCURVE",
"355 332 CURVE SMOOTH",
"389 332 OFFCURVE",
"408 364 OFFCURVE",
"408 395 CURVE SMOOTH",
"408 450 OFFCURVE",
"363 476 OFFCURVE",
"319 476 CURVE SMOOTH",
"270 476 OFFCURVE",
"227 439 OFFCURVE",
"199 397 CURVE",
"189 467 LINE",
"171 476 LINE",
"133 465 OFFCURVE",
"92 450 OFFCURVE",
"49 442 CURVE",
"46 413 LINE"
);
}
);
width = 414;
},
{
layerId = "3A3DE108-C793-40C5-98B7-5D5D6E88ABCD";
paths = (
{
closed = 1;
nodes = (
"182 325 OFFCURVE",
"249 409 OFFCURVE",
"288 409 CURVE SMOOTH",
"300 409 OFFCURVE",
"306 396 OFFCURVE",
"306 380 CURVE SMOOTH",
"306 369 OFFCURVE",
"304 357 OFFCURVE",
"299 345 CURVE",
"302 339 OFFCURVE",
"312 328 OFFCURVE",
"332 328 CURVE SMOOTH",
"377 328 OFFCURVE",
"400 363 OFFCURVE",
"400 398 CURVE SMOOTH",
"400 436 OFFCURVE",
"374 476 OFFCURVE",
"322 476 CURVE SMOOTH",
"273 476 OFFCURVE",
"228 430 OFFCURVE",
"190 354 CURVE",
"204 451 LINE",
"179 476 LINE",
"40 445 LINE",
"45 412 LINE",
"85 412 OFFCURVE",
"109 409 OFFCURVE",
"109 379 CURVE SMOOTH",
"109 369 OFFCURVE",
"51 0 OFFCURVE",
"51 0 CURVE",
"139 0 LINE",
"158 145 LINE SMOOTH"
);
}
);
width = 407;
},
{
layerId = "C58AFD15-F6AF-4274-A800-842D1A888C52";
paths = (
{
closed = 1;
nodes = (
"266 45 OFFCURVE",
"246 54 OFFCURVE",
"231 66 CURVE",
"231 353 LINE",
"247 391 OFFCURVE",
"277 416 OFFCURVE",
"305 416 CURVE SMOOTH",
"327 416 OFFCURVE",
"349 402 OFFCURVE",
"349 380 CURVE SMOOTH",
"349 370 OFFCURVE",
"345 359 OFFCURVE",
"335 347 CURVE",
"347 330 OFFCURVE",
"365 322 OFFCURVE",
"384 322 CURVE SMOOTH",
"417 322 OFFCURVE",
"452 348 OFFCURVE",
"452 399 CURVE SMOOTH",
"452 453 OFFCURVE",
"406 491 OFFCURVE",
"356 491 CURVE SMOOTH",
"300 491 OFFCURVE",
"256 459 OFFCURVE",
"227 417 CURVE",
"219 483 LINE",
"201 492 LINE",
"163 481 OFFCURVE",
"73 466 OFFCURVE",
"30 458 CURVE",
"27 419 LINE",
"73 417 OFFCURVE",
"90 403 OFFCURVE",
"90 354 CURVE SMOOTH",
"90 66 LINE",
"73 51 OFFCURVE",
"62 46 OFFCURVE",
"37 41 CURVE",
"34 0 LINE",
"287 0 LINE",
"291 39 LINE"
);
}
);
width = 461;
},
{
layerId = "E8623A4A-BA36-4417-942F-5A3A2106E744";
paths = (
{
closed = 1;
nodes = (
"221 492 LINE",
"35 466 LINE",
"41 422 LINE",
"73 420 OFFCURVE",
"99 409 OFFCURVE",
"99 376 CURVE SMOOTH",
"99 369 OFFCURVE",
"98 362 OFFCURVE",
"97 354 CURVE SMOOTH",
"40 0 LINE",
"181 0 LINE",
"211 186 LINE SMOOTH",
"226 279 OFFCURVE",
"297 401 OFFCURVE",
"341 401 CURVE SMOOTH",
"360 401 OFFCURVE",
"367 391 OFFCURVE",
"367 374 CURVE SMOOTH",
"367 364 OFFCURVE",
"363 353 OFFCURVE",
"358 347 CURVE",
"376 329 OFFCURVE",
"394 322 OFFCURVE",
"410 322 CURVE SMOOTH",
"452 322 OFFCURVE",
"484 371 OFFCURVE",
"484 416 CURVE SMOOTH",
"484 454 OFFCURVE",
"461 489 OFFCURVE",
"403 489 CURVE SMOOTH",
"328 489 OFFCURVE",
"274 426 OFFCURVE",
"238 352 CURVE",
"257 470 LINE"
);
}
);
width = 456;
}
);
unicode = 0072;
userData = {
com.typemytype.robofont.layerData = {
};
};
},
{
glyphname = s;
lastChange = "2019-08-11 12:29:22 +0000";
layers = (
{
layerId = master01;
paths = (
{
closed = 1;
nodes = (
"279 435 OFFCURVE",
"297 394 OFFCURVE",
"302 329 CURVE",
"354 329 LINE",
"363 449 LINE",
"338 461 OFFCURVE",
"276 475 OFFCURVE",
"220 475 CURVE SMOOTH",
"115 475 OFFCURVE",
"53 426 OFFCURVE",
"53 347 CURVE SMOOTH",
"53 174 OFFCURVE",
"302 225 OFFCURVE",
"302 116 CURVE SMOOTH",
"302 73 OFFCURVE",
"264 39 OFFCURVE",
"209 39 CURVE SMOOTH",
"178 39 OFFCURVE",
"151 43 OFFCURVE",
"132 49 CURVE",
"117 78 OFFCURVE",
"110 104 OFFCURVE",
"105 162 CURVE",
"52 155 LINE",
"52 32 LINE",
"82 13 OFFCURVE",
"153 -6 OFFCURVE",
"201 -6 CURVE SMOOTH",
"314 -6 OFFCURVE",
"380 46 OFFCURVE",
"380 136 CURVE SMOOTH",
"380 302 OFFCURVE",
"128 255 OFFCURVE",
"128 368 CURVE SMOOTH",
"128 409 OFFCURVE",
"161 435 OFFCURVE",
"214 435 CURVE SMOOTH"
);
}
);
width = 430;
},
{
layerId = "3A3DE108-C793-40C5-98B7-5D5D6E88ABCD";
paths = (
{
closed = 1;
nodes = (
"296 431 OFFCURVE",
"300 390 OFFCURVE",
"295 329 CURVE",
"335 329 LINE",
"368 442 LINE",
"348 453 OFFCURVE",
"303 476 OFFCURVE",
"238 476 CURVE SMOOTH",
"161 476 OFFCURVE",
"80 433 OFFCURVE",
"80 334 CURVE SMOOTH",
"80 274 OFFCURVE",
"121 235 OFFCURVE",
"160 201 CURVE SMOOTH",
"196 169 OFFCURVE",
"232 142 OFFCURVE",
"232 108 CURVE SMOOTH",
"232 56 OFFCURVE",
"188 41 OFFCURVE",
"166 41 CURVE SMOOTH",
"97 41 OFFCURVE",
"81 73 OFFCURVE",
"81 113 CURVE SMOOTH",
"81 126 OFFCURVE",
"82 139 OFFCURVE",
"83 149 CURVE",
"42 156 LINE",
"12 35 LINE",
"48 11 OFFCURVE",
"93 -7 OFFCURVE",
"144 -7 CURVE SMOOTH",
"230 -7 OFFCURVE",
"316 43 OFFCURVE",
"316 148 CURVE SMOOTH",
"316 198 OFFCURVE",
"272 237 OFFCURVE",
"231 270 CURVE SMOOTH",
"194 300 OFFCURVE",
"160 329 OFFCURVE",
"160 367 CURVE SMOOTH",
"160 414 OFFCURVE",
"199 431 OFFCURVE",
"226 431 CURVE SMOOTH"
);
}
);
width = 382;
},
{
layerId = "C58AFD15-F6AF-4274-A800-842D1A888C52";
paths = (
{
closed = 1;
nodes = (
"295 448 OFFCURVE",
"322 395 OFFCURVE",
"322 335 CURVE",
"400 335 LINE",
"410 460 LINE",
"410 460 OFFCURVE",
"335 493 OFFCURVE",
"235 493 CURVE SMOOTH",
"113 493 OFFCURVE",
"40 443 OFFCURVE",
"40 359 CURVE SMOOTH",
"40 281 OFFCURVE",
"86 234 OFFCURVE",
"195 198 CURVE SMOOTH",
"259 176 OFFCURVE",
"288 148 OFFCURVE",
"288 109 CURVE SMOOTH",
"288 71 OFFCURVE",
"258 42 OFFCURVE",
"218 42 CURVE SMOOTH",
"199 42 OFFCURVE",
"182 45 OFFCURVE",
"163 51 CURVE",
"153 68 OFFCURVE",
"143 127 OFFCURVE",
"142 170 CURVE",
"39 155 LINE",
"39 45 LINE",
"78 18 OFFCURVE",
"164 -8 OFFCURVE",
"216 -8 CURVE SMOOTH",
"346 -8 OFFCURVE",
"421 47 OFFCURVE",
"421 142 CURVE SMOOTH",
"421 212 OFFCURVE",
"378 259 OFFCURVE",
"281 294 CURVE SMOOTH",
"196 324 OFFCURVE",
"170 345 OFFCURVE",
"170 379 CURVE SMOOTH",
"170 421 OFFCURVE",
"196 448 OFFCURVE",
"235 448 CURVE SMOOTH"
);
}
);
width = 459;
},
{
layerId = "E8623A4A-BA36-4417-942F-5A3A2106E744";
paths = (
{
closed = 1;
nodes = (
"346 448 OFFCURVE",
"340 381 OFFCURVE",
"333 330 CURVE",
"393 330 LINE",
"427 454 LINE",
"383 477 OFFCURVE",
"326 493 OFFCURVE",
"267 493 CURVE SMOOTH",
"136 493 OFFCURVE",
"54 435 OFFCURVE",
"54 337 CURVE SMOOTH",
"54 273 OFFCURVE",
"93 230 OFFCURVE",
"182 198 CURVE SMOOTH",
"236 178 OFFCURVE",
"260 152 OFFCURVE",
"260 118 CURVE SMOOTH",
"260 76 OFFCURVE",
"224 42 OFFCURVE",
"181 42 CURVE SMOOTH",
"158 42 OFFCURVE",
"128 47 OFFCURVE",
"104 75 CURVE",
"102 87 OFFCURVE",
"101 101 OFFCURVE",
"101 115 CURVE SMOOTH",
"101 131 OFFCURVE",
"102 148 OFFCURVE",
"103 160 CURVE",
"48 170 LINE",
"16 45 LINE",
"56 13 OFFCURVE",
"120 -8 OFFCURVE",
"171 -8 CURVE SMOOTH",
"312 -8 OFFCURVE",
"396 56 OFFCURVE",
"396 161 CURVE SMOOTH",
"396 220 OFFCURVE",
"360 264 OFFCURVE",
"282 294 CURVE SMOOTH",
"210 322 OFFCURVE",
"185 342 OFFCURVE",
"185 372 CURVE SMOOTH",
"185 415 OFFCURVE",
"217 448 OFFCURVE",
"260 448 CURVE SMOOTH"
);
}
);
width = 442;
}
);
unicode = 0073;
userData = {
com.typemytype.robofont.layerData = {
};
};
},
{
glyphname = t;
lastChange = "2019-08-11 12:29:22 +0000";
layers = (
{
layerId = master01;
paths = (
{
closed = 1;
nodes = (
"297 48 OFFCURVE",
"276 37 OFFCURVE",
"243 37 CURVE SMOOTH",
"194 37 OFFCURVE",
"190 63 OFFCURVE",
"190 106 CURVE SMOOTH",
"190 413 LINE",
"319 413 LINE",
"319 467 LINE",
"191 467 LINE",
"191 564 LINE",
"151 564 LINE",
"131 507 OFFCURVE",
"91 466 OFFCURVE",
"23 443 CURVE",
"23 413 LINE",
"104 413 LINE",
"104 113 LINE SMOOTH",
"104 28 OFFCURVE",
"127 -10 OFFCURVE",
"219 -10 CURVE SMOOTH",
"284 -10 OFFCURVE",
"318 16 OFFCURVE",
"333 27 CURVE",
"313 57 LINE"
);
}
);
width = 338;
},
{
layerId = "3A3DE108-C793-40C5-98B7-5D5D6E88ABCD";
paths = (
{
closed = 1;
nodes = (
"151 55 OFFCURVE",
"143 70 OFFCURVE",
"143 90 CURVE SMOOTH",
"143 125 OFFCURVE",
"193 413 OFFCURVE",
"192 413 CURVE",
"350 413 LINE",
"361 467 LINE",
"201 467 LINE",
"217 564 LINE",
"177 564 LINE",
"148 507 OFFCURVE",
"126 469 OFFCURVE",
"40 446 CURVE",
"34 413 LINE",
"106 413 LINE",
"62 134 OFFCURVE",
"56 101 OFFCURVE",
"56 75 CURVE SMOOTH",
"56 24 OFFCURVE",
"83 -7 OFFCURVE",
"137 -7 CURVE SMOOTH",
"214 -7 OFFCURVE",
"269 38 OFFCURVE",
"312 72 CURVE",
"288 106 LINE",
"254 83 OFFCURVE",
"212 55 OFFCURVE",
"179 55 CURVE SMOOTH"
);
}
);
width = 345;
},
{
layerId = "C58AFD15-F6AF-4274-A800-842D1A888C52";
paths = (
{
closed = 1;
nodes = (
"322 79 OFFCURVE",
"294 68 OFFCURVE",
"270 68 CURVE SMOOTH",
"243 68 OFFCURVE",
"222 82 OFFCURVE",
"222 121 CURVE SMOOTH",
"222 413 LINE",
"351 413 LINE",
"351 478 LINE",
"223 478 LINE",
"223 584 LINE",
"158 584 LINE",
"127 525 OFFCURVE",
"73 483 OFFCURVE",
"9 459 CURVE",
"9 413 LINE",
"80 413 LINE",
"80 113 LINE SMOOTH",
"80 29 OFFCURVE",
"136 -4 OFFCURVE",
"202 -4 CURVE SMOOTH",
"258 -4 OFFCURVE",
"320 20 OFFCURVE",
"362 58 CURVE",
"342 93 LINE"
);
}
);
width = 365;
},
{
layerId = "E8623A4A-BA36-4417-942F-5A3A2106E744";
paths = (
{
closed = 1;
nodes = (
"65 115 OFFCURVE",
"63 97 OFFCURVE",
"63 88 CURVE SMOOTH",
"63 22 OFFCURVE",
"109 -4 OFFCURVE",
"168 -4 CURVE SMOOTH",
"235 -4 OFFCURVE",
"313 32 OFFCURVE",
"355 72 CURVE",
"331 105 LINE",
"309 91 OFFCURVE",
"268 70 OFFCURVE",
"244 70 CURVE SMOOTH",
"219 70 OFFCURVE",
"207 82 OFFCURVE",
"207 107 CURVE SMOOTH",
"207 123 OFFCURVE",
"219 192 OFFCURVE",
"225 229 CURVE SMOOTH",
"227 242 OFFCURVE",
"254 413 OFFCURVE",
"254 413 CURVE",
"383 413 LINE",
"394 478 LINE",
"266 478 LINE",
"282 584 LINE",
"217 584 LINE",
"177 525 OFFCURVE",
"115 481 OFFCURVE",
"48 457 CURVE",
"41 413 LINE",
"112 413 LINE",
"67 125 LINE SMOOTH"
);
}
);
width = 364;
}
);
unicode = 0074;
userData = {
com.typemytype.robofont.layerData = {
};
};
},
{
glyphname = u;
lastChange = "2019-08-11 12:29:22 +0000";
layers = (
{
layerId = master01;
paths = (
{
closed = 1;
nodes = (
"352 413 OFFCURVE",
"371 399 OFFCURVE",
"371 349 CURVE SMOOTH",
"371 117 LINE",
"339 59 OFFCURVE",
"295 38 OFFCURVE",
"265 38 CURVE SMOOTH",
"203 38 OFFCURVE",
"179 81 OFFCURVE",
"179 143 CURVE SMOOTH",
"179 469 LINE",
"159 479 LINE",
"118 467 OFFCURVE",
"71 452 OFFCURVE",
"26 444 CURVE",
"24 415 LINE",
"75 413 OFFCURVE",
"93 399 OFFCURVE",
"93 349 CURVE SMOOTH",
"93 154 LINE SMOOTH",
"93 47 OFFCURVE",
"147 -7 OFFCURVE",
"254 -7 CURVE SMOOTH",
"299 -7 OFFCURVE",
"344 16 OFFCURVE",
"379 63 CURVE",
"389 0 LINE",
"522 0 LINE",
"525 35 LINE",
"497 40 OFFCURVE",
"468 52 OFFCURVE",
"456 62 CURVE",
"456 469 LINE",
"437 479 LINE",
"396 467 OFFCURVE",
"349 452 OFFCURVE",
"304 444 CURVE",
"301 415 LINE"
);
}
);
width = 552;
},
{
layerId = "3A3DE108-C793-40C5-98B7-5D5D6E88ABCD";
paths = (
{
closed = 1;
nodes = (
"68 117 OFFCURVE",
"67 108 OFFCURVE",
"67 100 CURVE SMOOTH",
"67 32 OFFCURVE",
"108 -7 OFFCURVE",
"180 -7 CURVE SMOOTH",
"258 -7 OFFCURVE",
"311 61 OFFCURVE",
"341 116 CURVE",
"335 80 OFFCURVE",
"330 54 OFFCURVE",
"330 45 CURVE SMOOTH",
"330 16 OFFCURVE",
"336 -7 OFFCURVE",
"386 -7 CURVE SMOOTH",
"426 -7 OFFCURVE",
"478 30 OFFCURVE",
"500 49 CURVE",
"490 81 LINE",
"485 78 OFFCURVE",
"457 62 OFFCURVE",
"439 62 CURVE SMOOTH",
"425 62 OFFCURVE",
"418 67 OFFCURVE",
"418 79 CURVE SMOOTH",
"418 84 LINE",
"480 474 LINE",
"395 474 LINE",
"368 306 LINE SMOOTH",
"349 186 OFFCURVE",
"292 47 OFFCURVE",
"208 47 CURVE SMOOTH",
"178 47 OFFCURVE",
"155 70 OFFCURVE",
"155 116 CURVE SMOOTH",
"155 149 OFFCURVE",
"191 325 OFFCURVE",
"211 451 CURVE",
"186 476 LINE",
"44 445 LINE",
"49 412 LINE",
"89 412 OFFCURVE",
"112 409 OFFCURVE",
"112 379 CURVE SMOOTH",
"112 371 OFFCURVE",
"69 126 OFFCURVE",
"69 126 CURVE"
);
}
);
width = 535;
},
{
layerId = "C58AFD15-F6AF-4274-A800-842D1A888C52";
paths = (
{
closed = 1;
nodes = (
"514 483 LINE",
"496 492 LINE",
"458 481 OFFCURVE",
"355 466 OFFCURVE",
"313 458 CURVE",
"310 419 LINE",
"356 417 OFFCURVE",
"373 403 OFFCURVE",
"373 354 CURVE SMOOTH",
"373 115 LINE",
"353 81 OFFCURVE",
"318 60 OFFCURVE",
"283 60 CURVE SMOOTH",
"242 60 OFFCURVE",
"221 91 OFFCURVE",
"221 156 CURVE SMOOTH",
"221 483 LINE",
"204 492 LINE",
"166 481 OFFCURVE",
"63 466 OFFCURVE",
"21 458 CURVE",
"18 419 LINE",
"63 417 OFFCURVE",
"80 403 OFFCURVE",
"80 354 CURVE SMOOTH",
"80 147 LINE SMOOTH",
"80 50 OFFCURVE",
"140 -7 OFFCURVE",
"230 -7 CURVE SMOOTH",
"292 -7 OFFCURVE",
"344 21 OFFCURVE",
"379 64 CURVE",
"389 0 LINE",
"580 0 LINE",
"583 35 LINE",
"555 40 OFFCURVE",
"526 52 OFFCURVE",
"514 62 CURVE"
);
}
);
width = 597;
},
{
layerId = "E8623A4A-BA36-4417-942F-5A3A2106E744";
paths = (
{
closed = 1;
nodes = (
"63 167 OFFCURVE",
"57 132 OFFCURVE",
"57 113 CURVE SMOOTH",
"57 38 OFFCURVE",
"105 -8 OFFCURVE",
"185 -8 CURVE SMOOTH",
"250 -8 OFFCURVE",
"302 25 OFFCURVE",
"343 86 CURVE",
"343 27 OFFCURVE",
"365 -6 OFFCURVE",
"427 -6 CURVE SMOOTH",
"477 -6 OFFCURVE",
"533 23 OFFCURVE",
"567 46 CURVE",
"554 84 LINE",
"536 73 OFFCURVE",
"519 69 OFFCURVE",
"506 69 CURVE SMOOTH",
"492 69 OFFCURVE",
"486 76 OFFCURVE",
"486 92 CURVE SMOOTH",
"486 105 OFFCURVE",
"496 165 OFFCURVE",
"501 197 CURVE SMOOTH",
"548 484 LINE",
"407 484 LINE",
"370 265 LINE SMOOTH",
"352 158 OFFCURVE",
"286 60 OFFCURVE",
"241 60 CURVE SMOOTH",
"213 60 OFFCURVE",
"200 80 OFFCURVE",
"200 119 CURVE SMOOTH",
"200 152 OFFCURVE",
"253 474 OFFCURVE",
"253 474 CURVE",
"216 492 LINE",
"31 466 LINE",
"37 422 LINE",
"71 420 OFFCURVE",
"95 408 OFFCURVE",
"95 376 CURVE SMOOTH",
"95 370 OFFCURVE",
"94 362 OFFCURVE",
"93 354 CURVE SMOOTH"
);
}
);
width = 584;
}
);
unicode = 0075;
userData = {
com.typemytype.robofont.layerData = {
};
};
},
{
glyphname = v;
lastChange = "2019-08-11 12:29:22 +0000";
layers = (
{
layerId = master01;
paths = (
{
closed = 1;
nodes = (
"282 0 LINE",
"434 407 LINE SMOOTH",
"441 426 OFFCURVE",
"475 432 OFFCURVE",
"501 437 CURVE",
"504 467 LINE",
"314 467 LINE",
"311 437 LINE",
"333 433 OFFCURVE",
"353 428 OFFCURVE",
"371 415 CURVE",
"265 96 LINE",
"159 415 LINE",
"177 431 OFFCURVE",
"199 434 OFFCURVE",
"221 437 CURVE",
"224 467 LINE",
"1 467 LINE",
"-1 437 LINE",
"29 431 OFFCURVE",
"60 423 OFFCURVE",
"70 395 CURVE SMOOTH",
"215 0 LINE"
);
}
);
width = 504;
},
{
layerId = "3A3DE108-C793-40C5-98B7-5D5D6E88ABCD";
paths = (
{
closed = 1;
nodes = (
"316 427 LINE",
"336 424 OFFCURVE",
"354 416 OFFCURVE",
"354 386 CURVE SMOOTH",
"354 310 OFFCURVE",
"261 201 OFFCURVE",
"212 106 CURVE",
"166 452 LINE",
"140 476 LINE",
"22 445 LINE",
"26 412 LINE",
"60 409 OFFCURVE",
"86 414 OFFCURVE",
"92 366 CURVE SMOOTH",
"141 0 LINE",
"161 -7 OFFCURVE",
"195 -7 OFFCURVE",
"195 -7 CURVE",
"380 280 LINE SMOOTH",
"441 375 OFFCURVE",
"458 454 OFFCURVE",
"458 454 CURVE",
"424 476 LINE",
"315 460 LINE"
);
}
);
width = 460;
},
{
layerId = "C58AFD15-F6AF-4274-A800-842D1A888C52";
paths = (
{
closed = 1;
nodes = (
"478 425 LINE",
"488 438 OFFCURVE",
"508 448 OFFCURVE",
"530 449 CURVE",
"534 484 LINE",
"348 484 LINE",
"344 449 LINE",
"368 445 OFFCURVE",
"389 440 OFFCURVE",
"409 427 CURVE",
"299 151 LINE",
"200 430 LINE",
"217 443 OFFCURVE",
"236 448 OFFCURVE",
"257 449 CURVE",
"262 484 LINE",
"0 484 LINE",
"-2 449 LINE",
"22 445 OFFCURVE",
"50 435 OFFCURVE",
"60 407 CURVE SMOOTH",
"204 0 LINE",
"307 0 LINE"
);
}
);
width = 531;
},
{
layerId = "E8623A4A-BA36-4417-942F-5A3A2106E744";
paths = (
{
closed = 1;
nodes = (
"354 479 LINE",
"357 435 LINE",
"374 431 OFFCURVE",
"387 421 OFFCURVE",
"387 399 CURVE SMOOTH",
"387 361 OFFCURVE",
"357 305 OFFCURVE",
"345 286 CURVE SMOOTH",
"247 134 LINE",
"202 470 LINE",
"166 492 LINE",
"12 466 LINE",
"18 422 LINE",
"60 420 OFFCURVE",
"72 402 OFFCURVE",
"77 366 CURVE SMOOTH",
"126 0 LINE",
"204 -7 LINE",
"225 -7 LINE",
"428 280 LINE SMOOTH",
"487 364 OFFCURVE",
"503 437 OFFCURVE",
"507 462 CURVE",
"470 492 LINE"
);
}
);
width = 500;
}
);
unicode = 0076;
userData = {
com.typemytype.robofont.layerData = {
};
};
},
{
glyphname = w;
lastChange = "2019-08-11 12:29:22 +0000";
layers = (
{
layerId = master01;
paths = (
{
closed = 1;
nodes = (
"281 0 LINE",
"384 291 LINE",
"491 0 LINE",
"552 0 LINE",
"695 407 LINE SMOOTH",
"702 426 OFFCURVE",
"736 432 OFFCURVE",
"762 437 CURVE",
"765 467 LINE",
"576 467 LINE",
"573 437 LINE",
"595 433 OFFCURVE",
"615 428 OFFCURVE",
"632 415 CURVE",
"539 103 LINE",
"417 450 LINE",
"378 450 LINE",
"266 104 LINE",
"170 415 LINE",
"188 431 OFFCURVE",
"210 434 OFFCURVE",
"232 437 CURVE",
"235 467 LINE",
"12 467 LINE",
"10 437 LINE",
"40 431 OFFCURVE",
"71 423 OFFCURVE",
"81 395 CURVE SMOOTH",
"219 0 LINE"
);
}
);
width = 774;
},
{
layerId = "3A3DE108-C793-40C5-98B7-5D5D6E88ABCD";
paths = (
{
closed = 1;
nodes = (
"307 274 OFFCURVE",
"247 170 OFFCURVE",
"209 107 CURVE",
"163 452 LINE",
"137 476 LINE",
"20 445 LINE",
"24 412 LINE",
"63 409 OFFCURVE",
"83 409 OFFCURVE",
"89 366 CURVE SMOOTH",
"139 0 LINE",
"158 -7 OFFCURVE",
"182 -6 OFFCURVE",
"191 -7 CURVE",
"363 269 LINE",
"402 0 LINE",
"422 -7 OFFCURVE",
"442 -7 OFFCURVE",
"455 -7 CURVE",
"641 280 LINE SMOOTH",
"701 373 OFFCURVE",
"719 454 OFFCURVE",
"719 454 CURVE",
"685 476 LINE",
"576 460 LINE",
"577 427 LINE",
"596 424 OFFCURVE",
"608 415 OFFCURVE",
"608 388 CURVE SMOOTH",
"608 330 OFFCURVE",
"522 183 OFFCURVE",
"473 106 CURVE",
"420 474 LINE",
"344 474 LINE",
"344 444 OFFCURVE",
"343 378 OFFCURVE",
"331 343 CURVE SMOOTH"
);
}
);
width = 728;
},
{
layerId = "C58AFD15-F6AF-4274-A800-842D1A888C52";
paths = (
{
closed = 1;
nodes = (
"398 298 LINE",
"489 0 LINE",
"592 0 LINE",
"739 421 LINE",
"748 436 OFFCURVE",
"769 448 OFFCURVE",
"793 449 CURVE",
"797 484 LINE",
"611 484 LINE",
"607 449 LINE",
"631 445 OFFCURVE",
"651 440 OFFCURVE",
"671 427 CURVE",
"578 153 LINE",
"483 484 LINE",
"393 484 LINE",
"280 154 LINE",
"202 428 LINE",
"220 443 OFFCURVE",
"239 448 OFFCURVE",
"261 449 CURVE",
"266 484 LINE",
"4 484 LINE",
"2 449 LINE",
"22 445 OFFCURVE",
"46 438 OFFCURVE",
"59 418 CURVE",
"191 0 LINE",
"294 0 LINE"
);
}
);
width = 798;
},
{
layerId = "E8623A4A-BA36-4417-942F-5A3A2106E744";
paths = (
{
closed = 1;
nodes = (
"362 322 OFFCURVE",
"335 280 OFFCURVE",
"242 126 CURVE",
"196 470 LINE",
"160 492 LINE",
"13 466 LINE",
"19 422 LINE",
"53 420 OFFCURVE",
"80 405 OFFCURVE",
"85 366 CURVE SMOOTH",
"134 0 LINE",
"153 -6 OFFCURVE",
"174 -8 OFFCURVE",
"196 -8 CURVE SMOOTH",
"207 -8 OFFCURVE",
"217 -8 OFFCURVE",
"228 -7 CURVE",
"381 233 LINE",
"412 0 LINE",
"437 -7 OFFCURVE",
"473 -7 OFFCURVE",
"506 -7 CURVE",
"699 280 LINE SMOOTH",
"738 338 OFFCURVE",
"774 435 OFFCURVE",
"778 462 CURVE",
"741 492 LINE",
"625 479 LINE",
"628 435 LINE",
"646 431 OFFCURVE",
"658 421 OFFCURVE",
"658 400 CURVE SMOOTH",
"658 358 OFFCURVE",
"627 287 OFFCURVE",
"520 120 CURVE",
"471 484 LINE",
"362 477 LINE",
"362 433 LINE SMOOTH"
);
}
);
width = 773;
}
);
unicode = 0077;
userData = {
com.typemytype.robofont.layerData = {
};
};
},
{
glyphname = x;
lastChange = "2019-08-11 12:29:22 +0000";
layers = (
{
layerId = master01;
paths = (
{
closed = 1;
nodes = (
"195 0 LINE",
"198 36 LINE",
"170 39 OFFCURVE",
"149 42 OFFCURVE",
"131 56 CURVE",
"230 188 LINE",
"330 53 LINE",
"314 42 OFFCURVE",
"293 39 OFFCURVE",
"267 36 CURVE",
"263 0 LINE",
"479 0 LINE",
"483 37 LINE",
"458 40 OFFCURVE",
"441 44 OFFCURVE",
"424 62 CURVE",
"285 250 LINE",
"402 405 LINE SMOOTH",
"418 426 OFFCURVE",
"445 433 OFFCURVE",
"476 437 CURVE",
"480 467 LINE",
"279 467 LINE",
"276 437 LINE",
"308 433 OFFCURVE",
"325 423 OFFCURVE",
"343 409 CURVE",
"255 292 LINE",
"163 416 LINE",
"179 428 OFFCURVE",
"196 435 OFFCURVE",
"224 437 CURVE",
"229 467 LINE",
"14 467 LINE",
"11 437 LINE",
"40 433 OFFCURVE",
"58 423 OFFCURVE",
"73 402 CURVE SMOOTH",
"200 229 LINE",
"73 62 LINE",
"56 43 OFFCURVE",
"32 39 OFFCURVE",
"0 36 CURVE",
"-3 0 LINE"
);
}
);
width = 483;
},
{
layerId = "3A3DE108-C793-40C5-98B7-5D5D6E88ABCD";
paths = (
{
closed = 1;
nodes = (
"275 16 OFFCURVE",
"286 -7 OFFCURVE",
"318 -7 CURVE SMOOTH",
"358 -7 OFFCURVE",
"400 30 OFFCURVE",
"422 49 CURVE",
"412 81 LINE",
"407 78 OFFCURVE",
"378 62 OFFCURVE",
"361 62 CURVE SMOOTH",
"345 62 OFFCURVE",
"343 74 OFFCURVE",
"336 86 CURVE",
"266 246 LINE",
"320 300 LINE SMOOTH",
"426 406 OFFCURVE",
"447 448 OFFCURVE",
"446 449 CURVE",
"430 467 LINE",
"297 467 LINE",
"297 434 LINE",
"317 430 OFFCURVE",
"329 420 OFFCURVE",
"329 402 CURVE SMOOTH",
"329 378 OFFCURVE",
"293 337 OFFCURVE",
"247 290 CURVE",
"177 453 LINE",
"152 475 LINE",
"47 446 LINE",
"52 413 LINE",
"85 413 OFFCURVE",
"101 411 OFFCURVE",
"120 367 CURVE SMOOTH",
"178 234 LINE",
"116 171 LINE SMOOTH",
"17 71 OFFCURVE",
"-10 19 OFFCURVE",
"-10 19 CURVE",
"0 0 LINE",
"141 0 LINE",
"146 37 LINE",
"133 38 OFFCURVE",
"109 43 OFFCURVE",
"109 65 CURVE SMOOTH",
"109 89 OFFCURVE",
"142 134 OFFCURVE",
"198 190 CURVE",
"262 45 LINE SMOOTH"
);
}
);
width = 449;
},
{
layerId = "C58AFD15-F6AF-4274-A800-842D1A888C52";
paths = (
{
closed = 1;
nodes = (
"305 46 OFFCURVE",
"292 41 OFFCURVE",
"276 41 CURVE",
"268 0 LINE",
"511 0 LINE",
"517 39 LINE",
"500 42 OFFCURVE",
"482 48 OFFCURVE",
"472 62 CURVE SMOOTH",
"325 268 LINE",
"455 427 LINE SMOOTH",
"465 439 OFFCURVE",
"483 442 OFFCURVE",
"502 443 CURVE",
"508 484 LINE",
"329 484 LINE",
"323 444 LINE",
"340 441 OFFCURVE",
"357 435 OFFCURVE",
"369 424 CURVE",
"287 322 LINE",
"211 429 LINE",
"221 437 OFFCURVE",
"234 440 OFFCURVE",
"250 442 CURVE",
"257 483 LINE",
"15 483 LINE",
"9 444 LINE",
"26 440 OFFCURVE",
"44 436 OFFCURVE",
"55 421 CURVE SMOOTH",
"195 223 LINE",
"51 55 LINE SMOOTH",
"42 45 OFFCURVE",
"27 42 OFFCURVE",
"12 41 CURVE",
"5 0 LINE",
"189 0 LINE",
"195 39 LINE",
"174 43 OFFCURVE",
"154 50 OFFCURVE",
"138 59 CURVE",
"233 170 LINE",
"315 54 LINE"
);
}
);
width = 525;
},
{
layerId = "E8623A4A-BA36-4417-942F-5A3A2106E744";
paths = (
{
closed = 1;
nodes = (
"489 454 LINE",
"477 484 LINE",
"311 484 LINE",
"311 440 LINE",
"334 436 OFFCURVE",
"341 425 OFFCURVE",
"341 414 CURVE SMOOTH",
"341 392 OFFCURVE",
"310 355 OFFCURVE",
"277 320 CURVE",
"208 469 LINE",
"168 492 LINE",
"15 466 LINE",
"21 422 LINE",
"56 420 OFFCURVE",
"71 412 OFFCURVE",
"95 367 CURVE SMOOTH",
"162 226 LINE",
"37 98 OFFCURVE",
"-6 46 OFFCURVE",
"-20 28 CURVE",
"-9 0 LINE",
"159 0 LINE",
"164 38 LINE",
"133 49 OFFCURVE",
"121 63 OFFCURVE",
"121 80 CURVE SMOOTH",
"121 105 OFFCURVE",
"149 136 OFFCURVE",
"187 173 CURVE",
"241 61 LINE SMOOTH",
"260 22 OFFCURVE",
"293 -4 OFFCURVE",
"336 -4 CURVE SMOOTH",
"377 -4 OFFCURVE",
"425 19 OFFCURVE",
"474 76 CURVE",
"451 107 LINE",
"434 92 OFFCURVE",
"421 86 OFFCURVE",
"410 86 CURVE SMOOTH",
"390 86 OFFCURVE",
"376 106 OFFCURVE",
"365 131 CURVE SMOOTH",
"301 269 LINE"
);
}
);
width = 483;
}
);
unicode = 0078;
userData = {
com.typemytype.robofont.layerData = {
};
};
},
{
glyphname = y;
lastChange = "2019-08-11 12:29:22 +0000";
layers = (
{
layerId = master01;
paths = (
{
closed = 1;
nodes = (
"169 431 OFFCURVE",
"188 435 OFFCURVE",
"210 437 CURVE",
"213 467 LINE",
"-5 467 LINE",
"-7 436 LINE",
"23 431 OFFCURVE",
"53 421 OFFCURVE",
"64 394 CURVE SMOOTH",
"228 -8 LINE",
"207 -73 LINE SMOOTH",
"186 -137 OFFCURVE",
"166 -164 OFFCURVE",
"137 -164 CURVE SMOOTH",
"117 -164 OFFCURVE",
"104 -149 OFFCURVE",
"104 -130 CURVE SMOOTH",
"104 -118 OFFCURVE",
"108 -106 OFFCURVE",
"116 -95 CURVE",
"105 -88 OFFCURVE",
"92 -84 OFFCURVE",
"81 -84 CURVE SMOOTH",
"54 -84 OFFCURVE",
"32 -104 OFFCURVE",
"32 -141 CURVE SMOOTH",
"32 -186 OFFCURVE",
"71 -218 OFFCURVE",
"123 -218 CURVE SMOOTH",
"186 -218 OFFCURVE",
"225 -182 OFFCURVE",
"259 -84 CURVE SMOOTH",
"429 407 LINE SMOOTH",
"436 426 OFFCURVE",
"475 433 OFFCURVE",
"502 437 CURVE",
"504 467 LINE",
"309 467 LINE",
"307 437 LINE",
"329 434 OFFCURVE",
"349 428 OFFCURVE",
"366 415 CURVE",
"267 110 LINE",
"151 415 LINE"
);
}
);
width = 504;
},
{
layerId = "3A3DE108-C793-40C5-98B7-5D5D6E88ABCD";
paths = (
{
closed = 1;
nodes = (
"92 -69 OFFCURVE",
"58 -121 OFFCURVE",
"58 -160 CURVE SMOOTH",
"58 -197 OFFCURVE",
"83 -219 OFFCURVE",
"124 -219 CURVE SMOOTH",
"160 -219 OFFCURVE",
"192 -196 OFFCURVE",
"192 -165 CURVE SMOOTH",
"192 -155 OFFCURVE",
"188 -144 OFFCURVE",
"180 -132 CURVE",
"171 -137 OFFCURVE",
"163 -139 OFFCURVE",
"156 -139 CURVE SMOOTH",
"141 -139 OFFCURVE",
"132 -129 OFFCURVE",
"132 -114 CURVE",
"133 -105 OFFCURVE",
"135 -95 OFFCURVE",
"143 -83 CURVE SMOOTH",
"380 280 LINE SMOOTH",
"441 375 OFFCURVE",
"458 454 OFFCURVE",
"458 454 CURVE",
"424 476 LINE",
"306 461 LINE",
"307 427 LINE",
"327 425 OFFCURVE",
"345 413 OFFCURVE",
"345 389 CURVE SMOOTH",
"345 340 OFFCURVE",
"305 254 OFFCURVE",
"212 105 CURVE",
"166 452 LINE",
"140 476 LINE",
"22 445 LINE",
"26 412 LINE",
"60 409 OFFCURVE",
"86 414 OFFCURVE",
"92 366 CURVE SMOOTH",
"140 6 LINE"
);
}
);
width = 460;
},
{
layerId = "C58AFD15-F6AF-4274-A800-842D1A888C52";
paths = (
{
closed = 1;
nodes = (
"181 -140 OFFCURVE",
"164 -162 OFFCURVE",
"142 -162 CURVE SMOOTH",
"125 -162 OFFCURVE",
"115 -150 OFFCURVE",
"115 -131 CURVE SMOOTH",
"115 -119 OFFCURVE",
"119 -107 OFFCURVE",
"126 -101 CURVE",
"112 -85 OFFCURVE",
"94 -77 OFFCURVE",
"76 -77 CURVE SMOOTH",
"42 -77 OFFCURVE",
"18 -102 OFFCURVE",
"18 -143 CURVE SMOOTH",
"18 -192 OFFCURVE",
"57 -220 OFFCURVE",
"125 -220 CURVE SMOOTH",
"191 -220 OFFCURVE",
"230 -187 OFFCURVE",
"264 -103 CURVE SMOOTH",
"477 425 LINE SMOOTH",
"483 441 OFFCURVE",
"508 448 OFFCURVE",
"529 449 CURVE",
"533 484 LINE",
"347 484 LINE",
"343 449 LINE",
"372 444 OFFCURVE",
"391 438 OFFCURVE",
"408 427 CURVE",
"298 151 LINE",
"199 430 LINE",
"213 442 OFFCURVE",
"231 448 OFFCURVE",
"256 449 CURVE",
"261 484 LINE",
"-1 484 LINE",
"-3 449 LINE",
"30 443 OFFCURVE",
"51 429 OFFCURVE",
"59 407 CURVE SMOOTH",
"203 0 LINE",
"237 0 LINE",
"207 -76 LINE SMOOTH"
);
}
);
width = 531;
},
{
layerId = "E8623A4A-BA36-4417-942F-5A3A2106E744";
paths = (
{
closed = 1;
nodes = (
"129 -54 OFFCURVE",
"95 -107 OFFCURVE",
"95 -150 CURVE SMOOTH",
"95 -197 OFFCURVE",
"132 -220 OFFCURVE",
"170 -220 CURVE SMOOTH",
"213 -220 OFFCURVE",
"258 -192 OFFCURVE",
"258 -142 CURVE SMOOTH",
"258 -136 OFFCURVE",
"257 -129 OFFCURVE",
"256 -122 CURVE",
"246 -130 OFFCURVE",
"233 -134 OFFCURVE",
"222 -134 CURVE SMOOTH",
"205 -134 OFFCURVE",
"190 -126 OFFCURVE",
"190 -107 CURVE SMOOTH",
"190 -96 OFFCURVE",
"195 -82 OFFCURVE",
"206 -65 CURVE SMOOTH",
"428 280 LINE SMOOTH",
"468 342 OFFCURVE",
"503 437 OFFCURVE",
"507 462 CURVE",
"470 492 LINE",
"354 479 LINE",
"357 435 LINE",
"374 431 OFFCURVE",
"387 421 OFFCURVE",
"387 399 CURVE SMOOTH",
"387 346 OFFCURVE",
"303 202 OFFCURVE",
"249 115 CURVE",
"202 470 LINE",
"166 492 LINE",
"12 466 LINE",
"18 422 LINE",
"60 420 OFFCURVE",
"72 402 OFFCURVE",
"77 366 CURVE SMOOTH",
"126 0 LINE",
"164 -5 LINE"
);
}
);
width = 500;
}
);
unicode = 0079;
userData = {
com.typemytype.robofont.layerData = {
};
};
},
{
glyphname = z;
lastChange = "2019-08-11 12:29:22 +0000";
layers = (
{
layerId = master01;
paths = (
{
closed = 1;
nodes = (
"403 139 LINE",
"395 140 OFFCURVE",
"388 141 OFFCURVE",
"380 141 CURVE SMOOTH",
"372 141 OFFCURVE",
"363 140 OFFCURVE",
"355 138 CURVE",
"346 104 OFFCURVE",
"332 69 OFFCURVE",
"315 46 CURVE",
"292 45 OFFCURVE",
"265 45 OFFCURVE",
"240 45 CURVE SMOOTH",
"179 45 OFFCURVE",
"159 45 OFFCURVE",
"144 46 CURVE",
"405 433 LINE",
"398 469 LINE",
"364 468 OFFCURVE",
"309 467 OFFCURVE",
"247 467 CURVE SMOOTH",
"188 467 OFFCURVE",
"100 469 OFFCURVE",
"74 469 CURVE",
"49 448 LINE",
"58 338 LINE",
"66 335 OFFCURVE",
"75 334 OFFCURVE",
"84 334 CURVE SMOOTH",
"93 334 OFFCURVE",
"103 336 OFFCURVE",
"111 339 CURVE",
"114 367 OFFCURVE",
"125 404 OFFCURVE",
"138 420 CURVE",
"157 423 OFFCURVE",
"198 425 OFFCURVE",
"228 425 CURVE SMOOTH",
"245 425 OFFCURVE",
"289 422 OFFCURVE",
"303 421 CURVE",
"44 38 LINE",
"52 -4 LINE",
"52 -4 OFFCURVE",
"127 0 OFFCURVE",
"235 0 CURVE SMOOTH",
"289 0 OFFCURVE",
"351 -1 OFFCURVE",
"377 -3 CURVE",
"396 21 LINE"
);
}
);
width = 455;
},
{
layerId = "3A3DE108-C793-40C5-98B7-5D5D6E88ABCD";
paths = (
{
closed = 1;
nodes = (
"325 120 OFFCURVE",
"313 82 OFFCURVE",
"288 46 CURVE",
"119 46 LINE",
"436 433 LINE",
"425 469 LINE",
"391 468 OFFCURVE",
"346 467 OFFCURVE",
"284 467 CURVE SMOOTH",
"225 467 OFFCURVE",
"132 469 OFFCURVE",
"106 469 CURVE",
"83 448 LINE",
"74 328 LINE",
"127 329 LINE",
"135 357 OFFCURVE",
"152 405 OFFCURVE",
"167 421 CURVE",
"330 421 LINE",
"13 38 LINE",
"24 -4 LINE",
"24 -4 OFFCURVE",
"90 0 OFFCURVE",
"198 0 CURVE SMOOTH",
"252 0 OFFCURVE",
"313 -1 OFFCURVE",
"338 -3 CURVE",
"361 21 LINE",
"388 149 LINE",
"337 155 LINE"
);
}
);
width = 450;
},
{
layerId = "C58AFD15-F6AF-4274-A800-842D1A888C52";
paths = (
{
closed = 1;
nodes = (
"434 157 OFFCURVE",
"416 160 OFFCURVE",
"401 160 CURVE SMOOTH",
"390 160 OFFCURVE",
"376 158 OFFCURVE",
"359 154 CURVE",
"350 113 OFFCURVE",
"338 77 OFFCURVE",
"325 56 CURVE",
"199 56 LINE",
"445 449 LINE",
"435 486 LINE",
"378 484 OFFCURVE",
"308 484 OFFCURVE",
"254 484 CURVE SMOOTH",
"182 484 OFFCURVE",
"92 485 OFFCURVE",
"75 486 CURVE",
"38 456 LINE",
"47 345 LINE",
"65 339 OFFCURVE",
"80 336 OFFCURVE",
"96 336 CURVE SMOOTH",
"107 336 OFFCURVE",
"121 337 OFFCURVE",
"139 340 CURVE",
"145 380 OFFCURVE",
"154 417 OFFCURVE",
"161 430 CURVE",
"277 430 LINE",
"38 42 LINE",
"42 -2 LINE",
"68 -1 OFFCURVE",
"176 0 OFFCURVE",
"223 0 CURVE SMOOTH",
"264 0 OFFCURVE",
"314 0 OFFCURVE",
"438 -1 CURVE",
"445 155 LINE"
);
}
);
width = 479;
},
{
layerId = "E8623A4A-BA36-4417-942F-5A3A2106E744";
paths = (
{
closed = 1;
nodes = (
"430 161 LINE",
"358 170 LINE",
"345 128 OFFCURVE",
"321 77 OFFCURVE",
"305 56 CURVE",
"174 56 LINE",
"474 445 LINE",
"463 486 LINE",
"406 484 OFFCURVE",
"346 484 OFFCURVE",
"292 484 CURVE SMOOTH",
"220 484 OFFCURVE",
"125 485 OFFCURVE",
"108 486 CURVE",
"71 456 LINE",
"63 335 LINE",
"80 329 OFFCURVE",
"94 326 OFFCURVE",
"110 326 CURVE SMOOTH",
"121 326 OFFCURVE",
"118 325 OFFCURVE",
"136 328 CURVE",
"148 375 OFFCURVE",
"170 411 OFFCURVE",
"180 428 CURVE",
"307 428 LINE",
"6 42 LINE",
"15 -4 LINE",
"41 -3 OFFCURVE",
"137 0 OFFCURVE",
"184 0 CURVE SMOOTH",
"222 0 OFFCURVE",
"267 -3 OFFCURVE",
"374 -4 CURVE",
"404 29 LINE"
);
}
);
width = 472;
}
);
unicode = 007A;
userData = {
com.typemytype.robofont.layerData = {
};
};
},
{
glyphname = fi;
lastChange = "2019-08-11 12:29:22 +0000";
layers = (
{
layerId = master01;
paths = (
{
closed = 1;
nodes = (
"524 40 OFFCURVE",
"501 49 OFFCURVE",
"484 61 CURVE",
"484 470 LINE",
"183 470 LINE",
"183 512 LINE SMOOTH",
"183 617 OFFCURVE",
"224 672 OFFCURVE",
"300 672 CURVE SMOOTH",
"360 672 OFFCURVE",
"394 641 OFFCURVE",
"407 568 CURVE",
"462 568 LINE",
"462 679 LINE",
"428 697 OFFCURVE",
"364 709 OFFCURVE",
"303 709 CURVE SMOOTH",
"169 709 OFFCURVE",
"98 645 OFFCURVE",
"98 524 CURVE SMOOTH",
"98 470 LINE",
"81 461 OFFCURVE",
"52 455 OFFCURVE",
"19 452 CURVE",
"24 417 LINE",
"98 417 LINE",
"98 62 LINE",
"79 47 OFFCURVE",
"65 41 OFFCURVE",
"32 36 CURVE",
"28 0 LINE",
"261 0 LINE",
"264 34 LINE",
"226 41 OFFCURVE",
"198 51 OFFCURVE",
"183 62 CURVE",
"183 417 LINE",
"330 417 LINE SMOOTH",
"382 417 OFFCURVE",
"399 401 OFFCURVE",
"399 352 CURVE SMOOTH",
"399 61 LINE",
"380 47 OFFCURVE",
"365 41 OFFCURVE",
"333 36 CURVE",
"330 0 LINE",
"550 0 LINE",
"554 34 LINE"
);
}
);
width = 581;
},
{
layerId = "3A3DE108-C793-40C5-98B7-5D5D6E88ABCD";
paths = (
{
closed = 1;
nodes = (
"219 462 LINE",
"223 588 OFFCURVE",
"272 655 OFFCURVE",
"361 655 CURVE SMOOTH",
"394 655 OFFCURVE",
"413 638 OFFCURVE",
"413 613 CURVE SMOOTH",
"413 602 OFFCURVE",
"409 589 OFFCURVE",
"402 575 CURVE",
"412 554 OFFCURVE",
"431 543 OFFCURVE",
"451 543 CURVE SMOOTH",
"482 543 OFFCURVE",
"514 567 OFFCURVE",
"514 613 CURVE SMOOTH",
"514 676 OFFCURVE",
"444 697 OFFCURVE",
"380 697 CURVE SMOOTH",
"286 697 OFFCURVE",
"171 656 OFFCURVE",
"143 513 CURVE SMOOTH",
"134 467 LINE",
"58 447 LINE",
"52 413 LINE",
"126 413 LINE",
"71 70 LINE SMOOTH",
"53 -40 OFFCURVE",
"61 -171 OFFCURVE",
"-12 -171 CURVE SMOOTH",
"-31 -171 OFFCURVE",
"-39 -158 OFFCURVE",
"-39 -143 CURVE SMOOTH",
"-39 -131 OFFCURVE",
"-33 -118 OFFCURVE",
"-22 -112 CURVE",
"-27 -88 OFFCURVE",
"-47 -76 OFFCURVE",
"-70 -76 CURVE SMOOTH",
"-99 -76 OFFCURVE",
"-130 -97 OFFCURVE",
"-130 -141 CURVE SMOOTH",
"-130 -189 OFFCURVE",
"-89 -219 OFFCURVE",
"-31 -219 CURVE SMOOTH",
"115 -219 OFFCURVE",
"137 -55 OFFCURVE",
"155 59 CURVE SMOOTH",
"211 413 LINE",
"343 413 LINE SMOOTH",
"377 413 OFFCURVE",
"389 409 OFFCURVE",
"389 379 CURVE SMOOTH",
"389 367 OFFCURVE",
"339 74 OFFCURVE",
"339 45 CURVE SMOOTH",
"339 16 OFFCURVE",
"345 -7 OFFCURVE",
"395 -7 CURVE SMOOTH",
"435 -7 OFFCURVE",
"488 30 OFFCURVE",
"510 49 CURVE",
"500 81 LINE",
"495 78 OFFCURVE",
"466 62 OFFCURVE",
"449 62 CURVE SMOOTH",
"433 62 OFFCURVE",
"430 68 OFFCURVE",
"430 84 CURVE SMOOTH",
"430 104 OFFCURVE",
"484 427 OFFCURVE",
"488 451 CURVE",
"463 476 LINE",
"291 462 LINE"
);
}
);
width = 563;
},
{
layerId = "C58AFD15-F6AF-4274-A800-842D1A888C52";
paths = (
{
closed = 1;
nodes = (
"482 693 OFFCURVE",
"405 709 OFFCURVE",
"330 709 CURVE SMOOTH",
"189 709 OFFCURVE",
"87 630 OFFCURVE",
"87 522 CURVE SMOOTH",
"87 478 LINE",
"67 469 OFFCURVE",
"34 460 OFFCURVE",
"3 455 CURVE",
"8 415 LINE",
"87 415 LINE",
"87 62 LINE",
"69 46 OFFCURVE",
"55 41 OFFCURVE",
"21 36 CURVE",
"17 0 LINE",
"311 0 LINE",
"314 34 LINE",
"273 41 OFFCURVE",
"244 50 OFFCURVE",
"228 62 CURVE",
"228 415 LINE",
"347 415 LINE SMOOTH",
"400 415 OFFCURVE",
"419 399 OFFCURVE",
"419 354 CURVE SMOOTH",
"419 66 LINE",
"404 51 OFFCURVE",
"393 46 OFFCURVE",
"367 41 CURVE",
"363 0 LINE",
"620 0 LINE",
"624 39 LINE",
"597 44 OFFCURVE",
"573 54 OFFCURVE",
"560 66 CURVE",
"560 478 LINE",
"228 478 LINE",
"228 511 OFFCURVE",
"208 555 OFFCURVE",
"208 588 CURVE SMOOTH",
"208 637 OFFCURVE",
"254 671 OFFCURVE",
"319 671 CURVE SMOOTH",
"381 671 OFFCURVE",
"410 638 OFFCURVE",
"427 550 CURVE",
"530 550 LINE",
"530 667 LINE"
);
}
);
width = 641;
},
{
layerId = "E8623A4A-BA36-4417-942F-5A3A2106E744";
paths = (
{
closed = 1;
nodes = (
"499 486 OFFCURVE",
"470 478 OFFCURVE",
"421 478 CURVE SMOOTH",
"274 478 LINE",
"274 509 OFFCURVE",
"270 542 OFFCURVE",
"270 573 CURVE SMOOTH",
"270 623 OFFCURVE",
"311 670 OFFCURVE",
"407 670 CURVE SMOOTH",
"451 670 OFFCURVE",
"483 651 OFFCURVE",
"483 622 CURVE SMOOTH",
"483 607 OFFCURVE",
"474 590 OFFCURVE",
"454 572 CURVE",
"455 541 OFFCURVE",
"483 523 OFFCURVE",
"514 523 CURVE SMOOTH",
"554 523 OFFCURVE",
"598 551 OFFCURVE",
"598 612 CURVE SMOOTH",
"598 675 OFFCURVE",
"500 709 OFFCURVE",
"419 709 CURVE SMOOTH",
"271 709 OFFCURVE",
"157 628 OFFCURVE",
"140 522 CURVE SMOOTH",
"133 478 LINE",
"108 468 OFFCURVE",
"76 460 OFFCURVE",
"52 456 CURVE",
"44 415 LINE",
"123 415 LINE",
"70 70 LINE SMOOTH",
"53 -40 OFFCURVE",
"70 -171 OFFCURVE",
"-13 -171 CURVE SMOOTH",
"-33 -171 OFFCURVE",
"-42 -157 OFFCURVE",
"-42 -141 CURVE SMOOTH",
"-42 -127 OFFCURVE",
"-34 -110 OFFCURVE",
"-21 -103 CURVE",
"-26 -75 OFFCURVE",
"-50 -61 OFFCURVE",
"-75 -61 CURVE SMOOTH",
"-108 -61 OFFCURVE",
"-144 -85 OFFCURVE",
"-144 -135 CURVE SMOOTH",
"-144 -191 OFFCURVE",
"-90 -219 OFFCURVE",
"-24 -219 CURVE SMOOTH",
"158 -219 OFFCURVE",
"190 -55 OFFCURVE",
"208 59 CURVE SMOOTH",
"264 415 LINE",
"359 415 LINE SMOOTH",
"390 415 OFFCURVE",
"412 408 OFFCURVE",
"412 376 CURVE SMOOTH",
"412 369 OFFCURVE",
"411 362 OFFCURVE",
"410 354 CURVE SMOOTH",
"375 136 LINE SMOOTH",
"372 116 OFFCURVE",
"370 97 OFFCURVE",
"370 81 CURVE SMOOTH",
"370 27 OFFCURVE",
"390 -6 OFFCURVE",
"453 -6 CURVE SMOOTH",
"500 -6 OFFCURVE",
"567 22 OFFCURVE",
"593 48 CURVE",
"580 84 LINE",
"562 74 OFFCURVE",
"546 68 OFFCURVE",
"534 68 CURVE SMOOTH",
"520 68 OFFCURVE",
"511 76 OFFCURVE",
"511 93 CURVE SMOOTH",
"511 102 OFFCURVE",
"514 117 OFFCURVE",
"515 123 CURVE SMOOTH",
"569 470 LINE",
"533 492 LINE"
);
}
);
width = 623;
}
);
unicode = FB01;
userData = {
com.typemytype.robofont.layerData = {
};
};
},
